<svg width="109" height="51" viewBox="0 0 109 51" fill="none" xmlns="http://www.w3.org/2000/svg">
<path d="M81.3638 24C80.7275 23.9939 80.2002 23.9515 79.782 23.8727C79.3699 23.7879 79.0184 23.6697 78.7275 23.5182C78.4426 23.3606 78.2123 23.1667 78.0366 22.9364C77.8669 22.7 77.7335 22.4273 77.6366 22.1182C77.5396 21.803 77.476 21.4515 77.4457 21.0636C77.4154 20.6758 77.4002 20.2455 77.4002 19.7727V11.0273H79.1184V19.7727C79.1184 20.3 79.1335 20.7273 79.1638 21.0545C79.2002 21.3818 79.2881 21.6364 79.4275 21.8182C79.5729 21.9939 79.7881 22.1152 80.0729 22.1818C80.3638 22.2424 80.7942 22.2758 81.3638 22.2818V24ZM88.733 22.2818V24H88.0239C87.4723 24 86.9845 23.9212 86.5602 23.7636C86.142 23.6061 85.8057 23.3697 85.5511 23.0545C84.9208 23.6848 83.9875 24 82.7511 24H81.0057V22.2818H82.7511C83.1875 22.2818 83.533 22.2394 83.7875 22.1545C84.042 22.0636 84.233 21.9545 84.3602 21.8273C84.4936 21.6939 84.5784 21.5485 84.6148 21.3909C84.6572 21.2273 84.6784 21.0727 84.6784 20.9273V17.8545H86.3875V20.8636C86.3875 21.0879 86.4208 21.2788 86.4875 21.4364C86.5542 21.5939 86.639 21.7273 86.742 21.8364C86.8511 21.9394 86.9693 22.0212 87.0966 22.0818C87.2299 22.1424 87.3572 22.1879 87.4784 22.2182C87.5996 22.2485 87.7087 22.2667 87.8057 22.2727C87.9027 22.2788 87.9754 22.2818 88.0239 22.2818H88.733ZM83.0511 27.4L84.5966 25.8364L86.1784 27.4182L84.6148 28.9818L83.0511 27.4ZM93.669 21.7636C93.9417 21.6667 94.1871 21.5455 94.4053 21.4C94.6235 21.2545 94.8084 21.0848 94.9599 20.8909C95.1174 20.697 95.2387 20.4758 95.3235 20.2273C95.4084 19.9788 95.4508 19.697 95.4508 19.3818C95.4508 19.2 95.4023 19.0182 95.3053 18.8364C95.2144 18.6545 95.0871 18.4909 94.9235 18.3455C94.7659 18.2 94.5841 18.0818 94.3781 17.9909C94.172 17.9 93.9568 17.8545 93.7326 17.8545C93.4781 17.8545 93.2326 17.897 92.9962 17.9818C92.7659 18.0606 92.5599 18.1697 92.3781 18.3091C92.2023 18.4424 92.0629 18.603 91.9599 18.7909C91.8568 18.9788 91.8053 19.1758 91.8053 19.3818V19.4909C91.8053 19.7515 91.8447 20 91.9235 20.2364C92.0084 20.4667 92.1326 20.6788 92.2962 20.8727C92.4599 21.0667 92.6568 21.2394 92.8871 21.3909C93.1235 21.5364 93.3841 21.6606 93.669 21.7636ZM93.7326 16.1364C94.2538 16.1364 94.7205 16.2273 95.1326 16.4091C95.5447 16.5909 95.8932 16.8333 96.1781 17.1364C96.4629 17.4333 96.6811 17.7788 96.8326 18.1727C96.9841 18.5606 97.0599 18.9636 97.0599 19.3818C97.0599 19.9697 96.975 20.5 96.8053 20.9727C96.6417 21.4455 96.3902 21.8636 96.0508 22.2273C96.5114 22.2636 97.0084 22.2818 97.5417 22.2818H98.5962V24H97.5417C95.9902 24 94.6932 23.8545 93.6508 23.5636C93.1174 23.7091 92.5053 23.8182 91.8144 23.8909C91.1235 23.9636 90.3356 24 89.4508 24H88.369V22.2818H89.4508C90.1114 22.2818 90.7023 22.2636 91.2235 22.2273C90.8659 21.8576 90.5993 21.4364 90.4235 20.9636C90.2478 20.4848 90.1599 19.9576 90.1599 19.3818C90.1599 18.9394 90.2508 18.5212 90.4326 18.1273C90.6205 17.7333 90.875 17.3879 91.1962 17.0909C91.5235 16.7939 91.9023 16.5606 92.3326 16.3909C92.769 16.2212 93.2356 16.1364 93.7326 16.1364ZM92.1326 12.3091L93.6781 10.7455L95.2599 12.3273L93.6962 13.8909L92.1326 12.3091ZM98.2322 22.2818H98.5413C99.0989 22.2818 99.5322 22.2424 99.8413 22.1636C100.156 22.0788 100.399 21.9515 100.569 21.7818C100.69 21.6667 100.778 21.5061 100.832 21.3C100.893 21.0879 100.923 20.8091 100.923 20.4636V11.0182H102.632V20.4636C102.632 20.6697 102.623 20.8848 102.605 21.1091C102.587 21.3273 102.547 21.5485 102.487 21.7727C102.426 21.997 102.338 22.2182 102.223 22.4364C102.108 22.6485 101.953 22.8485 101.76 23.0364C101.584 23.2 101.393 23.3424 101.187 23.4636C100.987 23.5788 100.756 23.6788 100.496 23.7636C100.235 23.8424 99.9444 23.903 99.6232 23.9455C99.3019 23.9818 98.9413 24 98.5413 24H98.2322V22.2818ZM107.185 23.9909H105.467V11.0273H107.185V23.9909Z" fill="black"/>
<path d="M8.3771 40.3127V44.2727C8.3771 45.0982 8.18619 45.7309 7.80438 46.1709C7.68438 46.3091 7.54619 46.4291 7.38983 46.5309C7.2371 46.6364 7.06619 46.7236 6.8771 46.7927C6.48801 46.9382 6.01528 47.0109 5.45892 47.0109H4.1771C3.65347 47.0109 3.1771 46.8945 2.74801 46.6618C2.31892 46.4327 1.96983 46.1055 1.70074 45.68C1.51528 45.3855 1.37892 45.0545 1.29165 44.6873C1.21892 44.3818 1.18256 44.06 1.18256 43.7218C1.18256 43.6527 1.18438 43.5818 1.18801 43.5091C1.20619 43.0582 1.28438 42.6 1.42256 42.1345C1.56437 41.6691 1.76256 41.1709 2.0171 40.64L2.62256 40.9291C2.40438 41.3836 2.23165 41.82 2.10438 42.2382C1.98074 42.6527 1.90437 43.0455 1.87528 43.4164C1.86801 43.5291 1.86438 43.64 1.86438 43.7491C1.86438 43.9964 1.88983 44.2564 1.94074 44.5291C1.99528 44.8018 2.10438 45.0673 2.26801 45.3255C2.47528 45.6491 2.74256 45.8982 3.06983 46.0727C3.40074 46.2509 3.76983 46.34 4.1771 46.34H5.45892C6.33528 46.34 6.94801 46.1382 7.2971 45.7345C7.56983 45.4182 7.70619 44.9309 7.70619 44.2727V40.3127H8.3771ZM4.4771 39.8818L5.17528 39.1727L5.89528 39.8927L5.18619 40.6018L4.4771 39.8818ZM12.2803 44C11.8476 44 11.5003 43.9491 11.2385 43.8473C10.9803 43.7455 10.7821 43.5945 10.6439 43.3945C10.5058 43.1945 10.4148 42.9491 10.3712 42.6582C10.3276 42.3636 10.3058 42.0255 10.3058 41.6436V36.2164H10.9876V41.6436C10.9876 41.9818 10.9985 42.26 11.0203 42.4782C11.0421 42.6964 11.0967 42.8691 11.1839 42.9964C11.2712 43.12 11.4003 43.2073 11.5712 43.2582C11.7458 43.3055 11.9821 43.3291 12.2803 43.3291H12.3567V44H12.2803ZM21.8353 44C21.6643 44 21.4971 43.9873 21.3334 43.9618C21.1734 43.9327 21.0225 43.8891 20.8807 43.8309C20.7389 43.7727 20.6098 43.6964 20.4934 43.6018C20.3771 43.5073 20.2807 43.3945 20.2043 43.2636C20.1643 43.3218 20.1225 43.3745 20.0789 43.4218C20.0353 43.4655 19.9934 43.5055 19.9534 43.5418C19.7862 43.6909 19.6007 43.8055 19.3971 43.8855C19.1934 43.9618 18.9734 44 18.7371 44C18.548 44 18.3771 43.9855 18.2243 43.9564C18.0753 43.9236 17.9389 43.8782 17.8153 43.82C17.6953 43.7582 17.5825 43.6818 17.4771 43.5909C17.3753 43.4964 17.2789 43.3873 17.188 43.2636C17.0134 43.5 16.7989 43.6818 16.5443 43.8091C16.2934 43.9364 16.0171 44 15.7153 44C15.388 44 15.1116 43.9545 14.8862 43.8636C14.6643 43.7727 14.4643 43.6382 14.2862 43.46C14.2571 43.4309 14.2298 43.4 14.2043 43.3673C14.1789 43.3345 14.1534 43.3 14.128 43.2636C14.088 43.3218 14.0462 43.3745 14.0025 43.4218C13.9589 43.4655 13.9171 43.5055 13.8771 43.5418C13.7098 43.6909 13.5189 43.8055 13.3043 43.8855C13.0934 43.9618 12.8698 44 12.6334 44H12.1643V43.3291H12.6989C12.8334 43.3291 12.968 43.3073 13.1025 43.2636C13.2407 43.22 13.3662 43.1509 13.4789 43.0564C13.5916 42.9618 13.6825 42.8382 13.7516 42.6855C13.8243 42.5291 13.8607 42.3382 13.8607 42.1127V40.3182H14.5316V42.1127C14.5316 42.5127 14.6243 42.8145 14.8098 43.0182C14.9989 43.2218 15.3098 43.3255 15.7425 43.3291C15.8771 43.3291 16.0098 43.3073 16.1407 43.2636C16.2753 43.22 16.3953 43.1509 16.5007 43.0564C16.6062 42.9618 16.6916 42.8382 16.7571 42.6855C16.8225 42.5291 16.8553 42.3382 16.8553 42.1127V40.3182H17.5262V42.1127C17.5262 42.5127 17.6207 42.8145 17.8098 43.0182C17.9989 43.2218 18.3098 43.3255 18.7425 43.3291C18.8771 43.3291 19.0116 43.3073 19.1462 43.2636C19.2807 43.22 19.4007 43.1509 19.5062 43.0564C19.6153 42.9618 19.7025 42.8382 19.768 42.6855C19.8371 42.5291 19.8716 42.3382 19.8716 42.1127V40.3182H20.5425V42.1127C20.5425 42.9127 20.9753 43.3182 21.8407 43.3291H22.1298V44H21.8353ZM25.558 39.6145C25.5943 39.7709 25.6343 39.9436 25.678 40.1327C25.7216 40.3218 25.7598 40.5182 25.7925 40.7218C25.8289 40.9218 25.8598 41.1255 25.8853 41.3327C25.9107 41.54 25.9271 41.7382 25.9343 41.9273V41.96C25.9343 42.2073 25.8962 42.4527 25.8198 42.6964C25.7434 42.94 25.6307 43.16 25.4816 43.3564C25.3325 43.5491 25.1489 43.7055 24.9307 43.8255C24.7162 43.9418 24.4743 44 24.2053 44H21.9416V43.3291H24.2053C24.3798 43.3182 24.5325 43.2727 24.6634 43.1927C24.798 43.1127 24.9089 43.0091 24.9962 42.8818C25.0871 42.7509 25.1562 42.6036 25.2034 42.44C25.2434 42.2909 25.2634 42.1382 25.2634 41.9818V41.9436C25.2598 41.7691 25.2453 41.5873 25.2198 41.3982C25.198 41.2091 25.1689 41.0218 25.1325 40.8364C25.0998 40.6509 25.0634 40.4709 25.0234 40.2964C24.9834 40.1218 24.9453 39.96 24.9089 39.8109L25.558 39.6145ZM25.3016 46.7709L24.6253 46.0891L25.2907 45.4127L25.978 46.0945L25.3016 46.7709ZM23.0762 46.76L22.3998 46.0782L23.0653 45.4018L23.7525 46.0836L23.0762 46.76ZM31.3124 43.3291V41.9709C31.3051 41.6836 31.2779 41.4182 31.2306 41.1745C31.1869 40.9273 31.1106 40.7145 31.0015 40.5364C30.8924 40.3545 30.7469 40.2145 30.5651 40.1164C30.3833 40.0145 30.1506 39.9636 29.8669 39.9636C29.5869 39.9636 29.3542 40.0145 29.1688 40.1164C28.9833 40.2182 28.8342 40.36 28.7215 40.5418C28.6124 40.72 28.5342 40.9327 28.4869 41.18C28.4433 41.4236 28.4215 41.6873 28.4215 41.9709C28.4215 42.2218 28.4651 42.4345 28.5524 42.6091C28.6397 42.78 28.7615 42.92 28.9179 43.0291C29.0742 43.1345 29.256 43.2109 29.4633 43.2582C29.6742 43.3055 29.9033 43.3291 30.1506 43.3291H31.3124ZM29.8669 39.2927C30.2415 39.3073 30.5633 39.3818 30.8324 39.5164C31.1015 39.6509 31.3197 39.8364 31.4869 40.0727C31.6579 40.3055 31.7833 40.5836 31.8633 40.9073C31.9433 41.2273 31.9833 41.5818 31.9833 41.9709V43.3291H32.9106V44H31.9833V44.0927C31.9833 44.5727 31.8997 44.9964 31.7324 45.3636C31.5688 45.7309 31.3288 46.0382 31.0124 46.2855C30.696 46.5327 30.3179 46.7145 29.8779 46.8309C29.4415 46.9509 28.9633 47.0109 28.4433 47.0109H28.1324V46.34H28.4433C28.8833 46.3291 29.2779 46.2855 29.6269 46.2091C29.9797 46.1327 30.2797 46.0055 30.5269 45.8273C30.7742 45.6491 30.9651 45.4109 31.0997 45.1127C31.2342 44.8182 31.3051 44.4473 31.3124 44H30.0688C29.7633 44 29.4706 43.96 29.1906 43.88C28.9106 43.8 28.6615 43.6764 28.4433 43.5091C28.2288 43.3382 28.0597 43.1255 27.936 42.8709C27.8124 42.6127 27.7506 42.3127 27.7506 41.9709C27.7506 41.5855 27.7888 41.2327 27.8651 40.9127C27.9451 40.5891 28.0688 40.3109 28.236 40.0782C28.4069 39.8418 28.6251 39.6564 28.8906 39.5218C29.1597 39.3836 29.4851 39.3073 29.8669 39.2927ZM35.4821 39.6145C35.5184 39.7709 35.5584 39.9436 35.6021 40.1327C35.6457 40.3218 35.6839 40.5182 35.7166 40.7218C35.753 40.9218 35.7839 41.1255 35.8093 41.3327C35.8348 41.54 35.8512 41.7382 35.8584 41.9273V41.96C35.8584 42.2073 35.8202 42.4527 35.7439 42.6964C35.6675 42.94 35.5548 43.16 35.4057 43.3564C35.2566 43.5491 35.073 43.7055 34.8548 43.8255C34.6402 43.9418 34.3984 44 34.1293 44H32.7112V43.3291H34.1293C34.3039 43.3182 34.4566 43.2727 34.5875 43.1927C34.7221 43.1127 34.833 43.0091 34.9202 42.8818C35.0112 42.7509 35.0802 42.6036 35.1275 42.44C35.1675 42.2909 35.1875 42.1382 35.1875 41.9818V41.9436C35.1839 41.7691 35.1693 41.5873 35.1439 41.3982C35.1221 41.2091 35.093 41.0218 35.0566 40.8364C35.0239 40.6509 34.9875 40.4709 34.9475 40.2964C34.9075 40.1218 34.8693 39.96 34.833 39.8109L35.4821 39.6145ZM34.0475 37.3073L34.7457 36.5982L35.4657 37.3182L34.7566 38.0273L34.0475 37.3073ZM47.2443 44H47.1352C46.8479 44 46.5788 43.9655 46.3279 43.8964C46.0806 43.8273 45.8479 43.7255 45.6297 43.5909C45.3788 43.4309 45.1625 43.2309 44.9806 42.9909C44.9006 42.8855 44.8297 42.7709 44.7679 42.6473C44.7061 42.5236 44.6515 42.3927 44.6043 42.2545C44.4915 42.4836 44.3497 42.6927 44.1788 42.8818C44.0115 43.0673 43.8043 43.2073 43.557 43.3018C43.2625 43.4182 42.9715 43.4764 42.6843 43.4764C42.6588 43.4764 42.5606 43.4745 42.3897 43.4709C42.2225 43.4636 42.0097 43.3982 41.7515 43.2745C41.4934 43.1473 41.2715 42.9691 41.0861 42.74C40.9043 42.5109 40.7861 42.2418 40.7315 41.9327C40.7097 41.8127 40.6988 41.6945 40.6988 41.5782C40.6988 41.3309 40.7534 41.0655 40.8625 40.7818C40.9715 40.4982 41.1625 40.2218 41.4352 39.9527C41.697 39.6909 42.0206 39.46 42.4061 39.26C42.7915 39.06 43.2297 38.8945 43.7206 38.7636L43.5734 38.0327L44.2388 37.8473C44.3443 38.2982 44.4352 38.6927 44.5115 39.0309C44.5915 39.3691 44.6625 39.6709 44.7243 39.9364C44.7679 40.1218 44.8079 40.2982 44.8443 40.4655C44.8806 40.6291 44.917 40.7909 44.9534 40.9509C44.9934 41.1073 45.0334 41.2636 45.0734 41.42C45.1134 41.5764 45.157 41.7418 45.2043 41.9164C45.2625 42.1309 45.3388 42.3145 45.4334 42.4673C45.5279 42.6164 45.6334 42.7436 45.7497 42.8491C45.8697 42.9545 45.9934 43.04 46.1206 43.1055C46.2479 43.1673 46.3734 43.2145 46.497 43.2473C46.6243 43.28 46.7425 43.3018 46.8515 43.3127C46.9606 43.3236 47.0552 43.3291 47.1352 43.3291H47.2443V44ZM43.9115 39.4018C43.4825 39.5182 43.1006 39.6618 42.7661 39.8327C42.4352 40 42.1588 40.1891 41.937 40.4C41.7188 40.6073 41.5625 40.8309 41.4679 41.0709C41.4025 41.2345 41.3697 41.4018 41.3697 41.5727C41.3697 41.6527 41.377 41.7327 41.3915 41.8127C41.4279 42.02 41.5152 42.1982 41.6534 42.3473C41.7915 42.4964 41.9534 42.6109 42.1388 42.6909C42.3243 42.7673 42.5188 42.8073 42.7225 42.8109H42.7497C42.9388 42.8109 43.1097 42.7745 43.2625 42.7018C43.4697 42.6 43.637 42.4782 43.7643 42.3364C43.8915 42.1909 43.9897 42.04 44.0588 41.8836C44.1279 41.7273 44.1734 41.5727 44.1952 41.42C44.217 41.2636 44.2261 41.1236 44.2225 41C44.2225 40.8764 44.2152 40.7764 44.2006 40.7C44.1897 40.62 44.1843 40.5782 44.1843 40.5745C44.1443 40.4 44.1097 40.2527 44.0806 40.1327C44.0552 40.0127 44.0315 39.9091 44.0097 39.8218C43.9915 39.7345 43.9734 39.6582 43.9552 39.5927C43.9406 39.5273 43.9261 39.4636 43.9115 39.4018ZM51.0686 43.5855C51.1814 43.5855 51.2941 43.5564 51.4068 43.4982C51.5232 43.44 51.625 43.3455 51.7123 43.2145C51.8032 43.0836 51.8759 42.9127 51.9305 42.7018C51.9886 42.4873 52.0177 42.2273 52.0177 41.9218C52.0177 41.7036 51.9814 41.4836 51.9086 41.2618C51.8395 41.0364 51.7414 40.8364 51.6141 40.6618C51.5777 40.6109 51.5305 40.5545 51.4723 40.4927C51.4177 40.4309 51.3523 40.3727 51.2759 40.3182C51.1995 40.2636 51.1141 40.2182 51.0195 40.1818C50.925 40.1418 50.8232 40.1218 50.7141 40.1218C50.4777 40.1218 50.2795 40.1655 50.1195 40.2527C49.9595 40.3364 49.8232 40.4582 49.7105 40.6182C49.6014 40.7782 49.5068 40.9745 49.4268 41.2073C49.3468 41.4364 49.2668 41.6964 49.1868 41.9873C49.1505 42.1218 49.1141 42.2527 49.0777 42.38C49.0414 42.5073 49.0014 42.6309 48.9577 42.7509C49.1905 42.8673 49.4068 42.9782 49.6068 43.0836C49.8068 43.1891 49.9923 43.28 50.1632 43.3564C50.3341 43.4327 50.4941 43.4909 50.6432 43.5309C50.7705 43.5673 50.8923 43.5855 51.0086 43.5855H51.0686ZM50.7141 39.4509C50.9905 39.4509 51.2505 39.5218 51.4941 39.6636C51.7414 39.8018 51.9614 40.0036 52.1541 40.2691C52.325 40.5018 52.4559 40.7618 52.5468 41.0491C52.6414 41.3364 52.6886 41.6273 52.6886 41.9218C52.6886 42.1109 52.6759 42.3 52.6505 42.4891C52.625 42.6745 52.585 42.8545 52.5305 43.0291C52.4795 43.2036 52.4105 43.3655 52.3232 43.5145C52.2395 43.6636 52.1377 43.7927 52.0177 43.9018C51.8977 44.0109 51.7595 44.0964 51.6032 44.1582C51.4468 44.2236 51.2686 44.2564 51.0686 44.2564C50.8868 44.2564 50.7086 44.2327 50.5341 44.1855C50.3595 44.1418 50.1759 44.08 49.9832 44C49.7941 43.92 49.5923 43.8255 49.3777 43.7164C49.1632 43.6073 48.9268 43.4873 48.6686 43.3564C48.3886 43.7855 47.9995 44 47.5014 44H47.0159V43.3291H47.5014C47.6432 43.3291 47.7632 43.3 47.8614 43.2418C47.9632 43.18 48.0541 43.0818 48.1341 42.9473C48.2214 42.8055 48.2959 42.6364 48.3577 42.44C48.4195 42.24 48.4814 42.0309 48.5432 41.8127C48.6159 41.5436 48.6941 41.2764 48.7777 41.0109C48.865 40.7455 48.985 40.5 49.1377 40.2745C49.5123 39.7255 50.0377 39.4509 50.7141 39.4509ZM56.4834 44C56.0507 44 55.7034 43.9491 55.4416 43.8473C55.1834 43.7455 54.9852 43.5945 54.8471 43.3945C54.7089 43.1945 54.618 42.9491 54.5743 42.6582C54.5307 42.3636 54.5089 42.0255 54.5089 41.6436V36.2164H55.1907V41.6436C55.1907 41.9818 55.2016 42.26 55.2234 42.4782C55.2452 42.6964 55.2998 42.8691 55.3871 42.9964C55.4743 43.12 55.6034 43.2073 55.7743 43.2582C55.9489 43.3055 56.1852 43.3291 56.4834 43.3291H56.5598V44H56.4834ZM59.1657 39.6145C59.202 39.7709 59.242 39.9436 59.2857 40.1327C59.3293 40.3218 59.3675 40.5182 59.4002 40.7218C59.4366 40.9218 59.4675 41.1255 59.4929 41.3327C59.5184 41.54 59.5347 41.7382 59.542 41.9273V41.96C59.542 42.2073 59.5038 42.4527 59.4275 42.6964C59.3511 42.94 59.2384 43.16 59.0893 43.3564C58.9402 43.5491 58.7566 43.7055 58.5384 43.8255C58.3238 43.9418 58.082 44 57.8129 44H56.3947V43.3291H57.8129C57.9875 43.3182 58.1402 43.2727 58.2711 43.1927C58.4057 43.1127 58.5166 43.0091 58.6038 42.8818C58.6947 42.7509 58.7638 42.6036 58.8111 42.44C58.8511 42.2909 58.8711 42.1382 58.8711 41.9818V41.9436C58.8675 41.7691 58.8529 41.5873 58.8275 41.3982C58.8057 41.2091 58.7766 41.0218 58.7402 40.8364C58.7075 40.6509 58.6711 40.4709 58.6311 40.2964C58.5911 40.1218 58.5529 39.96 58.5166 39.8109L59.1657 39.6145ZM57.7311 37.3073L58.4293 36.5982L59.1493 37.3182L58.4402 38.0273L57.7311 37.3073ZM64.3339 44H64.083C63.8575 44 63.643 43.9691 63.4393 43.9073C63.2393 43.8455 63.0575 43.7564 62.8939 43.64V43.82C62.8939 44.8745 62.6321 45.6709 62.1084 46.2091C61.5884 46.7473 60.8193 47.0164 59.8012 47.0164H59.043V46.3509H59.8012C60.6557 46.3509 61.2812 46.1273 61.6775 45.68C62.0412 45.2655 62.223 44.6455 62.223 43.82V40.3182H62.8939V42.2709C62.8939 42.4673 62.9302 42.6327 63.003 42.7673C63.0757 42.9018 63.1684 43.0109 63.2812 43.0945C63.3975 43.1782 63.5248 43.2382 63.663 43.2745C63.8048 43.3109 63.9448 43.3291 64.083 43.3291H64.3339V44ZM66.9469 39.6145C66.9833 39.7709 67.0233 39.9436 67.0669 40.1327C67.1105 40.3218 67.1487 40.5182 67.1814 40.7218C67.2178 40.9218 67.2487 41.1255 67.2742 41.3327C67.2996 41.54 67.316 41.7382 67.3233 41.9273V41.96C67.3233 42.2073 67.2851 42.4527 67.2087 42.6964C67.1324 42.94 67.0196 43.16 66.8705 43.3564C66.7214 43.5491 66.5378 43.7055 66.3196 43.8255C66.1051 43.9418 65.8633 44 65.5942 44H64.176V43.3291H65.5942C65.7687 43.3182 65.9214 43.2727 66.0524 43.1927C66.1869 43.1127 66.2978 43.0091 66.3851 42.8818C66.476 42.7509 66.5451 42.6036 66.5924 42.44C66.6324 42.2909 66.6524 42.1382 66.6524 41.9818V41.9436C66.6487 41.7691 66.6342 41.5873 66.6087 41.3982C66.5869 41.2091 66.5578 41.0218 66.5214 40.8364C66.4887 40.6509 66.4524 40.4709 66.4124 40.2964C66.3724 40.1218 66.3342 39.96 66.2978 39.8109L66.9469 39.6145ZM65.5014 45.98L66.1233 45.3527L66.7669 45.9909L66.1342 46.6236L65.5014 45.98ZM79.1073 39.2491C79.2855 39.2491 79.4637 39.2618 79.6418 39.2873C79.8237 39.3127 80.0073 39.3527 80.1928 39.4073L80.0073 40.0509C79.7018 39.9636 79.4037 39.92 79.1128 39.92C78.76 39.92 78.4273 39.98 78.1146 40.1C77.8055 40.22 77.5309 40.3982 77.2909 40.6345C77.0073 40.9109 76.8091 41.2364 76.6964 41.6109C76.6237 41.84 76.5873 42.0745 76.5873 42.3145C76.5873 42.4636 76.6018 42.6145 76.6309 42.7673C76.6891 42.7855 76.7818 42.8127 76.9091 42.8491C77.04 42.8818 77.1891 42.92 77.3564 42.9636C77.5237 43.0073 77.7 43.0545 77.8855 43.1055C78.0746 43.1564 78.2564 43.2055 78.4309 43.2527C78.6091 43.3 78.7709 43.3436 78.9164 43.3836C79.0618 43.4236 79.1782 43.4545 79.2655 43.4764C79.4109 43.5164 79.5255 43.5636 79.6091 43.6182C79.6964 43.6727 79.76 43.7327 79.8 43.7982C79.84 43.8636 79.8655 43.9345 79.8764 44.0109C79.8873 44.0873 79.8928 44.1673 79.8928 44.2509C79.8928 44.3745 79.8837 44.5164 79.8655 44.6764C79.8473 44.8364 79.8164 45 79.7728 45.1673C79.7328 45.3382 79.6764 45.5036 79.6037 45.6636C79.5346 45.8273 79.4473 45.9727 79.3418 46.1C79.1964 46.2782 79.0364 46.4255 78.8618 46.5418C78.6909 46.6582 78.5055 46.7509 78.3055 46.82C78.1091 46.8891 77.9 46.9364 77.6782 46.9618C77.46 46.9909 77.2291 47.0055 76.9855 47.0055H75.5946C75.3509 47.0055 75.1109 46.9764 74.8746 46.9182C74.6382 46.86 74.4109 46.7709 74.1928 46.6509C73.9746 46.5345 73.7728 46.3909 73.5873 46.22C73.4055 46.0527 73.2455 45.86 73.1073 45.6418C72.9073 45.3218 72.7673 44.98 72.6873 44.6164C72.6182 44.3182 72.5837 44.0127 72.5837 43.7C72.5837 43.6309 72.5855 43.5618 72.5891 43.4927C72.6218 42.5945 72.8909 41.6218 73.3964 40.5745L74.0018 40.8636C73.7837 41.3145 73.6128 41.7509 73.4891 42.1727C73.3691 42.5909 73.2964 42.9873 73.2709 43.3618C73.2637 43.4745 73.26 43.5836 73.26 43.6891C73.26 43.94 73.2873 44.2036 73.3418 44.48C73.4 44.7564 73.5109 45.0255 73.6746 45.2873C73.8855 45.6218 74.16 45.88 74.4982 46.0618C74.84 46.2436 75.22 46.3345 75.6382 46.3345H76.9855C77.4328 46.3345 77.8 46.2818 78.0873 46.1764C78.3746 46.0709 78.6109 45.9164 78.7964 45.7127C78.8873 45.6145 78.9618 45.5 79.02 45.3691C79.0818 45.2418 79.1291 45.1073 79.1618 44.9655C79.1982 44.8273 79.2218 44.6873 79.2328 44.5455C79.2364 44.4909 79.2382 44.4364 79.2382 44.3818C79.2382 44.3055 79.2346 44.2309 79.2273 44.1582L76.0691 43.3073L76.02 43.1218C75.9509 42.8636 75.9164 42.6036 75.9164 42.3418C75.9164 42.3309 75.9164 42.2545 75.9164 42.1127C75.9164 41.9709 75.9509 41.7727 76.02 41.5182C76.0891 41.2636 76.1909 41.0218 76.3255 40.7927C76.46 40.56 76.6255 40.3473 76.8218 40.1545C76.9709 40.0091 77.1328 39.88 77.3073 39.7673C77.4855 39.6509 77.6728 39.5545 77.8691 39.4782C78.0655 39.4018 78.2691 39.3436 78.48 39.3036C78.6691 39.2673 78.86 39.2491 79.0528 39.2491H79.1073ZM83.8936 44C83.4609 44 83.1136 43.9491 82.8518 43.8473C82.5936 43.7455 82.3954 43.5945 82.2572 43.3945C82.119 43.1945 82.0281 42.9491 81.9845 42.6582C81.9409 42.3636 81.919 42.0255 81.919 41.6436V36.2164H82.6009V41.6436C82.6009 41.9818 82.6118 42.26 82.6336 42.4782C82.6554 42.6964 82.7099 42.8691 82.7972 42.9964C82.8845 43.12 83.0136 43.2073 83.1845 43.2582C83.359 43.3055 83.5954 43.3291 83.8936 43.3291H83.9699V44H83.8936ZM90.3667 44C90.0904 44 89.8522 43.9673 89.6522 43.9018C89.4558 43.8327 89.2813 43.7291 89.1285 43.5909C89.0558 43.5291 88.9922 43.46 88.9376 43.3836C88.8758 43.5145 88.7976 43.6345 88.7031 43.7436C88.6122 43.8491 88.5085 43.94 88.3922 44.0164C88.2758 44.0927 88.1522 44.1509 88.0213 44.1909C87.8904 44.2345 87.7558 44.2564 87.6176 44.2564C87.4394 44.2564 87.2613 44.2345 87.0831 44.1909C86.9049 44.1473 86.7194 44.0855 86.5267 44.0055C86.334 43.9291 86.1304 43.8364 85.9158 43.7273C85.7013 43.6145 85.4685 43.4909 85.2176 43.3564C84.9304 43.7855 84.5394 44 84.0449 44H83.7776V43.3291H84.0449C84.1867 43.3291 84.3067 43.3 84.4049 43.2418C84.5067 43.18 84.5994 43.0818 84.6831 42.9473C84.7704 42.8055 84.8431 42.6364 84.9013 42.44C84.9631 42.24 85.0249 42.0309 85.0867 41.8127C85.1231 41.6782 85.1594 41.5436 85.1958 41.4091C85.2358 41.2745 85.2794 41.1418 85.3267 41.0109C85.374 40.88 85.4249 40.7527 85.4794 40.6291C85.5376 40.5055 85.6049 40.3873 85.6813 40.2745C86.0522 39.7255 86.5794 39.4509 87.2631 39.4509C87.5358 39.4509 87.7958 39.5218 88.0431 39.6636C88.2904 39.8018 88.5085 40.0036 88.6976 40.2691C88.8722 40.5018 89.0049 40.7618 89.0958 41.0491C89.1867 41.3364 89.2322 41.6273 89.2322 41.9218C89.2322 42.4927 89.3485 42.8855 89.5813 43.1C89.6685 43.18 89.7722 43.2382 89.8922 43.2745C90.0158 43.3109 90.174 43.3291 90.3667 43.3291H90.4813V44H90.3667ZM87.6176 43.5855C87.7304 43.5855 87.8431 43.5564 87.9558 43.4982C88.0685 43.44 88.1704 43.3455 88.2613 43.2145C88.3522 43.0836 88.4249 42.9127 88.4794 42.7018C88.534 42.4873 88.5613 42.2273 88.5613 41.9218C88.5613 41.7036 88.5249 41.4836 88.4522 41.2618C88.3831 41.0364 88.2849 40.8364 88.1576 40.6618C88.1213 40.6109 88.074 40.5545 88.0158 40.4927C87.9613 40.4309 87.8958 40.3727 87.8194 40.3182C87.7431 40.2636 87.6576 40.2182 87.5631 40.1818C87.4722 40.1418 87.3722 40.1218 87.2631 40.1218C87.0231 40.1218 86.8231 40.1655 86.6631 40.2527C86.5031 40.3364 86.3667 40.4582 86.254 40.6182C86.1449 40.7782 86.0504 40.9745 85.9704 41.2073C85.8904 41.4364 85.8122 41.6964 85.7358 41.9873C85.6958 42.1218 85.6576 42.2527 85.6213 42.38C85.5849 42.5073 85.5467 42.6309 85.5067 42.7509C85.7394 42.8745 85.954 42.9891 86.1504 43.0945C86.3504 43.1964 86.5358 43.2855 86.7067 43.3618C86.8813 43.4345 87.0449 43.4909 87.1976 43.5309C87.3358 43.5673 87.4649 43.5855 87.5849 43.5855H87.6176ZM94.9217 43.3291V44H94.5399C94.2963 44 94.0654 43.9636 93.8472 43.8909C93.629 43.8182 93.4381 43.7145 93.2745 43.58C93.1763 43.5 93.0945 43.4164 93.029 43.3291C92.8436 43.5618 92.6108 43.7309 92.3308 43.8364C92.0508 43.9418 91.7108 43.9964 91.3108 44H90.2854V43.3291H91.3108C91.5254 43.3218 91.7163 43.3018 91.8836 43.2691C92.0508 43.2364 92.1926 43.18 92.309 43.1C92.4254 43.02 92.5145 42.9145 92.5763 42.7836C92.6417 42.6491 92.6781 42.4782 92.6854 42.2709V40.3127H93.3563V42.2709C93.3563 42.4673 93.3926 42.6327 93.4654 42.7673C93.5381 42.9018 93.6308 43.0109 93.7436 43.0945C93.8563 43.1782 93.9817 43.2382 94.1199 43.2745C94.2617 43.3109 94.4017 43.3291 94.5399 43.3291H94.9217ZM91.8781 37.7982L92.5763 37.0891L93.2963 37.8091L92.5872 38.5182L91.8781 37.7982ZM98.2637 42.9582C98.431 42.8964 98.591 42.8182 98.7437 42.7236C98.9001 42.6255 99.0347 42.5109 99.1474 42.38C99.2638 42.2491 99.3565 42.1 99.4256 41.9327C99.4947 41.7655 99.5292 41.58 99.5292 41.3764C99.5292 41.1655 99.491 40.9727 99.4147 40.7982C99.3419 40.6236 99.2456 40.4745 99.1256 40.3509C99.0056 40.2273 98.8692 40.1327 98.7165 40.0673C98.5674 39.9982 98.4165 39.9636 98.2637 39.9636C98.0019 39.9636 97.7819 40.0036 97.6038 40.0836C97.4256 40.16 97.2801 40.2618 97.1674 40.3891C97.0547 40.5127 96.9728 40.6545 96.9219 40.8145C96.8747 40.9745 96.851 41.1345 96.851 41.2945C96.851 41.5309 96.8983 41.7418 96.9928 41.9273C97.091 42.1091 97.2437 42.2836 97.451 42.4509C97.5638 42.5418 97.6874 42.6291 97.8219 42.7127C97.9601 42.7927 98.1074 42.8745 98.2637 42.9582ZM99.5401 38.3818C99.831 38.6909 100.102 38.9782 100.353 39.2436C100.604 39.5091 100.833 39.76 101.04 39.9964C101.247 40.2291 101.431 40.4491 101.591 40.6564C101.755 40.86 101.895 41.0545 102.011 41.24C102.127 41.4291 102.222 41.6127 102.295 41.7909C102.367 41.9691 102.415 42.1455 102.436 42.32C102.444 42.3855 102.447 42.4527 102.447 42.5218C102.447 42.6309 102.433 42.76 102.404 42.9091C102.375 43.0545 102.309 43.2236 102.207 43.4164C102.127 43.5691 102.022 43.7055 101.891 43.8255C101.76 43.9418 101.613 44.04 101.449 44.12C101.289 44.2 101.116 44.26 100.931 44.3C100.746 44.3436 100.56 44.3655 100.375 44.3655C100.182 44.3655 99.9928 44.3455 99.8074 44.3055C99.6256 44.2691 99.4456 44.2182 99.2674 44.1527C99.0892 44.0909 98.9128 44.02 98.7383 43.94C98.5638 43.8564 98.3892 43.7709 98.2147 43.6836C97.8692 43.7891 97.4819 43.8691 97.0528 43.9236C96.6274 43.9745 96.1565 44 95.6401 44H94.7347V43.3291H95.6401C96.2874 43.3291 96.8565 43.2855 97.3474 43.1982C97.2892 43.1618 97.2347 43.1255 97.1838 43.0891C97.1328 43.0527 97.0838 43.0145 97.0365 42.9745C96.7565 42.7564 96.5438 42.5109 96.3983 42.2382C96.2528 41.9618 96.1801 41.6473 96.1801 41.2945C96.1801 40.9964 96.231 40.7236 96.3328 40.4764C96.4383 40.2291 96.5838 40.0182 96.7692 39.8436C96.9547 39.6691 97.1747 39.5345 97.4292 39.44C97.6838 39.3418 97.9619 39.2927 98.2637 39.2927C98.5365 39.2927 98.791 39.3509 99.0274 39.4673C99.2637 39.5836 99.4674 39.74 99.6383 39.9364C99.8128 40.1291 99.9492 40.3509 100.047 40.6018C100.149 40.8527 100.2 41.1109 100.2 41.3764C100.2 41.8091 100.1 42.1891 99.9001 42.5164C99.7001 42.84 99.4128 43.1109 99.0383 43.3291C99.2347 43.4345 99.4474 43.5218 99.6765 43.5909C99.9056 43.66 100.14 43.6945 100.38 43.6945C100.536 43.6945 100.68 43.6782 100.811 43.6455C100.946 43.6127 101.066 43.5691 101.171 43.5145C101.276 43.46 101.366 43.3982 101.438 43.3291C101.515 43.2564 101.573 43.1818 101.613 43.1055C101.678 42.9855 101.724 42.8673 101.749 42.7509C101.764 42.6782 101.771 42.6055 101.771 42.5327C101.771 42.4891 101.766 42.4273 101.755 42.3473C101.747 42.2636 101.716 42.1564 101.662 42.0255C101.611 41.8909 101.536 41.7473 101.438 41.5945C101.224 41.2527 100.915 40.86 100.511 40.4164C100.107 39.9691 99.6219 39.4455 99.0547 38.8455L99.5401 38.3818ZM104.773 44H104.091V36.2164H104.773V44ZM104.5 47.0164V46.3509H105.258C106.113 46.3509 106.738 46.1273 107.135 45.68C107.498 45.2655 107.68 44.6455 107.68 43.82V40.3182H108.351V43.82C108.351 44.8745 108.089 45.6709 107.565 46.2091C107.045 46.7473 106.276 47.0164 105.258 47.0164H104.5Z" fill="black"/>
</svg>
