<svg width="109" height="50" viewBox="0 0 109 50" fill="none" xmlns="http://www.w3.org/2000/svg">
<path d="M84.1268 22.8818C84.6602 22.8515 85.1481 22.8152 85.5905 22.7727C86.0329 22.7242 86.4178 22.6273 86.745 22.4818C87.0784 22.3364 87.3511 22.1212 87.5632 21.8364C87.7753 21.5515 87.9178 21.1515 87.9905 20.6364C87.7359 20.6788 87.4329 20.7212 87.0814 20.7636C86.7299 20.8 86.3723 20.8182 86.0087 20.8182C85.439 20.8182 84.9208 20.7576 84.4541 20.6364C83.9875 20.5091 83.5875 20.3152 83.2541 20.0545C82.9208 19.7939 82.6632 19.4636 82.4814 19.0636C82.2996 18.6636 82.2087 18.1879 82.2087 17.6364C82.2087 17.1576 82.2875 16.703 82.445 16.2727C82.6087 15.8364 82.8359 15.4576 83.1268 15.1364C83.4178 14.8091 83.7693 14.5545 84.1814 14.3727C84.5935 14.1848 85.0511 14.097 85.5541 14.1091C86.0693 14.1152 86.5147 14.203 86.8905 14.3727C87.2662 14.5424 87.5875 14.7727 87.8541 15.0636C88.1208 15.3485 88.339 15.6818 88.5087 16.0636C88.6784 16.4455 88.8087 16.8515 88.8996 17.2818C88.9965 17.7121 89.0632 18.1576 89.0996 18.6182C89.1359 19.0727 89.1541 19.5152 89.1541 19.9455C89.1541 20.7394 89.0329 21.397 88.7905 21.9182C88.5541 22.4394 88.2147 22.8545 87.7723 23.1636C87.3359 23.4727 86.8087 23.6909 86.1905 23.8182C85.5723 23.9394 84.8844 24 84.1268 24H80.3905C79.4693 24 78.6147 23.9939 77.8268 23.9818C77.045 23.9636 76.3329 23.9121 75.6905 23.8273C75.0481 23.7364 74.4784 23.597 73.9814 23.4091C73.4905 23.2212 73.0753 22.9515 72.7359 22.6C72.4935 22.3455 72.3117 22.0515 72.1905 21.7182C72.0753 21.3788 72.0178 21 72.0178 20.5818C72.0178 20.2848 72.045 19.9667 72.0996 19.6273C72.1541 19.2818 72.2117 18.9606 72.2723 18.6636C72.339 18.3606 72.3996 18.1061 72.4541 17.9C72.5087 17.6939 72.539 17.5818 72.545 17.5636L73.6178 17.8727C73.6178 17.8788 73.6056 17.9242 73.5814 18.0091C73.5571 18.0939 73.5268 18.2091 73.4905 18.3545C73.4541 18.5 73.4147 18.6667 73.3723 18.8545C73.3359 19.0364 73.2996 19.2273 73.2632 19.4273C73.2268 19.6273 73.1965 19.8273 73.1723 20.0273C73.1481 20.2273 73.1359 20.4121 73.1359 20.5818C73.1359 21.1576 73.3087 21.603 73.6541 21.9182C73.9996 22.2273 74.4905 22.4545 75.1268 22.6C75.7632 22.7394 76.5299 22.8212 77.4268 22.8455C78.3299 22.8697 79.3359 22.8818 80.445 22.8818H84.1268ZM86.0087 19.7C86.1965 19.7 86.3844 19.6939 86.5723 19.6818C86.7662 19.6697 86.9511 19.6545 87.1268 19.6364C87.3026 19.6121 87.4693 19.5879 87.6268 19.5636C87.7844 19.5394 87.9208 19.5182 88.0359 19.5C88.0299 19.2333 88.0147 18.9455 87.9905 18.6364C87.9662 18.3212 87.9238 18.0061 87.8632 17.6909C87.8026 17.3697 87.7147 17.0636 87.5996 16.7727C87.4905 16.4758 87.345 16.2121 87.1632 15.9818C86.9814 15.7515 86.7571 15.5697 86.4905 15.4364C86.2299 15.297 85.9178 15.2273 85.5541 15.2273C85.1723 15.2273 84.839 15.297 84.5541 15.4364C84.2753 15.5758 84.045 15.7576 83.8632 15.9818C83.6814 16.2061 83.545 16.4636 83.4541 16.7545C83.3693 17.0455 83.3268 17.3394 83.3268 17.6364C83.3268 18.0485 83.3935 18.3879 83.5268 18.6545C83.6662 18.9152 83.8571 19.1242 84.0996 19.2818C84.342 19.4333 84.6268 19.5424 84.9541 19.6091C85.2814 19.6697 85.6329 19.7 86.0087 19.7ZM84.2359 10.6364L85.3996 9.45455L86.5996 10.6545L85.4178 11.8364L84.2359 10.6364ZM96.9845 24H96.5663C96.1906 24 95.833 23.9485 95.4936 23.8455C95.1603 23.7424 94.8572 23.5939 94.5845 23.4V23.7C94.5845 25.4576 94.1482 26.7848 93.2754 27.6818C92.4088 28.5788 91.1269 29.0273 89.43 29.0273H88.1663V27.9182H89.43C90.8542 27.9182 91.8966 27.5455 92.5572 26.8C93.1633 26.1091 93.4663 25.0758 93.4663 23.7V21.1909V17.8636H94.5845V21.1182C94.5845 21.4455 94.6451 21.7212 94.7663 21.9455C94.8875 22.1697 95.0421 22.3515 95.23 22.4909C95.4239 22.6303 95.636 22.7303 95.8663 22.7909C96.1027 22.8515 96.336 22.8818 96.5663 22.8818H96.9845V24ZM100.45 16.2455C100.637 16.2455 100.877 16.2818 101.168 16.3545C101.465 16.4212 101.795 16.5121 102.159 16.6273C102.522 16.7424 102.907 16.8758 103.313 17.0273C103.719 17.1727 104.125 17.3273 104.531 17.4909C104.937 17.6485 105.331 17.8061 105.713 17.9636C106.095 18.1212 106.443 18.2667 106.759 18.4C107.08 18.5333 107.353 18.6485 107.577 18.7455C107.807 18.8364 107.971 18.9 108.068 18.9364L108.222 19.9455C107.622 20.3818 107.065 20.7848 106.55 21.1545C106.034 21.5242 105.519 21.8606 105.004 22.1636C104.489 22.4606 103.956 22.7242 103.404 22.9545C102.853 23.1848 102.24 23.3788 101.568 23.5364C100.895 23.6879 100.143 23.803 99.3131 23.8818C98.4828 23.9606 97.5344 24 96.4677 24V22.8818C97.3768 22.8879 98.1889 22.8636 98.904 22.8091C99.6192 22.7485 100.271 22.6606 100.859 22.5455C101.453 22.4242 101.998 22.2727 102.495 22.0909C102.998 21.9091 103.489 21.6939 103.968 21.4455C104.446 21.197 104.928 20.9182 105.413 20.6091C105.904 20.2939 106.431 19.9455 106.995 19.5636C106.577 19.4061 106.143 19.2424 105.695 19.0727C105.253 18.903 104.813 18.7364 104.377 18.5727C103.94 18.4091 103.516 18.2545 103.104 18.1091C102.692 17.9636 102.313 17.8364 101.968 17.7273C101.622 17.6121 101.316 17.5242 101.05 17.4636C100.789 17.397 100.586 17.3636 100.44 17.3636C100.059 17.3636 99.7131 17.5152 99.404 17.8182C99.101 18.1212 98.8798 18.5424 98.7404 19.0818L97.6586 18.8C97.7495 18.4485 97.8768 18.1182 98.0404 17.8091C98.2101 17.5 98.4131 17.2303 98.6495 17C98.8859 16.7697 99.1525 16.5879 99.4495 16.4545C99.7525 16.3152 100.086 16.2455 100.45 16.2455Z" fill="black"/>
<path d="M9.6896 39.3127V43.2727C9.6896 44.0982 9.49869 44.7309 9.11688 45.1709C8.99688 45.3091 8.85869 45.4291 8.70233 45.5309C8.5496 45.6364 8.37869 45.7236 8.1896 45.7927C7.80051 45.9382 7.32778 46.0109 6.77142 46.0109H5.4896C4.96597 46.0109 4.4896 45.8945 4.06051 45.6618C3.63142 45.4327 3.28233 45.1055 3.01324 44.68C2.82778 44.3855 2.69142 44.0545 2.60415 43.6873C2.51688 43.32 2.48233 42.9273 2.50051 42.5091C2.51869 42.0582 2.59688 41.6 2.73506 41.1345C2.87687 40.6691 3.07506 40.1709 3.3296 39.64L3.93506 39.9291C3.71688 40.3836 3.54415 40.82 3.41688 41.2382C3.29324 41.6527 3.21687 42.0455 3.18778 42.4164C3.15869 42.7873 3.17506 43.1327 3.23687 43.4527C3.30233 43.7764 3.41688 44.0673 3.58051 44.3255C3.78778 44.6491 4.05506 44.8982 4.38233 45.0727C4.71324 45.2509 5.08233 45.34 5.4896 45.34H6.77142C7.64778 45.34 8.26051 45.1382 8.6096 44.7345C8.88233 44.4182 9.01869 43.9309 9.01869 43.2727V39.3127H9.6896ZM5.7896 38.8818L6.48778 38.1727L7.20778 38.8927L6.49869 39.6018L5.7896 38.8818ZM13.2512 43C12.8184 43 12.4712 42.9491 12.2093 42.8473C11.9512 42.7455 11.753 42.5945 11.6148 42.3945C11.4766 42.1945 11.3857 41.9491 11.3421 41.6582C11.2984 41.3636 11.2766 41.0255 11.2766 40.6436V35.2164H11.9584V40.6436C11.9584 40.9818 11.9693 41.26 11.9912 41.4782C12.013 41.6964 12.0675 41.8691 12.1548 41.9964C12.2421 42.12 12.3712 42.2073 12.5421 42.2582C12.7166 42.3055 12.953 42.3291 13.2512 42.3291H13.3275V43H13.2512ZM22.7697 43C22.5988 43 22.4315 42.9873 22.2679 42.9618C22.1079 42.9327 21.957 42.8891 21.8152 42.8309C21.6734 42.7727 21.5443 42.6964 21.4279 42.6018C21.3115 42.5073 21.2152 42.3945 21.1388 42.2636C21.0988 42.3218 21.057 42.3745 21.0134 42.4218C20.9697 42.4655 20.9279 42.5055 20.8879 42.5418C20.7206 42.6909 20.5352 42.8055 20.3315 42.8855C20.1279 42.9618 19.9079 43 19.6715 43C19.4825 43 19.3115 42.9855 19.1588 42.9564C19.0097 42.9236 18.8734 42.8782 18.7497 42.82C18.6297 42.7582 18.517 42.6818 18.4115 42.5909C18.3097 42.4964 18.2134 42.3873 18.1225 42.2636C17.9479 42.5 17.7334 42.6818 17.4788 42.8091C17.2279 42.9364 16.9515 43 16.6497 43C16.3225 43 16.0461 42.9545 15.8206 42.8636C15.5988 42.7727 15.3988 42.6382 15.2206 42.46C15.1915 42.4309 15.1643 42.4 15.1388 42.3673C15.1134 42.3345 15.0879 42.3 15.0625 42.2636C15.0225 42.3218 14.9806 42.3745 14.937 42.4218C14.8934 42.4655 14.8515 42.5055 14.8115 42.5418C14.6443 42.6909 14.4534 42.8055 14.2388 42.8855C14.0279 42.9618 13.8043 43 13.5679 43H13.0988V42.3291H13.6334C13.7679 42.3291 13.9025 42.3073 14.037 42.2636C14.1752 42.22 14.3006 42.1509 14.4134 42.0564C14.5261 41.9618 14.617 41.8382 14.6861 41.6855C14.7588 41.5291 14.7952 41.3382 14.7952 41.1127V39.3182H15.4661V41.1127C15.4661 41.5127 15.5588 41.8145 15.7443 42.0182C15.9334 42.2218 16.2443 42.3255 16.677 42.3291C16.8115 42.3291 16.9443 42.3073 17.0752 42.2636C17.2097 42.22 17.3297 42.1509 17.4352 42.0564C17.5406 41.9618 17.6261 41.8382 17.6915 41.6855C17.757 41.5291 17.7897 41.3382 17.7897 41.1127V39.3182H18.4606V41.1127C18.4606 41.5127 18.5552 41.8145 18.7443 42.0182C18.9334 42.2218 19.2443 42.3255 19.677 42.3291C19.8115 42.3291 19.9461 42.3073 20.0806 42.2636C20.2152 42.22 20.3352 42.1509 20.4406 42.0564C20.5497 41.9618 20.637 41.8382 20.7025 41.6855C20.7715 41.5291 20.8061 41.3382 20.8061 41.1127V39.3182H21.477V41.1127C21.477 41.9127 21.9097 42.3182 22.7752 42.3291H23.0643V43H22.7697ZM26.4502 38.6145C26.4866 38.7709 26.5266 38.9436 26.5702 39.1327C26.6139 39.3218 26.652 39.5182 26.6848 39.7218C26.7211 39.9218 26.752 40.1255 26.7775 40.3327C26.803 40.54 26.8193 40.7382 26.8266 40.9273C26.8302 41.1855 26.792 41.44 26.712 41.6909C26.6357 41.9382 26.523 42.16 26.3739 42.3564C26.2248 42.5491 26.0411 42.7055 25.823 42.8255C25.6084 42.9418 25.3666 43 25.0975 43H22.8339V42.3291H25.0975C25.272 42.3182 25.4248 42.2727 25.5557 42.1927C25.6902 42.1127 25.8011 42.0091 25.8884 41.8818C25.9793 41.7509 26.0466 41.6055 26.0902 41.4455C26.1375 41.2818 26.1593 41.1145 26.1557 40.9436C26.152 40.7691 26.1375 40.5873 26.112 40.3982C26.0902 40.2091 26.0611 40.0218 26.0248 39.8364C25.992 39.6509 25.9557 39.4709 25.9157 39.2964C25.8757 39.1218 25.8375 38.96 25.8011 38.8109L26.4502 38.6145ZM26.2157 45.7709L25.5393 45.0891L26.2048 44.4127L26.892 45.0945L26.2157 45.7709ZM23.9902 45.76L23.3139 45.0782L23.9793 44.4018L24.6666 45.0836L23.9902 45.76ZM32.203 42.3291V40.9709C32.1958 40.6836 32.1685 40.4182 32.1212 40.1745C32.0776 39.9273 32.0012 39.7145 31.8921 39.5364C31.783 39.3545 31.6376 39.2145 31.4558 39.1164C31.2739 39.0145 31.0412 38.9636 30.7576 38.9636C30.4776 38.9636 30.2448 39.0145 30.0594 39.1164C29.8739 39.2182 29.7248 39.36 29.6121 39.5418C29.503 39.72 29.4248 39.9327 29.3776 40.18C29.3339 40.4236 29.3121 40.6873 29.3121 40.9709C29.3121 41.2218 29.3558 41.4345 29.443 41.6091C29.5303 41.78 29.6521 41.92 29.8085 42.0291C29.9648 42.1345 30.1467 42.2109 30.3539 42.2582C30.5648 42.3055 30.7939 42.3291 31.0412 42.3291H32.203ZM30.7576 38.2927C31.1321 38.3073 31.4539 38.3818 31.723 38.5164C31.9921 38.6509 32.2103 38.8364 32.3776 39.0727C32.5485 39.3055 32.6739 39.5836 32.7539 39.9073C32.8339 40.2273 32.8739 40.5818 32.8739 40.9709V42.3291H33.8012V43H32.8739C32.8848 43.52 32.8048 43.9691 32.6339 44.3473C32.463 44.7255 32.2194 45.0382 31.903 45.2855C31.5867 45.5327 31.2085 45.7145 30.7685 45.8309C30.3321 45.9509 29.8539 46.0109 29.3339 46.0109H29.023V45.34H29.3339C29.7739 45.3291 30.1685 45.2855 30.5176 45.2091C30.8703 45.1327 31.1703 45.0055 31.4176 44.8273C31.6648 44.6491 31.8558 44.4109 31.9903 44.1127C32.1248 43.8182 32.1958 43.4473 32.203 43H31.0412C30.703 43.0073 30.3885 42.9691 30.0976 42.8855C29.8067 42.8018 29.5521 42.6764 29.3339 42.5091C29.1194 42.3382 28.9503 42.1255 28.8267 41.8709C28.703 41.6127 28.6412 41.3127 28.6412 40.9709C28.6412 40.5855 28.6794 40.2327 28.7558 39.9127C28.8358 39.5891 28.9594 39.3109 29.1267 39.0782C29.2976 38.8418 29.5158 38.6564 29.7812 38.5218C30.0503 38.3836 30.3758 38.3073 30.7576 38.2927ZM36.3492 38.6145C36.3856 38.7709 36.4256 38.9436 36.4692 39.1327C36.5129 39.3218 36.5511 39.5182 36.5838 39.7218C36.6202 39.9218 36.6511 40.1255 36.6765 40.3327C36.702 40.54 36.7183 40.7382 36.7256 40.9273C36.7292 41.1855 36.6911 41.44 36.6111 41.6909C36.5347 41.9382 36.422 42.16 36.2729 42.3564C36.1238 42.5491 35.9402 42.7055 35.722 42.8255C35.5074 42.9418 35.2656 43 34.9965 43H33.5783V42.3291H34.9965C35.1711 42.3182 35.3238 42.2727 35.4547 42.1927C35.5892 42.1127 35.7002 42.0091 35.7874 41.8818C35.8783 41.7509 35.9456 41.6055 35.9892 41.4455C36.0365 41.2818 36.0583 41.1145 36.0547 40.9436C36.0511 40.7691 36.0365 40.5873 36.0111 40.3982C35.9892 40.2091 35.9602 40.0218 35.9238 39.8364C35.8911 39.6509 35.8547 39.4709 35.8147 39.2964C35.7747 39.1218 35.7365 38.96 35.7002 38.8109L36.3492 38.6145ZM34.9147 36.3073L35.6129 35.5982L36.3329 36.3182L35.6238 37.0273L34.9147 36.3073ZM48.188 43H48.0789C47.7917 43 47.5226 42.9655 47.2717 42.8964C47.0244 42.8273 46.7917 42.7255 46.5735 42.5909C46.3226 42.4309 46.1062 42.2309 45.9244 41.9909C45.8444 41.8855 45.7735 41.7709 45.7117 41.6473C45.6499 41.5236 45.5953 41.3927 45.548 41.2545C45.4353 41.4836 45.2935 41.6927 45.1226 41.8818C44.9553 42.0673 44.748 42.2073 44.5008 42.3018C44.1844 42.4291 43.868 42.4873 43.5517 42.4764C43.2389 42.4655 42.9535 42.3982 42.6953 42.2745C42.4371 42.1473 42.2153 41.9691 42.0299 41.74C41.848 41.5109 41.7299 41.2418 41.6753 40.9327C41.6135 40.5582 41.6462 40.2018 41.7735 39.8636C41.9044 39.5255 42.1062 39.2218 42.3789 38.9527C42.6408 38.6909 42.9644 38.46 43.3499 38.26C43.7353 38.06 44.1735 37.8945 44.6644 37.7636L44.5171 37.0327L45.1826 36.8473C45.288 37.2982 45.3789 37.6927 45.4553 38.0309C45.5353 38.3691 45.6062 38.6709 45.668 38.9364C45.7117 39.1218 45.7517 39.2982 45.788 39.4655C45.8244 39.6291 45.8608 39.7909 45.8971 39.9509C45.9371 40.1073 45.9771 40.2636 46.0171 40.42C46.0571 40.5764 46.1008 40.7418 46.148 40.9164C46.2062 41.1309 46.2826 41.3145 46.3771 41.4673C46.4717 41.6164 46.5771 41.7436 46.6935 41.8491C46.8135 41.9545 46.9371 42.04 47.0644 42.1055C47.1917 42.1673 47.3171 42.2145 47.4408 42.2473C47.568 42.28 47.6862 42.3018 47.7953 42.3127C47.9044 42.3236 47.9989 42.3291 48.0789 42.3291H48.188V43ZM44.8553 38.4018C44.4262 38.5182 44.0444 38.6618 43.7099 38.8327C43.3789 39 43.1026 39.1891 42.8808 39.4C42.6626 39.6073 42.5062 39.8309 42.4117 40.0709C42.3171 40.3109 42.2917 40.5582 42.3353 40.8127C42.3717 41.02 42.4589 41.1982 42.5971 41.3473C42.7353 41.4964 42.8971 41.6109 43.0826 41.6909C43.268 41.7673 43.4608 41.8073 43.6608 41.8109C43.8644 41.8145 44.0462 41.7782 44.2062 41.7018C44.4135 41.6 44.5808 41.4782 44.708 41.3364C44.8353 41.1909 44.9335 41.04 45.0026 40.8836C45.0717 40.7273 45.1171 40.5727 45.1389 40.42C45.1608 40.2636 45.1699 40.1236 45.1662 40C45.1662 39.8764 45.1589 39.7764 45.1444 39.7C45.1335 39.62 45.128 39.5782 45.128 39.5745C45.088 39.4 45.0535 39.2527 45.0244 39.1327C44.9989 39.0127 44.9753 38.9091 44.9535 38.8218C44.9353 38.7345 44.9171 38.6582 44.8989 38.5927C44.8844 38.5273 44.8699 38.4636 44.8553 38.4018ZM51.932 42.5855C52.0447 42.5855 52.1574 42.5564 52.2702 42.4982C52.3865 42.44 52.4884 42.3455 52.5756 42.2145C52.6665 42.0836 52.7393 41.9127 52.7938 41.7018C52.852 41.4873 52.8811 41.2273 52.8811 40.9218C52.8811 40.7036 52.8447 40.4836 52.772 40.2618C52.7029 40.0364 52.6047 39.8364 52.4774 39.6618C52.4411 39.6109 52.3938 39.5545 52.3356 39.4927C52.2811 39.4309 52.2156 39.3727 52.1393 39.3182C52.0629 39.2636 51.9774 39.2182 51.8829 39.1818C51.7884 39.1418 51.6865 39.1218 51.5774 39.1218C51.3411 39.1218 51.1429 39.1655 50.9829 39.2527C50.8229 39.3364 50.6865 39.4582 50.5738 39.6182C50.4647 39.7782 50.3702 39.9745 50.2902 40.2073C50.2102 40.4364 50.1302 40.6964 50.0502 40.9873C50.0138 41.1218 49.9774 41.2527 49.9411 41.38C49.9047 41.5073 49.8647 41.6309 49.8211 41.7509C50.0538 41.8673 50.2702 41.9782 50.4702 42.0836C50.6702 42.1891 50.8556 42.28 51.0265 42.3564C51.1974 42.4327 51.3574 42.4927 51.5065 42.5364C51.6556 42.5764 51.7974 42.5927 51.932 42.5855ZM51.5774 38.4509C51.8538 38.4509 52.1138 38.5218 52.3574 38.6636C52.6047 38.8018 52.8247 39.0036 53.0174 39.2691C53.1884 39.5018 53.3193 39.7618 53.4102 40.0491C53.5047 40.3364 53.552 40.6273 53.552 40.9218C53.552 41.1109 53.5393 41.3 53.5138 41.4891C53.4884 41.6745 53.4484 41.8545 53.3938 42.0291C53.3429 42.2036 53.2738 42.3655 53.1865 42.5145C53.1029 42.6636 53.0011 42.7927 52.8811 42.9018C52.7611 43.0109 52.6229 43.0964 52.4665 43.1582C52.3102 43.2236 52.132 43.2564 51.932 43.2564C51.7502 43.2564 51.572 43.2327 51.3974 43.1855C51.2229 43.1418 51.0393 43.08 50.8465 43C50.6574 42.92 50.4556 42.8255 50.2411 42.7164C50.0265 42.6073 49.7902 42.4873 49.532 42.3564C49.252 42.7855 48.8629 43 48.3647 43H47.8793V42.3291H48.3593H48.3647C48.5065 42.3291 48.6265 42.3 48.7247 42.2418C48.8265 42.18 48.9174 42.0818 48.9974 41.9473C49.0847 41.8055 49.1593 41.6364 49.2211 41.44C49.2829 41.24 49.3447 41.0309 49.4065 40.8127C49.4793 40.5436 49.5574 40.2764 49.6411 40.0109C49.7284 39.7455 49.8484 39.5 50.0011 39.2745C50.3756 38.7255 50.9011 38.4509 51.5774 38.4509ZM57.1262 43C56.6934 43 56.3462 42.9491 56.0843 42.8473C55.8262 42.7455 55.628 42.5945 55.4898 42.3945C55.3516 42.1945 55.2607 41.9491 55.2171 41.6582C55.1734 41.3636 55.1516 41.0255 55.1516 40.6436V35.2164H55.8334V40.6436C55.8334 40.9818 55.8443 41.26 55.8662 41.4782C55.888 41.6964 55.9425 41.8691 56.0298 41.9964C56.1171 42.12 56.2462 42.2073 56.4171 42.2582C56.5916 42.3055 56.828 42.3291 57.1262 42.3291H57.2025V43H57.1262ZM59.8102 38.6145C59.8465 38.7709 59.8865 38.9436 59.9302 39.1327C59.9738 39.3218 60.012 39.5182 60.0447 39.7218C60.0811 39.9218 60.112 40.1255 60.1375 40.3327C60.1629 40.54 60.1793 40.7382 60.1865 40.9273C60.1902 41.1855 60.152 41.44 60.072 41.6909C59.9956 41.9382 59.8829 42.16 59.7338 42.3564C59.5847 42.5491 59.4011 42.7055 59.1829 42.8255C58.9684 42.9418 58.7265 43 58.4575 43H57.0393V42.3291H58.4575C58.632 42.3182 58.7847 42.2727 58.9156 42.1927C59.0502 42.1127 59.1611 42.0091 59.2484 41.8818C59.3393 41.7509 59.4065 41.6055 59.4502 41.4455C59.4975 41.2818 59.5193 41.1145 59.5156 40.9436C59.512 40.7691 59.4975 40.5873 59.472 40.3982C59.4502 40.2091 59.4211 40.0218 59.3847 39.8364C59.352 39.6509 59.3156 39.4709 59.2756 39.2964C59.2356 39.1218 59.1975 38.96 59.1611 38.8109L59.8102 38.6145ZM58.3756 36.3073L59.0738 35.5982L59.7938 36.3182L59.0847 37.0273L58.3756 36.3073ZM65.0759 43H64.825C64.5995 43 64.385 42.9691 64.1813 42.9073C63.9813 42.8455 63.7995 42.7564 63.6359 42.64V42.82C63.6359 43.8745 63.374 44.6709 62.8504 45.2091C62.3304 45.7473 61.5613 46.0164 60.5431 46.0164H59.785V45.3509H60.5431C61.3977 45.3509 62.0231 45.1273 62.4195 44.68C62.7831 44.2655 62.965 43.6455 62.965 42.82V41.3145V39.3182H63.6359V41.2709C63.6359 41.4673 63.6722 41.6327 63.745 41.7673C63.8177 41.9018 63.9104 42.0109 64.0231 42.0945C64.1395 42.1782 64.2668 42.2382 64.405 42.2745C64.5468 42.3109 64.6868 42.3291 64.825 42.3291H65.0759V43ZM67.5094 38.6145C67.5458 38.7709 67.5858 38.9436 67.6294 39.1327C67.673 39.3218 67.7112 39.5182 67.7439 39.7218C67.7803 39.9218 67.8112 40.1255 67.8367 40.3327C67.8621 40.54 67.8785 40.7382 67.8858 40.9273C67.8894 41.1855 67.8512 41.44 67.7712 41.6909C67.6949 41.9382 67.5821 42.16 67.433 42.3564C67.2839 42.5491 67.1003 42.7055 66.8821 42.8255C66.6676 42.9418 66.4258 43 66.1567 43H64.7385V42.3291H66.1567C66.3312 42.3182 66.4839 42.2727 66.6149 42.1927C66.7494 42.1127 66.8603 42.0091 66.9476 41.8818C67.0385 41.7509 67.1058 41.6055 67.1494 41.4455C67.1967 41.2818 67.2185 41.1145 67.2149 40.9436C67.2112 40.7691 67.1967 40.5873 67.1712 40.3982C67.1494 40.2091 67.1203 40.0218 67.0839 39.8364C67.0512 39.6509 67.0149 39.4709 66.9749 39.2964C66.9349 39.1218 66.8967 38.96 66.8603 38.8109L67.5094 38.6145ZM66.0639 44.98L66.6858 44.3527L67.3294 44.9909L66.6967 45.6236L66.0639 44.98ZM79.8339 38.2491C80.012 38.2491 80.1902 38.2618 80.3684 38.2873C80.5502 38.3127 80.7339 38.3527 80.9193 38.4073L80.7339 39.0509C80.4284 38.9636 80.1302 38.92 79.8393 38.92C79.4866 38.92 79.1539 38.98 78.8411 39.1C78.532 39.22 78.2575 39.3982 78.0175 39.6345C77.7339 39.9109 77.5339 40.2364 77.4175 40.6109C77.3048 40.9855 77.2848 41.3709 77.3575 41.7673C77.4157 41.7855 77.5084 41.8127 77.6357 41.8491C77.7666 41.8818 77.9157 41.92 78.083 41.9636C78.2502 42.0073 78.4266 42.0545 78.612 42.1055C78.8011 42.1564 78.983 42.2055 79.1575 42.2527C79.3357 42.3 79.4975 42.3436 79.643 42.3836C79.7884 42.4236 79.9048 42.4545 79.992 42.4764C80.1375 42.5164 80.252 42.5636 80.3357 42.6182C80.423 42.6727 80.4866 42.7327 80.5266 42.7982C80.5666 42.8636 80.592 42.9345 80.603 43.0109C80.6139 43.0873 80.6193 43.1673 80.6193 43.2509C80.6193 43.3745 80.6102 43.5164 80.592 43.6764C80.5739 43.8364 80.543 44 80.4993 44.1673C80.4593 44.3382 80.403 44.5036 80.3302 44.6636C80.2611 44.8273 80.1739 44.9727 80.0684 45.1C79.923 45.2782 79.763 45.4255 79.5884 45.5418C79.4175 45.6582 79.232 45.7509 79.032 45.82C78.8357 45.8891 78.6266 45.9364 78.4048 45.9618C78.1866 45.9909 77.9557 46.0055 77.712 46.0055H76.3648C76.1066 46.0091 75.8557 45.98 75.612 45.9182C75.3684 45.86 75.1375 45.7709 74.9193 45.6509C74.7011 45.5345 74.4993 45.3909 74.3139 45.22C74.132 45.0527 73.972 44.86 73.8339 44.6418C73.6339 44.3218 73.492 43.98 73.4084 43.6164C73.3284 43.2527 73.2975 42.8782 73.3157 42.4927C73.3484 41.5945 73.6175 40.6218 74.123 39.5745L74.7284 39.8636C74.5102 40.3145 74.3393 40.7509 74.2157 41.1727C74.0957 41.5909 74.0211 41.9873 73.992 42.3618C73.9666 42.7364 73.9866 43.0855 74.052 43.4091C74.1211 43.7327 74.2375 44.0255 74.4011 44.2873C74.612 44.6218 74.8866 44.88 75.2248 45.0618C75.5666 45.2436 75.9466 45.3345 76.3648 45.3345H77.712C78.1593 45.3345 78.5266 45.2818 78.8139 45.1764C79.1011 45.0709 79.3375 44.9164 79.523 44.7127C79.6139 44.6145 79.6884 44.5 79.7466 44.3691C79.8084 44.2418 79.8557 44.1073 79.8884 43.9655C79.9248 43.8273 79.9466 43.6873 79.9539 43.5455C79.9648 43.4073 79.9648 43.2782 79.9539 43.1582L76.7957 42.3073L76.7466 42.1218C76.6739 41.8491 76.6375 41.5782 76.6375 41.3091C76.6411 41.0364 76.6775 40.7727 76.7466 40.5182C76.8157 40.2636 76.9175 40.0218 77.052 39.7927C77.1866 39.56 77.352 39.3473 77.5484 39.1545C77.6975 39.0091 77.8593 38.88 78.0339 38.7673C78.212 38.6509 78.3993 38.5545 78.5957 38.4782C78.792 38.4018 78.9939 38.3436 79.2011 38.3036C79.412 38.2636 79.623 38.2455 79.8339 38.2491ZM84.5012 43C84.0684 43 83.7212 42.9491 83.4593 42.8473C83.2012 42.7455 83.003 42.5945 82.8648 42.3945C82.7266 42.1945 82.6357 41.9491 82.5921 41.6582C82.5484 41.3636 82.5266 41.0255 82.5266 40.6436V35.2164H83.2084V40.6436C83.2084 40.9818 83.2193 41.26 83.2412 41.4782C83.263 41.6964 83.3175 41.8691 83.4048 41.9964C83.4921 42.12 83.6212 42.2073 83.7921 42.2582C83.9666 42.3055 84.203 42.3291 84.5012 42.3291H84.5775V43H84.5012ZM90.9543 43C90.6779 43 90.4397 42.9673 90.2397 42.9018C90.0434 42.8327 89.8688 42.7291 89.7161 42.5909C89.6434 42.5291 89.5797 42.46 89.5252 42.3836C89.4634 42.5145 89.3852 42.6345 89.2906 42.7436C89.1997 42.8491 89.0961 42.94 88.9797 43.0164C88.8634 43.0927 88.7397 43.1509 88.6088 43.1909C88.4779 43.2345 88.3434 43.2564 88.2052 43.2564C88.027 43.2564 87.8488 43.2345 87.6706 43.1909C87.4925 43.1473 87.307 43.0855 87.1143 43.0055C86.9215 42.9291 86.7179 42.8364 86.5034 42.7273C86.2888 42.6145 86.0561 42.4909 85.8052 42.3564C85.5179 42.7855 85.127 43 84.6325 43H84.3652V42.3291H84.6325C84.7743 42.3291 84.8943 42.3 84.9925 42.2418C85.0943 42.18 85.187 42.0818 85.2706 41.9473C85.3579 41.8055 85.4306 41.6364 85.4888 41.44C85.5506 41.24 85.6125 41.0309 85.6743 40.8127C85.7106 40.6782 85.747 40.5436 85.7834 40.4091C85.8234 40.2745 85.867 40.1418 85.9143 40.0109C85.9615 39.88 86.0125 39.7527 86.067 39.6291C86.1252 39.5055 86.1925 39.3873 86.2688 39.2745C86.6397 38.7255 87.167 38.4509 87.8506 38.4509C88.1234 38.4509 88.3834 38.5218 88.6306 38.6636C88.8779 38.8018 89.0961 39.0036 89.2852 39.2691C89.4597 39.5018 89.5925 39.7618 89.6834 40.0491C89.7743 40.3364 89.8197 40.6273 89.8197 40.9218C89.8197 41.4927 89.9361 41.8855 90.1688 42.1C90.2561 42.18 90.3597 42.2382 90.4797 42.2745C90.6034 42.3109 90.7615 42.3291 90.9543 42.3291H91.0688V43H90.9543ZM88.2052 42.5855C88.3179 42.5855 88.4306 42.5564 88.5434 42.4982C88.6561 42.44 88.7579 42.3455 88.8488 42.2145C88.9397 42.0836 89.0125 41.9127 89.067 41.7018C89.1215 41.4873 89.1488 41.2273 89.1488 40.9218C89.1488 40.7036 89.1125 40.4836 89.0397 40.2618C88.9706 40.0364 88.8725 39.8364 88.7452 39.6618C88.7088 39.6109 88.6615 39.5545 88.6034 39.4927C88.5488 39.4309 88.4834 39.3727 88.407 39.3182C88.3306 39.2636 88.2452 39.2182 88.1506 39.1818C88.0597 39.1418 87.9597 39.1218 87.8506 39.1218C87.6106 39.1218 87.4106 39.1655 87.2506 39.2527C87.0906 39.3364 86.9543 39.4582 86.8415 39.6182C86.7325 39.7782 86.6379 39.9745 86.5579 40.2073C86.4779 40.4364 86.3997 40.6964 86.3234 40.9873C86.2834 41.1218 86.2452 41.2527 86.2088 41.38C86.1725 41.5073 86.1343 41.6309 86.0943 41.7509C86.327 41.8745 86.5415 41.9891 86.7379 42.0945C86.9379 42.1964 87.1234 42.2855 87.2943 42.3618C87.4688 42.4345 87.6306 42.4909 87.7797 42.5309C87.9325 42.5709 88.0743 42.5891 88.2052 42.5855ZM95.4095 42.3291V43H95.0277C94.784 43 94.5531 42.9636 94.3349 42.8909C94.1168 42.8182 93.9259 42.7145 93.7622 42.58C93.664 42.5 93.5822 42.4164 93.5168 42.3291C93.3313 42.5618 93.0986 42.7309 92.8186 42.8364C92.5386 42.9418 92.1986 42.9964 91.7986 43H90.7731V42.3291H91.7986C92.0131 42.3218 92.204 42.3018 92.3713 42.2691C92.5386 42.2364 92.6804 42.18 92.7968 42.1C92.9131 42.02 93.0022 41.9145 93.064 41.7836C93.1295 41.6491 93.1659 41.4782 93.1731 41.2709V39.3127H93.844V41.2709C93.844 41.4673 93.8804 41.6327 93.9531 41.7673C94.0259 41.9018 94.1186 42.0109 94.2313 42.0945C94.344 42.1782 94.4695 42.2382 94.6077 42.2745C94.7495 42.3109 94.8895 42.3291 95.0277 42.3291H95.4095ZM92.464 36.7982L93.1622 36.0891L93.8822 36.8091L93.1731 37.5182L92.464 36.7982ZM98.7341 41.9582C98.9014 41.8964 99.0614 41.8182 99.2141 41.7236C99.3705 41.6255 99.505 41.5109 99.6178 41.38C99.7341 41.2491 99.8268 41.1 99.8959 40.9327C99.965 40.7655 99.9996 40.58 99.9996 40.3764C99.9996 40.1655 99.9614 39.9727 99.885 39.7982C99.8123 39.6236 99.7159 39.4745 99.5959 39.3509C99.4759 39.2273 99.3396 39.1327 99.1868 39.0673C99.0378 38.9982 98.8868 38.9636 98.7341 38.9636C98.4723 38.9636 98.2523 39.0036 98.0741 39.0836C97.8959 39.16 97.7505 39.2618 97.6378 39.3891C97.525 39.5127 97.4432 39.6545 97.3923 39.8145C97.345 39.9745 97.3214 40.1345 97.3214 40.2945C97.3214 40.5309 97.3687 40.7418 97.4632 40.9273C97.5614 41.1091 97.7141 41.2836 97.9214 41.4509C98.0341 41.5418 98.1578 41.6291 98.2923 41.7127C98.4305 41.7927 98.5778 41.8745 98.7341 41.9582ZM100.01 37.3818C100.301 37.6909 100.572 37.9782 100.823 38.2436C101.074 38.5091 101.303 38.76 101.51 38.9964C101.718 39.2291 101.901 39.4491 102.061 39.6564C102.225 39.86 102.365 40.0545 102.481 40.24C102.598 40.4291 102.692 40.6127 102.765 40.7909C102.838 40.9691 102.885 41.1473 102.907 41.3255C102.929 41.5 102.921 41.6782 102.885 41.86C102.849 42.0382 102.78 42.2236 102.678 42.4164C102.598 42.5691 102.492 42.7055 102.361 42.8255C102.23 42.9418 102.083 43.04 101.92 43.12C101.76 43.2 101.587 43.26 101.401 43.3C101.216 43.3436 101.03 43.3655 100.845 43.3655C100.652 43.3655 100.463 43.3455 100.278 43.3055C100.096 43.2691 99.9159 43.2182 99.7378 43.1527C99.5596 43.0909 99.3832 43.02 99.2087 42.94C99.0341 42.8564 98.8596 42.7709 98.685 42.6836C98.3396 42.7891 97.9523 42.8691 97.5232 42.9236C97.0978 42.9745 96.6268 43 96.1105 43H95.205V42.3291H96.1105C96.7578 42.3291 97.3268 42.2855 97.8178 42.1982C97.7596 42.1618 97.705 42.1255 97.6541 42.0891C97.6032 42.0527 97.5541 42.0145 97.5068 41.9745C97.2268 41.7564 97.0141 41.5109 96.8687 41.2382C96.7232 40.9618 96.6505 40.6473 96.6505 40.2945C96.6505 39.9964 96.7014 39.7236 96.8032 39.4764C96.9087 39.2291 97.0541 39.0182 97.2396 38.8436C97.425 38.6691 97.645 38.5345 97.8996 38.44C98.1541 38.3418 98.4323 38.2927 98.7341 38.2927C99.0068 38.2927 99.2614 38.3509 99.4978 38.4673C99.7341 38.5836 99.9378 38.74 100.109 38.9364C100.283 39.1291 100.42 39.3509 100.518 39.6018C100.62 39.8527 100.67 40.1109 100.67 40.3764C100.67 40.8091 100.57 41.1891 100.37 41.5164C100.17 41.84 99.8832 42.1109 99.5087 42.3291C99.705 42.4345 99.9178 42.5218 100.147 42.5909C100.376 42.66 100.61 42.6945 100.85 42.6945C101.007 42.6945 101.15 42.6782 101.281 42.6455C101.416 42.6127 101.536 42.5691 101.641 42.5145C101.747 42.46 101.836 42.3982 101.909 42.3291C101.985 42.2564 102.043 42.1818 102.083 42.1055C102.149 41.9855 102.194 41.8691 102.22 41.7564C102.245 41.64 102.25 41.5218 102.236 41.4018C102.221 41.2818 102.187 41.1564 102.132 41.0255C102.081 40.8909 102.007 40.7473 101.909 40.5945C101.694 40.2527 101.385 39.86 100.981 39.4164C100.578 38.9691 100.092 38.4455 99.525 37.8455L100.01 37.3818ZM105.22 43H104.538V35.2164H105.22V43ZM104.496 46.0164V45.3509H105.254C106.109 45.3509 106.734 45.1273 107.13 44.68C107.494 44.2655 107.676 43.6455 107.676 42.82V39.3182H108.347V42.82C108.347 43.8745 108.085 44.6709 107.561 45.2091C107.041 45.7473 106.272 46.0164 105.254 46.0164H104.496Z" fill="black"/>
</svg>
