<svg width="109" height="51" xmlns="http://www.w3.org/2000/svg" fill="none">

 <g>
  <title>Layer 1</title>
  <path id="svg_2" fill="black" d="m8.3771,40.3127l0,3.96c0,0.8255 -0.19091,1.4582 -0.57272,1.8982c-0.12,0.1382 -0.25819,0.2582 -0.41455,0.36c-0.15273,0.1055 -0.32364,0.1927 -0.51273,0.2618c-0.38909,0.1455 -0.86182,0.2182 -1.41818,0.2182l-1.28182,0c-0.52363,0 -1,-0.1164 -1.42909,-0.3491c-0.42909,-0.2291 -0.77818,-0.5563 -1.04727,-0.9818c-0.18546,-0.2945 -0.32182,-0.6255 -0.40909,-0.9927c-0.07273,-0.3055 -0.10909,-0.6273 -0.10909,-0.9655c0,-0.0691 0.00182,-0.14 0.00545,-0.2127c0.01818,-0.4509 0.09637,-0.9091 0.23455,-1.3746c0.14181,-0.4654 0.34,-0.9636 0.59454,-1.4945l0.60546,0.2891c-0.21818,0.4545 -0.39091,0.8909 -0.51818,1.3091c-0.12364,0.4145 -0.20001,0.8073 -0.2291,1.1782c-0.00727,0.1127 -0.0109,0.2236 -0.0109,0.3327c0,0.2473 0.02545,0.5073 0.07636,0.78c0.05454,0.2727 0.16364,0.5382 0.32727,0.7964c0.20727,0.3236 0.47455,0.5727 0.80182,0.7472c0.33091,0.1782 0.7,0.2673 1.10727,0.2673l1.28182,0c0.87636,0 1.48909,-0.2018 1.83818,-0.6055c0.27273,-0.3163 0.40909,-0.8036 0.40909,-1.4618l0,-3.96l0.67091,0zm-3.9,-0.4309l0.69818,-0.7091l0.72,0.72l-0.70909,0.7091l-0.70909,-0.72zm7.8032,4.1182c-0.4327,0 -0.78,-0.0509 -1.0418,-0.1527c-0.2582,-0.1018 -0.4564,-0.2528 -0.5946,-0.4528c-0.1381,-0.2 -0.2291,-0.4454 -0.2727,-0.7363c-0.0436,-0.2946 -0.0654,-0.6327 -0.0654,-1.0146l0,-5.4272l0.6818,0l0,5.4272c0,0.3382 0.0109,0.6164 0.0327,0.8346c0.0218,0.2182 0.0764,0.3909 0.1636,0.5182c0.0873,0.1236 0.2164,0.2109 0.3873,0.2618c0.1746,0.0473 0.4109,0.0709 0.7091,0.0709l0.0764,0l0,0.6709l-0.0764,0zm9.555,0c-0.171,0 -0.3382,-0.0127 -0.5019,-0.0382c-0.16,-0.0291 -0.3109,-0.0727 -0.4527,-0.1309c-0.1418,-0.0582 -0.2709,-0.1345 -0.3873,-0.2291c-0.1163,-0.0945 -0.2127,-0.2073 -0.2891,-0.3382c-0.04,0.0582 -0.0818,0.1109 -0.1254,0.1582c-0.0436,0.0437 -0.0855,0.0837 -0.1255,0.12c-0.1672,0.1491 -0.3527,0.2637 -0.5563,0.3437c-0.2037,0.0763 -0.4237,0.1145 -0.66,0.1145c-0.1891,0 -0.36,-0.0145 -0.5128,-0.0436c-0.149,-0.0328 -0.2854,-0.0782 -0.409,-0.1364c-0.12,-0.0618 -0.2328,-0.1382 -0.3382,-0.2291c-0.1018,-0.0945 -0.1982,-0.2036 -0.2891,-0.3273c-0.1746,0.2364 -0.3891,0.4182 -0.6437,0.5455c-0.2509,0.1273 -0.5272,0.1909 -0.829,0.1909c-0.3273,0 -0.6037,-0.0455 -0.8291,-0.1364c-0.2219,-0.0909 -0.4219,-0.2254 -0.6,-0.4036c-0.0291,-0.0291 -0.0564,-0.06 -0.0819,-0.0927c-0.0254,-0.0328 -0.0509,-0.0673 -0.0763,-0.1037c-0.04,0.0582 -0.0818,0.1109 -0.1255,0.1582c-0.0436,0.0437 -0.0854,0.0837 -0.1254,0.12c-0.1673,0.1491 -0.3582,0.2637 -0.5728,0.3437c-0.2109,0.0763 -0.4345,0.1145 -0.6709,0.1145l-0.4691,0l0,-0.6709l0.5346,0c0.1345,0 0.2691,-0.0218 0.4036,-0.0655c0.1382,-0.0436 0.2637,-0.1127 0.3764,-0.2072c0.1127,-0.0946 0.2036,-0.2182 0.2727,-0.3709c0.0727,-0.1564 0.1091,-0.3473 0.1091,-0.5728l0,-1.7945l0.6709,0l0,1.7945c0,0.4 0.0927,0.7018 0.2782,0.9055c0.1891,0.2036 0.5,0.3073 0.9327,0.3109c0.1346,0 0.2673,-0.0218 0.3982,-0.0655c0.1346,-0.0436 0.2546,-0.1127 0.36,-0.2072c0.1055,-0.0946 0.1909,-0.2182 0.2564,-0.3709c0.0654,-0.1564 0.0982,-0.3473 0.0982,-0.5728l0,-1.7945l0.6709,0l0,1.7945c0,0.4 0.0945,0.7018 0.2836,0.9055c0.1891,0.2036 0.5,0.3073 0.9327,0.3109c0.1346,0 0.2691,-0.0218 0.4037,-0.0655c0.1345,-0.0436 0.2545,-0.1127 0.36,-0.2072c0.1091,-0.0946 0.1963,-0.2182 0.2618,-0.3709c0.0691,-0.1564 0.1036,-0.3473 0.1036,-0.5728l0,-1.7945l0.6709,0l0,1.7945c0,0.8 0.4328,1.2055 1.2982,1.2164l0.2891,0l0,0.6709l-0.2945,0zm3.7227,-4.3855c0.0363,0.1564 0.0763,0.3291 0.12,0.5182c0.0436,0.1891 0.0818,0.3855 0.1145,0.5891c0.0364,0.2 0.0673,0.4037 0.0928,0.6109c0.0254,0.2073 0.0418,0.4055 0.049,0.5946l0,0.0327c0,0.2473 -0.0381,0.4927 -0.1145,0.7364c-0.0764,0.2436 -0.1891,0.4636 -0.3382,0.66c-0.1491,0.1927 -0.3327,0.3491 -0.5509,0.4691c-0.2145,0.1163 -0.4564,0.1745 -0.7254,0.1745l-2.2637,0l0,-0.6709l2.2637,0c0.1745,-0.0109 0.3272,-0.0564 0.4581,-0.1364c0.1346,-0.08 0.2455,-0.1836 0.3328,-0.3109c0.0909,-0.1309 0.16,-0.2782 0.2072,-0.4418c0.04,-0.1491 0.06,-0.3018 0.06,-0.4582l0,-0.0382c-0.0036,-0.1745 -0.0181,-0.3563 -0.0436,-0.5454c-0.0218,-0.1891 -0.0509,-0.3764 -0.0873,-0.5618c-0.0327,-0.1855 -0.0691,-0.3655 -0.1091,-0.54c-0.04,-0.1746 -0.0781,-0.3364 -0.1145,-0.4855l0.6491,-0.1964zm-0.2564,7.1564l-0.6763,-0.6818l0.6654,-0.6764l0.6873,0.6818l-0.6764,0.6764zm-2.2254,-0.0109l-0.6764,-0.6818l0.6655,-0.6764l0.6872,0.6818l-0.6763,0.6764zm8.2362,-3.4309l0,-1.3582c-0.0073,-0.2873 -0.0345,-0.5527 -0.0818,-0.7964c-0.0437,-0.2472 -0.12,-0.46 -0.2291,-0.6381c-0.1091,-0.1819 -0.2546,-0.3219 -0.4364,-0.42c-0.1818,-0.1019 -0.4145,-0.1528 -0.6982,-0.1528c-0.28,0 -0.5127,0.0509 -0.6981,0.1528c-0.1855,0.1018 -0.3346,0.2436 -0.4473,0.4254c-0.1091,0.1782 -0.1873,0.3909 -0.2346,0.6382c-0.0436,0.2436 -0.0654,0.5073 -0.0654,0.7909c0,0.2509 0.0436,0.4636 0.1309,0.6382c0.0873,0.1709 0.2091,0.3109 0.3655,0.42c0.1563,0.1054 0.3381,0.1818 0.5454,0.2291c0.2109,0.0473 0.44,0.0709 0.6873,0.0709l1.1618,0zm-1.4455,-4.0364c0.3746,0.0146 0.6964,0.0891 0.9655,0.2237c0.2691,0.1345 0.4873,0.32 0.6545,0.5563c0.171,0.2328 0.2964,0.5109 0.3764,0.8346c0.08,0.32 0.12,0.6745 0.12,1.0636l0,1.3582l0.9273,0l0,0.6709l-0.9273,0l0,0.0927c0,0.48 -0.0836,0.9037 -0.2509,1.2709c-0.1636,0.3673 -0.4036,0.6746 -0.72,0.9219c-0.3164,0.2472 -0.6945,0.429 -1.1345,0.5454c-0.4364,0.12 -0.9146,0.18 -1.4346,0.18l-0.3109,0l0,-0.6709l0.3109,0c0.44,-0.0109 0.8346,-0.0545 1.1836,-0.1309c0.3528,-0.0764 0.6528,-0.2036 0.9,-0.3818c0.2473,-0.1782 0.4382,-0.4164 0.5728,-0.7146c0.1345,-0.2945 0.2054,-0.6654 0.2127,-1.1127l-1.2436,0c-0.3055,0 -0.5982,-0.04 -0.8782,-0.12c-0.28,-0.08 -0.5291,-0.2036 -0.7473,-0.3709c-0.2145,-0.1709 -0.3836,-0.3836 -0.5073,-0.6382c-0.1236,-0.2582 -0.1854,-0.5582 -0.1854,-0.9c0,-0.3854 0.0382,-0.7382 0.1145,-1.0582c0.08,-0.3236 0.2037,-0.6018 0.3709,-0.8345c0.1709,-0.2364 0.3891,-0.4218 0.6546,-0.5564c0.2691,-0.1382 0.5945,-0.2145 0.9763,-0.2291zm5.6152,0.3218c0.0363,0.1564 0.0763,0.3291 0.12,0.5182c0.0436,0.1891 0.0818,0.3855 0.1145,0.5891c0.0364,0.2 0.0673,0.4037 0.0927,0.6109c0.0255,0.2073 0.0419,0.4055 0.0491,0.5946l0,0.0327c0,0.2473 -0.0382,0.4927 -0.1145,0.7364c-0.0764,0.2436 -0.1891,0.4636 -0.3382,0.66c-0.1491,0.1927 -0.3327,0.3491 -0.5509,0.4691c-0.2146,0.1163 -0.4564,0.1745 -0.7255,0.1745l-1.4181,0l0,-0.6709l1.4181,0c0.1746,-0.0109 0.3273,-0.0564 0.4582,-0.1364c0.1346,-0.08 0.2455,-0.1836 0.3327,-0.3109c0.091,-0.1309 0.16,-0.2782 0.2073,-0.4418c0.04,-0.1491 0.06,-0.3018 0.06,-0.4582l0,-0.0382c-0.0036,-0.1745 -0.0182,-0.3563 -0.0436,-0.5454c-0.0218,-0.1891 -0.0509,-0.3764 -0.0873,-0.5618c-0.0327,-0.1855 -0.0691,-0.3655 -0.1091,-0.54c-0.04,-0.1746 -0.0782,-0.3364 -0.1145,-0.4855l0.6491,-0.1964zm-1.4346,-2.3072l0.6982,-0.7091l0.72,0.72l-0.7091,0.7091l-0.7091,-0.72zm13.1968,6.6927l-0.1091,0c-0.2873,0 -0.5564,-0.0345 -0.8073,-0.1036c-0.2473,-0.0691 -0.48,-0.1709 -0.6982,-0.3055c-0.2509,-0.16 -0.4672,-0.36 -0.6491,-0.6c-0.08,-0.1054 -0.1509,-0.22 -0.2127,-0.3436c-0.0618,-0.1237 -0.1164,-0.2546 -0.1636,-0.3928c-0.1128,0.2291 -0.2546,0.4382 -0.4255,0.6273c-0.1673,0.1855 -0.3745,0.3255 -0.6218,0.42c-0.2945,0.1164 -0.5855,0.1746 -0.8727,0.1746c-0.0255,0 -0.1237,-0.0019 -0.2946,-0.0055c-0.1672,-0.0073 -0.38,-0.0727 -0.6382,-0.1964c-0.2581,-0.1272 -0.48,-0.3054 -0.6654,-0.5345c-0.1818,-0.2291 -0.3,-0.4982 -0.3546,-0.8073c-0.0218,-0.12 -0.0327,-0.2382 -0.0327,-0.3545c0,-0.2473 0.0546,-0.5127 0.1637,-0.7964c0.109,-0.2836 0.3,-0.56 0.5727,-0.8291c0.2618,-0.2618 0.5854,-0.4927 0.9709,-0.6927c0.3854,-0.2 0.8236,-0.3655 1.3145,-0.4964l-0.1472,-0.7309l0.6654,-0.1854c0.1055,0.4509 0.1964,0.8454 0.2727,1.1836c0.08,0.3382 0.151,0.64 0.2128,0.9055c0.0436,0.1854 0.0836,0.3618 0.12,0.5291c0.0363,0.1636 0.0727,0.3254 0.1091,0.4854c0.04,0.1564 0.08,0.3127 0.12,0.4691c0.04,0.1564 0.0836,0.3218 0.1309,0.4964c0.0582,0.2145 0.1345,0.3981 0.2291,0.5509c0.0945,0.1491 0.2,0.2763 0.3163,0.3818c0.12,0.1054 0.2437,0.1909 0.3709,0.2564c0.1273,0.0618 0.2528,0.109 0.3764,0.1418c0.1273,0.0327 0.2455,0.0545 0.3545,0.0654c0.1091,0.0109 0.2037,0.0164 0.2837,0.0164l0.1091,0l0,0.6709zm-3.3328,-4.5982c-0.429,0.1164 -0.8109,0.26 -1.1454,0.4309c-0.3309,0.1673 -0.6073,0.3564 -0.8291,0.5673c-0.2182,0.2073 -0.3745,0.4309 -0.4691,0.6709c-0.0654,0.1636 -0.0982,0.3309 -0.0982,0.5018c0,0.08 0.0073,0.16 0.0218,0.24c0.0364,0.2073 0.1237,0.3855 0.2619,0.5346c0.1381,0.1491 0.3,0.2636 0.4854,0.3436c0.1855,0.0764 0.38,0.1164 0.5837,0.12l0.0272,0c0.1891,0 0.36,-0.0364 0.5128,-0.1091c0.2072,-0.1018 0.3745,-0.2236 0.5018,-0.3654c0.1272,-0.1455 0.2254,-0.2964 0.2945,-0.4528c0.0691,-0.1563 0.1146,-0.3109 0.1364,-0.4636c0.0218,-0.1564 0.0309,-0.2964 0.0273,-0.42c0,-0.1236 -0.0073,-0.2236 -0.0219,-0.3c-0.0109,-0.08 -0.0163,-0.1218 -0.0163,-0.1255c-0.04,-0.1745 -0.0746,-0.3218 -0.1037,-0.4418c-0.0254,-0.12 -0.0491,-0.2236 -0.0709,-0.3109c-0.0182,-0.0873 -0.0363,-0.1636 -0.0545,-0.2291c-0.0146,-0.0654 -0.0291,-0.1291 -0.0437,-0.1909zm7.1571,4.1837c0.1128,0 0.2255,-0.0291 0.3382,-0.0873c0.1164,-0.0582 0.2182,-0.1527 0.3055,-0.2837c0.0909,-0.1309 0.1636,-0.3018 0.2182,-0.5127c0.0581,-0.2145 0.0872,-0.4745 0.0872,-0.78c0,-0.2182 -0.0363,-0.4382 -0.1091,-0.66c-0.0691,-0.2254 -0.1672,-0.4254 -0.2945,-0.6c-0.0364,-0.0509 -0.0836,-0.1073 -0.1418,-0.1691c-0.0546,-0.0618 -0.12,-0.12 -0.1964,-0.1745c-0.0764,-0.0546 -0.1618,-0.1 -0.2564,-0.1364c-0.0945,-0.04 -0.1963,-0.06 -0.3054,-0.06c-0.2364,0 -0.4346,0.0437 -0.5946,0.1309c-0.16,0.0837 -0.2963,0.2055 -0.409,0.3655c-0.1091,0.16 -0.2037,0.3563 -0.2837,0.5891c-0.08,0.2291 -0.16,0.4891 -0.24,0.78c-0.0363,0.1345 -0.0727,0.2654 -0.1091,0.3927c-0.0363,0.1273 -0.0763,0.2509 -0.12,0.3709c0.2328,0.1164 0.4491,0.2273 0.6491,0.3327c0.2,0.1055 0.3855,0.1964 0.5564,0.2728c0.1709,0.0763 0.3309,0.1345 0.48,0.1745c0.1273,0.0364 0.2491,0.0546 0.3654,0.0546l0.06,0zm-0.3545,-4.1346c0.2764,0 0.5364,0.0709 0.78,0.2127c0.2473,0.1382 0.4673,0.34 0.66,0.6055c0.1709,0.2327 0.3018,0.4927 0.3927,0.78c0.0946,0.2873 0.1418,0.5782 0.1418,0.8727c0,0.1891 -0.0127,0.3782 -0.0381,0.5673c-0.0255,0.1854 -0.0655,0.3654 -0.12,0.54c-0.051,0.1745 -0.12,0.3364 -0.2073,0.4854c-0.0837,0.1491 -0.1855,0.2782 -0.3055,0.3873c-0.12,0.1091 -0.2582,0.1946 -0.4145,0.2564c-0.1564,0.0654 -0.3346,0.0982 -0.5346,0.0982c-0.1818,0 -0.36,-0.0237 -0.5345,-0.0709c-0.1746,-0.0437 -0.3582,-0.1055 -0.5509,-0.1855c-0.1891,-0.08 -0.3909,-0.1745 -0.6055,-0.2836c-0.2145,-0.1091 -0.4509,-0.2291 -0.7091,-0.36c-0.28,0.4291 -0.6691,0.6436 -1.1672,0.6436l-0.4855,0l0,-0.6709l0.4855,0c0.1418,0 0.2618,-0.0291 0.36,-0.0873c0.1018,-0.0618 0.1927,-0.16 0.2727,-0.2945c0.0873,-0.1418 0.1618,-0.3109 0.2236,-0.5073c0.0618,-0.2 0.1237,-0.4091 0.1855,-0.6273c0.0727,-0.2691 0.1509,-0.5363 0.2345,-0.8018c0.0873,-0.2654 0.2073,-0.5109 0.36,-0.7364c0.3746,-0.549 0.9,-0.8236 1.5764,-0.8236zm5.7693,4.5491c-0.4327,0 -0.78,-0.0509 -1.0418,-0.1527c-0.2582,-0.1018 -0.4564,-0.2528 -0.5945,-0.4528c-0.1382,-0.2 -0.2291,-0.4454 -0.2728,-0.7363c-0.0436,-0.2946 -0.0654,-0.6327 -0.0654,-1.0146l0,-5.4272l0.6818,0l0,5.4272c0,0.3382 0.0109,0.6164 0.0327,0.8346c0.0218,0.2182 0.0764,0.3909 0.1637,0.5182c0.0872,0.1236 0.2163,0.2109 0.3872,0.2618c0.1746,0.0473 0.4109,0.0709 0.7091,0.0709l0.0764,0l0,0.6709l-0.0764,0zm2.6823,-4.3855c0.0363,0.1564 0.0763,0.3291 0.12,0.5182c0.0436,0.1891 0.0818,0.3855 0.1145,0.5891c0.0364,0.2 0.0673,0.4037 0.0927,0.6109c0.0255,0.2073 0.0418,0.4055 0.0491,0.5946l0,0.0327c0,0.2473 -0.0382,0.4927 -0.1145,0.7364c-0.0764,0.2436 -0.1891,0.4636 -0.3382,0.66c-0.1491,0.1927 -0.3327,0.3491 -0.5509,0.4691c-0.2146,0.1163 -0.4564,0.1745 -0.7255,0.1745l-1.4182,0l0,-0.6709l1.4182,0c0.1746,-0.0109 0.3273,-0.0564 0.4582,-0.1364c0.1346,-0.08 0.2455,-0.1836 0.3327,-0.3109c0.0909,-0.1309 0.16,-0.2782 0.2073,-0.4418c0.04,-0.1491 0.06,-0.3018 0.06,-0.4582l0,-0.0382c-0.0036,-0.1745 -0.0182,-0.3563 -0.0436,-0.5454c-0.0218,-0.1891 -0.0509,-0.3764 -0.0873,-0.5618c-0.0327,-0.1855 -0.0691,-0.3655 -0.1091,-0.54c-0.04,-0.1746 -0.0782,-0.3364 -0.1145,-0.4855l0.6491,-0.1964zm-1.4346,-2.3072l0.6982,-0.7091l0.72,0.72l-0.7091,0.7091l-0.7091,-0.72zm6.6028,6.6927l-0.2509,0c-0.2255,0 -0.44,-0.0309 -0.6437,-0.0927c-0.2,-0.0618 -0.3818,-0.1509 -0.5454,-0.2673l0,0.18c0,1.0545 -0.2618,1.8509 -0.7855,2.3891c-0.52,0.5382 -1.2891,0.8073 -2.3072,0.8073l-0.7582,0l0,-0.6655l0.7582,0c0.8545,0 1.48,-0.2236 1.8763,-0.6709c0.3637,-0.4145 0.5455,-1.0345 0.5455,-1.86l0,-3.5018l0.6709,0l0,1.9527c0,0.1964 0.0363,0.3618 0.1091,0.4964c0.0727,0.1345 0.1654,0.2436 0.2782,0.3272c0.1163,0.0837 0.2436,0.1437 0.3818,0.18c0.1418,0.0364 0.2818,0.0546 0.42,0.0546l0.2509,0l0,0.6709zm2.613,-4.3855c0.0364,0.1564 0.0764,0.3291 0.12,0.5182c0.0436,0.1891 0.0818,0.3855 0.1145,0.5891c0.0364,0.2 0.0673,0.4037 0.0928,0.6109c0.0254,0.2073 0.0418,0.4055 0.0491,0.5946l0,0.0327c0,0.2473 -0.0382,0.4927 -0.1146,0.7364c-0.0763,0.2436 -0.1891,0.4636 -0.3382,0.66c-0.1491,0.1927 -0.3327,0.3491 -0.5509,0.4691c-0.2145,0.1163 -0.4563,0.1745 -0.7254,0.1745l-1.4182,0l0,-0.6709l1.4182,0c0.1745,-0.0109 0.3272,-0.0564 0.4582,-0.1364c0.1345,-0.08 0.2454,-0.1836 0.3327,-0.3109c0.0909,-0.1309 0.16,-0.2782 0.2073,-0.4418c0.04,-0.1491 0.06,-0.3018 0.06,-0.4582l0,-0.0382c-0.0037,-0.1745 -0.0182,-0.3563 -0.0437,-0.5454c-0.0218,-0.1891 -0.0509,-0.3764 -0.0873,-0.5618c-0.0327,-0.1855 -0.069,-0.3655 -0.109,-0.54c-0.04,-0.1746 -0.0782,-0.3364 -0.1146,-0.4855l0.6491,-0.1964zm-1.4455,6.3655l0.6219,-0.6273l0.6436,0.6382l-0.6327,0.6327l-0.6328,-0.6436zm13.6059,-6.7309c0.1782,0 0.3564,0.0127 0.5345,0.0382c0.1819,0.0254 0.3655,0.0654 0.551,0.12l-0.1855,0.6436c-0.3055,-0.0873 -0.6036,-0.1309 -0.8945,-0.1309c-0.3528,0 -0.6855,0.06 -0.9982,0.18c-0.3091,0.12 -0.5837,0.2982 -0.8237,0.5345c-0.2836,0.2764 -0.4818,0.6019 -0.5945,0.9764c-0.0727,0.2291 -0.1091,0.4636 -0.1091,0.7036c0,0.1491 0.0145,0.3 0.0436,0.4528c0.0582,0.0182 0.1509,0.0454 0.2782,0.0818c0.1309,0.0327 0.28,0.0709 0.4473,0.1145c0.1673,0.0437 0.3436,0.0909 0.5291,0.1419c0.1891,0.0509 0.3709,0.1 0.5454,0.1472c0.1782,0.0473 0.34,0.0909 0.4855,0.1309c0.1454,0.04 0.2618,0.0709 0.3491,0.0928c0.1454,0.04 0.26,0.0872 0.3436,0.1418c0.0873,0.0545 0.1509,0.1145 0.1909,0.18c0.04,0.0654 0.0655,0.1363 0.0764,0.2127c0.0109,0.0764 0.0164,0.1564 0.0164,0.24c0,0.1236 -0.0091,0.2655 -0.0273,0.4255c-0.0182,0.16 -0.0491,0.3236 -0.0927,0.4909c-0.04,0.1709 -0.0964,0.3363 -0.1691,0.4963c-0.0691,0.1637 -0.1564,0.3091 -0.2619,0.4364c-0.1454,0.1782 -0.3054,0.3255 -0.48,0.4418c-0.1709,0.1164 -0.3563,0.2091 -0.5563,0.2782c-0.1964,0.0691 -0.4055,0.1164 -0.6273,0.1418c-0.2182,0.0291 -0.4491,0.0437 -0.6927,0.0437l-1.3909,0c-0.2437,0 -0.4837,-0.0291 -0.72,-0.0873c-0.2364,-0.0582 -0.4637,-0.1473 -0.6818,-0.2673c-0.2182,-0.1164 -0.42,-0.26 -0.6055,-0.4309c-0.1818,-0.1673 -0.3418,-0.36 -0.48,-0.5782c-0.2,-0.32 -0.34,-0.6618 -0.42,-1.0254c-0.0691,-0.2982 -0.1036,-0.6037 -0.1036,-0.9164c0,-0.0691 0.0018,-0.1382 0.0054,-0.2073c0.0327,-0.8982 0.3018,-1.8709 0.8073,-2.9182l0.6054,0.2891c-0.2181,0.4509 -0.389,0.8873 -0.5127,1.3091c-0.12,0.4182 -0.1927,0.8146 -0.2182,1.1891c-0.0072,0.1127 -0.0109,0.2218 -0.0109,0.3273c0,0.2509 0.0273,0.5145 0.0818,0.7909c0.0582,0.2764 0.1691,0.5455 0.3328,0.8073c0.2109,0.3345 0.4854,0.5927 0.8236,0.7745c0.3418,0.1818 0.7218,0.2727 1.14,0.2727l1.3473,0c0.4473,0 0.8145,-0.0527 1.1018,-0.1581c0.2873,-0.1055 0.5236,-0.26 0.7091,-0.4637c0.0909,-0.0982 0.1654,-0.2127 0.2236,-0.3436c0.0618,-0.1273 0.1091,-0.2618 0.1418,-0.4036c0.0364,-0.1382 0.06,-0.2782 0.071,-0.42c0.0036,-0.0546 0.0054,-0.1091 0.0054,-0.1637c0,-0.0763 -0.0036,-0.1509 -0.0109,-0.2236l-3.1582,-0.8509l-0.0491,-0.1855c-0.0691,-0.2582 -0.1036,-0.5182 -0.1036,-0.78c0,-0.0109 0,-0.0873 0,-0.2291c0,-0.1418 0.0345,-0.34 0.1036,-0.5945c0.0691,-0.2546 0.1709,-0.4964 0.3055,-0.7255c0.1345,-0.2327 0.3,-0.4454 0.4963,-0.6382c0.1491,-0.1454 0.311,-0.2745 0.4855,-0.3872c0.1782,-0.1164 0.3655,-0.2128 0.5618,-0.2891c0.1964,-0.0764 0.4,-0.1346 0.6109,-0.1746c0.1891,-0.0363 0.38,-0.0545 0.5728,-0.0545l0.0545,0zm4.7863,4.7509c-0.4327,0 -0.78,-0.0509 -1.0418,-0.1527c-0.2582,-0.1018 -0.4564,-0.2528 -0.5946,-0.4528c-0.1382,-0.2 -0.2291,-0.4454 -0.2727,-0.7363c-0.0436,-0.2946 -0.0655,-0.6327 -0.0655,-1.0146l0,-5.4272l0.6819,0l0,5.4272c0,0.3382 0.0109,0.6164 0.0327,0.8346c0.0218,0.2182 0.0763,0.3909 0.1636,0.5182c0.0873,0.1236 0.2164,0.2109 0.3873,0.2618c0.1745,0.0473 0.4109,0.0709 0.7091,0.0709l0.0763,0l0,0.6709l-0.0763,0zm6.4731,0c-0.2763,0 -0.5145,-0.0327 -0.7145,-0.0982c-0.1964,-0.0691 -0.3709,-0.1727 -0.5237,-0.3109c-0.0727,-0.0618 -0.1363,-0.1309 -0.1909,-0.2073c-0.0618,0.1309 -0.14,0.2509 -0.2345,0.36c-0.0909,0.1055 -0.1946,0.1964 -0.3109,0.2728c-0.1164,0.0763 -0.24,0.1345 -0.3709,0.1745c-0.1309,0.0436 -0.2655,0.0655 -0.4037,0.0655c-0.1782,0 -0.3563,-0.0219 -0.5345,-0.0655c-0.1782,-0.0436 -0.3637,-0.1054 -0.5564,-0.1854c-0.1927,-0.0764 -0.3963,-0.1691 -0.6109,-0.2782c-0.2145,-0.1128 -0.4473,-0.2364 -0.6982,-0.3709c-0.2872,0.4291 -0.6782,0.6436 -1.1727,0.6436l-0.2673,0l0,-0.6709l0.2673,0c0.1418,0 0.2618,-0.0291 0.36,-0.0873c0.1018,-0.0618 0.1945,-0.16 0.2782,-0.2945c0.0873,-0.1418 0.16,-0.3109 0.2182,-0.5073c0.0618,-0.2 0.1236,-0.4091 0.1854,-0.6273c0.0364,-0.1345 0.0727,-0.2691 0.1091,-0.4036c0.04,-0.1346 0.0836,-0.2673 0.1309,-0.3982c0.0473,-0.1309 0.0982,-0.2582 0.1527,-0.3818c0.0582,-0.1236 0.1255,-0.2418 0.2019,-0.3546c0.3709,-0.549 0.8981,-0.8236 1.5818,-0.8236c0.2727,0 0.5327,0.0709 0.78,0.2127c0.2473,0.1382 0.4654,0.34 0.6545,0.6055c0.1746,0.2327 0.3073,0.4927 0.3982,0.78c0.0909,0.2873 0.1364,0.5782 0.1364,0.8727c0,0.5709 0.1163,0.9637 0.3491,1.1782c0.0872,0.08 0.1909,0.1382 0.3109,0.1745c0.1236,0.0364 0.2818,0.0546 0.4745,0.0546l0.1146,0l0,0.6709l-0.1146,0zm-2.7491,-0.4145c0.1128,0 0.2255,-0.0291 0.3382,-0.0873c0.1127,-0.0582 0.2146,-0.1527 0.3055,-0.2837c0.0909,-0.1309 0.1636,-0.3018 0.2181,-0.5127c0.0546,-0.2145 0.0819,-0.4745 0.0819,-0.78c0,-0.2182 -0.0364,-0.4382 -0.1091,-0.66c-0.0691,-0.2254 -0.1673,-0.4254 -0.2946,-0.6c-0.0363,-0.0509 -0.0836,-0.1073 -0.1418,-0.1691c-0.0545,-0.0618 -0.12,-0.12 -0.1964,-0.1745c-0.0763,-0.0546 -0.1618,-0.1 -0.2563,-0.1364c-0.0909,-0.04 -0.1909,-0.06 -0.3,-0.06c-0.24,0 -0.44,0.0437 -0.6,0.1309c-0.16,0.0837 -0.2964,0.2055 -0.4091,0.3655c-0.1091,0.16 -0.2036,0.3563 -0.2836,0.5891c-0.08,0.2291 -0.1582,0.4891 -0.2346,0.78c-0.04,0.1345 -0.0782,0.2654 -0.1145,0.3927c-0.0364,0.1273 -0.0746,0.2509 -0.1146,0.3709c0.2327,0.1236 0.4473,0.2382 0.6437,0.3436c0.2,0.1019 0.3854,0.191 0.5563,0.2673c0.1746,0.0727 0.3382,0.1291 0.4909,0.1691c0.1382,0.0364 0.2673,0.0546 0.3873,0.0546l0.0327,0zm7.3041,-0.2564l0,0.6709l-0.3818,0c-0.2436,0 -0.4745,-0.0364 -0.6927,-0.1091c-0.2182,-0.0727 -0.4091,-0.1764 -0.5727,-0.3109c-0.0982,-0.08 -0.18,-0.1636 -0.2455,-0.2509c-0.1854,0.2327 -0.4182,0.4018 -0.6982,0.5073c-0.28,0.1054 -0.62,0.16 -1.02,0.1636l-1.0254,0l0,-0.6709l1.0254,0c0.2146,-0.0073 0.4055,-0.0273 0.5728,-0.06c0.1672,-0.0327 0.309,-0.0891 0.4254,-0.1691c0.1164,-0.08 0.2055,-0.1855 0.2673,-0.3164c0.0654,-0.1345 0.1018,-0.3054 0.1091,-0.5127l0,-1.9582l0.6709,0l0,1.9582c0,0.1964 0.0363,0.3618 0.1091,0.4964c0.0727,0.1345 0.1654,0.2436 0.2782,0.3272c0.1127,0.0837 0.2381,0.1437 0.3763,0.18c0.1418,0.0364 0.2818,0.0546 0.42,0.0546l0.3818,0zm-3.0436,-5.5309l0.6982,-0.7091l0.72,0.72l-0.7091,0.7091l-0.7091,-0.72zm6.3856,5.16c0.1673,-0.0618 0.3273,-0.14 0.48,-0.2346c0.1564,-0.0981 0.291,-0.2127 0.4037,-0.3436c0.1164,-0.1309 0.2091,-0.28 0.2782,-0.4473c0.0691,-0.1672 0.1036,-0.3527 0.1036,-0.5563c0,-0.2109 -0.0382,-0.4037 -0.1145,-0.5782c-0.0728,-0.1746 -0.1691,-0.3237 -0.2891,-0.4473c-0.12,-0.1236 -0.2564,-0.2182 -0.4091,-0.2836c-0.1491,-0.0691 -0.3,-0.1037 -0.4528,-0.1037c-0.2618,0 -0.4818,0.04 -0.6599,0.12c-0.1782,0.0764 -0.3237,0.1782 -0.4364,0.3055c-0.1127,0.1236 -0.1946,0.2654 -0.2455,0.4254c-0.0472,0.16 -0.0709,0.32 -0.0709,0.48c0,0.2364 0.0473,0.4473 0.1418,0.6328c0.0982,0.1818 0.2509,0.3563 0.4582,0.5236c0.1128,0.0909 0.2364,0.1782 0.3709,0.2618c0.1382,0.08 0.2855,0.1618 0.4418,0.2455zm1.2764,-4.5764c0.2909,0.3091 0.5619,0.5964 0.8129,0.8618c0.251,0.2655 0.48,0.5164 0.687,0.7528c0.207,0.2327 0.391,0.4527 0.551,0.66c0.164,0.2036 0.304,0.3981 0.42,0.5836c0.116,0.1891 0.211,0.3727 0.284,0.5509c0.072,0.1782 0.12,0.3546 0.141,0.5291c0.008,0.0655 0.011,0.1327 0.011,0.2018c0,0.1091 -0.014,0.2382 -0.043,0.3873c-0.029,0.1454 -0.095,0.3145 -0.197,0.5073c-0.08,0.1527 -0.185,0.2891 -0.316,0.4091c-0.131,0.1163 -0.278,0.2145 -0.442,0.2945c-0.16,0.08 -0.333,0.14 -0.518,0.18c-0.185,0.0436 -0.371,0.0655 -0.556,0.0655c-0.193,0 -0.3822,-0.02 -0.5676,-0.06c-0.1818,-0.0364 -0.3618,-0.0873 -0.54,-0.1528c-0.1782,-0.0618 -0.3546,-0.1327 -0.5291,-0.2127c-0.1745,-0.0836 -0.3491,-0.1691 -0.5236,-0.2564c-0.3455,0.1055 -0.7328,0.1855 -1.1619,0.24c-0.4254,0.0509 -0.8963,0.0764 -1.4127,0.0764l-0.9054,0l0,-0.6709l0.9054,0c0.6473,0 1.2164,-0.0436 1.7073,-0.1309c-0.0582,-0.0364 -0.1127,-0.0727 -0.1636,-0.1091c-0.051,-0.0364 -0.1,-0.0746 -0.1473,-0.1146c-0.28,-0.2181 -0.4927,-0.4636 -0.6382,-0.7363c-0.1455,-0.2764 -0.2182,-0.5909 -0.2182,-0.9437c0,-0.2981 0.0509,-0.5709 0.1527,-0.8181c0.1055,-0.2473 0.251,-0.4582 0.4364,-0.6328c0.1855,-0.1745 0.4055,-0.3091 0.66,-0.4036c0.2546,-0.0982 0.5327,-0.1473 0.8345,-0.1473c0.2728,0 0.5273,0.0582 0.7637,0.1746c0.2363,0.1163 0.44,0.2727 0.6109,0.4691c0.1745,0.1927 0.3109,0.4145 0.4087,0.6654c0.102,0.2509 0.153,0.5091 0.153,0.7746c0,0.4327 -0.1,0.8127 -0.2999,1.14c-0.2,0.3236 -0.4873,0.5945 -0.8618,0.8127c0.1964,0.1054 0.4091,0.1927 0.6382,0.2618c0.2291,0.0691 0.4635,0.1036 0.7035,0.1036c0.156,0 0.3,-0.0163 0.431,-0.049c0.135,-0.0328 0.255,-0.0764 0.36,-0.131c0.105,-0.0545 0.195,-0.1163 0.267,-0.1854c0.077,-0.0727 0.135,-0.1473 0.175,-0.2236c0.065,-0.12 0.111,-0.2382 0.136,-0.3546c0.015,-0.0727 0.022,-0.1454 0.022,-0.2182c0,-0.0436 -0.005,-0.1054 -0.016,-0.1854c-0.008,-0.0837 -0.039,-0.1909 -0.093,-0.3218c-0.051,-0.1346 -0.126,-0.2782 -0.224,-0.431c-0.214,-0.3418 -0.523,-0.7345 -0.927,-1.1781c-0.404,-0.4473 -0.8891,-0.9709 -1.4563,-1.5709l0.4854,-0.4637zm5.2329,5.6182l-0.682,0l0,-7.7836l0.682,0l0,7.7836zm-0.273,3.0164l0,-0.6655l0.758,0c0.855,0 1.48,-0.2236 1.877,-0.6709c0.363,-0.4145 0.545,-1.0345 0.545,-1.86l0,-3.5018l0.671,0l0,3.5018c0,1.0545 -0.262,1.8509 -0.786,2.3891c-0.52,0.5382 -1.289,0.8073 -2.307,0.8073l-0.758,0z"/>
  <text xml:space="preserve" text-anchor="start" font-family="Noto Sans JP" font-size="16" stroke-width="0" id="svg_5" y="27.4369" x="70.81107" fill="#000000">ریپلای</text>
 </g>
</svg>