<svg width="109" height="51" viewBox="0 0 109 51" fill="none" xmlns="http://www.w3.org/2000/svg">
<path d="M75.9131 14.1455C76.0465 14.1636 76.1616 14.1788 76.2586 14.1909C76.3616 14.203 76.4737 14.2242 76.595 14.2545C76.7222 14.2788 76.8737 14.3182 77.0495 14.3727C77.2313 14.4273 77.4677 14.5121 77.7586 14.6273C78.0556 14.7364 78.4222 14.8818 78.8586 15.0636C79.301 15.2394 79.8465 15.4636 80.495 15.7364C80.9131 15.9121 81.3162 16.0848 81.704 16.2545C82.0919 16.4242 82.4344 16.5758 82.7313 16.7091C83.0344 16.8364 83.2768 16.9424 83.4586 17.0273C83.6404 17.1061 83.7313 17.1455 83.7313 17.1455L83.695 18.1818C83.6889 18.1818 83.5525 18.2303 83.2859 18.3273C83.0253 18.4242 82.6495 18.5636 82.1586 18.7455C81.6737 18.9273 81.0828 19.1485 80.3859 19.4091C79.695 19.6636 78.9192 19.9545 78.0586 20.2818C77.7798 20.3848 77.4919 20.4909 77.195 20.6C76.904 20.703 76.6131 20.8182 76.3222 20.9455C76.0313 21.0667 75.7434 21.2061 75.4586 21.3636C75.1798 21.5152 74.9162 21.6939 74.6677 21.9C74.2556 22.2273 73.9586 22.6 73.7768 23.0182C73.601 23.4364 73.5283 23.9303 73.5586 24.5C73.5768 24.9242 73.6647 25.303 73.8222 25.6364C73.9859 25.9758 74.198 26.2697 74.4586 26.5182C74.7253 26.7727 75.0313 26.9879 75.3768 27.1636C75.7283 27.3394 76.095 27.4818 76.4768 27.5909C76.8647 27.7 77.2616 27.7788 77.6677 27.8273C78.0737 27.8758 78.4707 27.9 78.8586 27.9H82.8404V29.0182H78.8586C78.0222 29.0182 77.2253 28.9273 76.4677 28.7455C75.7101 28.5636 75.0374 28.2879 74.4495 27.9182C73.8616 27.5485 73.3889 27.0848 73.0313 26.5273C72.6737 25.9697 72.4768 25.3121 72.4404 24.5545C72.3677 23.0758 72.8768 21.9 73.9677 21.0273C74.2344 20.8091 74.5162 20.6182 74.8131 20.4545C75.1162 20.2848 75.4253 20.1303 75.7404 19.9909C76.0556 19.8515 76.3737 19.7212 76.695 19.6C77.0222 19.4788 77.3465 19.3576 77.6677 19.2364C78.1344 19.0606 78.598 18.8939 79.0586 18.7364C79.5192 18.5727 79.9556 18.4242 80.3677 18.2909C80.7798 18.1515 81.1586 18.0242 81.504 17.9091C81.8495 17.7939 82.1465 17.6909 82.395 17.6C81.9889 17.4242 81.5647 17.2455 81.1222 17.0636C80.6798 16.8758 80.2404 16.697 79.804 16.5273C79.3677 16.3515 78.9434 16.1879 78.5313 16.0364C78.1192 15.8788 77.7404 15.7455 77.395 15.6364C77.0495 15.5212 76.7465 15.4303 76.4859 15.3636C76.2313 15.297 76.0374 15.2636 75.904 15.2636C75.5222 15.2636 75.1768 15.4152 74.8677 15.7182C74.5647 16.0212 74.3434 16.4424 74.204 16.9818L73.1222 16.7C73.2131 16.3667 73.3374 16.0515 73.495 15.7545C73.6586 15.4515 73.8556 15.1848 74.0859 14.9545C74.3222 14.7182 74.5919 14.5303 74.895 14.3909C75.198 14.2455 75.5374 14.1636 75.9131 14.1455ZM74.9586 10.6727L76.1222 9.49091L77.3222 10.6909L76.1404 11.8727L74.9586 10.6727ZM92.8244 24H92.4062C92.0304 24 91.6728 23.9485 91.3335 23.8455C91.0001 23.7424 90.6971 23.5939 90.4244 23.4V23.7C90.4244 25.4576 89.988 26.7848 89.1153 27.6818C88.2486 28.5788 86.9668 29.0273 85.2698 29.0273H84.0062V27.9182H85.2698C86.6941 27.9182 87.7365 27.5455 88.3971 26.8C89.0031 26.1091 89.3062 25.0758 89.3062 23.7V21.1909V17.8636H90.4244V21.1182C90.4244 21.4455 90.485 21.7212 90.6062 21.9455C90.7274 22.1697 90.8819 22.3515 91.0698 22.4909C91.2638 22.6303 91.4759 22.7303 91.7062 22.7909C91.9425 22.8515 92.1759 22.8818 92.4062 22.8818H92.8244V24ZM98.4712 22.8818V24H98.2712C97.756 24 97.2833 23.8879 96.853 23.6636C96.4227 23.4394 96.0712 23.1182 95.7984 22.7C95.6287 22.9364 95.4287 23.1364 95.1984 23.3C94.9742 23.4636 94.7166 23.597 94.4257 23.7C94.1348 23.797 93.8106 23.8697 93.453 23.9182C93.0954 23.9667 92.7045 23.9939 92.2803 24V22.8818C92.9469 22.8818 93.4772 22.8212 93.8712 22.7C94.2651 22.5727 94.5651 22.4061 94.7712 22.2C94.9772 21.9939 95.1106 21.7606 95.1712 21.5C95.2318 21.2394 95.2621 20.9758 95.2621 20.7091V11.0273H96.3803V20.8091C96.3803 21.1182 96.4257 21.4 96.5166 21.6545C96.6075 21.9091 96.7348 22.1273 96.8984 22.3091C97.0681 22.4909 97.2681 22.6333 97.4984 22.7364C97.7287 22.8333 97.9863 22.8818 98.2712 22.8818H98.4712ZM108.741 10.7273L101.114 14.0818C101.514 14.4212 102.05 14.903 102.723 15.5273C103.396 16.1455 104.165 16.9152 105.032 17.8364C105.796 18.6424 106.317 19.4273 106.596 20.1909C106.741 20.5909 106.817 20.9758 106.823 21.3455C106.829 21.7091 106.765 22.0455 106.632 22.3545C106.565 22.5061 106.459 22.6788 106.314 22.8727C106.174 23.0606 105.971 23.2394 105.705 23.4091C105.444 23.5727 105.114 23.7121 104.714 23.8273C104.314 23.9424 103.823 24 103.241 24H98.0683V22.8818H103.241C103.926 22.8818 104.477 22.7818 104.896 22.5818C105.253 22.4121 105.489 22.1879 105.605 21.9091C105.774 21.5152 105.735 21.0273 105.486 20.4455C105.244 19.8636 104.82 19.2485 104.214 18.6C103.565 17.9091 102.965 17.303 102.414 16.7818C101.868 16.2545 101.396 15.8152 100.996 15.4636C100.596 15.1061 100.283 14.8364 100.059 14.6545C99.8349 14.4727 99.7198 14.3818 99.7137 14.3818L99.8319 13.4273L108.286 9.7L108.741 10.7273ZM100.141 10.4818L107.041 7.50909L107.405 8.23636L100.068 11.4091L100.141 10.4818Z" fill="black"/>
<path d="M9.6896 40.3127V44.2727C9.6896 45.0982 9.49869 45.7309 9.11688 46.1709C8.99688 46.3091 8.85869 46.4291 8.70233 46.5309C8.5496 46.6364 8.37869 46.7236 8.1896 46.7927C7.80051 46.9382 7.32778 47.0109 6.77142 47.0109H5.4896C4.96597 47.0109 4.4896 46.8945 4.06051 46.6618C3.63142 46.4327 3.28233 46.1055 3.01324 45.68C2.82778 45.3855 2.69142 45.0545 2.60415 44.6873C2.51688 44.32 2.48233 43.9273 2.50051 43.5091C2.51869 43.0582 2.59688 42.6 2.73506 42.1345C2.87687 41.6691 3.07506 41.1709 3.3296 40.64L3.93506 40.9291C3.71688 41.3836 3.54415 41.82 3.41688 42.2382C3.29324 42.6527 3.21687 43.0455 3.18778 43.4164C3.15869 43.7873 3.17506 44.1327 3.23687 44.4527C3.30233 44.7764 3.41688 45.0673 3.58051 45.3255C3.78778 45.6491 4.05506 45.8982 4.38233 46.0727C4.71324 46.2509 5.08233 46.34 5.4896 46.34H6.77142C7.64778 46.34 8.26051 46.1382 8.6096 45.7345C8.88233 45.4182 9.01869 44.9309 9.01869 44.2727V40.3127H9.6896ZM5.7896 39.8818L6.48778 39.1727L7.20778 39.8927L6.49869 40.6018L5.7896 39.8818ZM13.2512 44C12.8184 44 12.4712 43.9491 12.2093 43.8473C11.9512 43.7455 11.753 43.5945 11.6148 43.3945C11.4766 43.1945 11.3857 42.9491 11.3421 42.6582C11.2984 42.3636 11.2766 42.0255 11.2766 41.6436V36.2164H11.9584V41.6436C11.9584 41.9818 11.9693 42.26 11.9912 42.4782C12.013 42.6964 12.0675 42.8691 12.1548 42.9964C12.2421 43.12 12.3712 43.2073 12.5421 43.2582C12.7166 43.3055 12.953 43.3291 13.2512 43.3291H13.3275V44H13.2512ZM22.7697 44C22.5988 44 22.4315 43.9873 22.2679 43.9618C22.1079 43.9327 21.957 43.8891 21.8152 43.8309C21.6734 43.7727 21.5443 43.6964 21.4279 43.6018C21.3115 43.5073 21.2152 43.3945 21.1388 43.2636C21.0988 43.3218 21.057 43.3745 21.0134 43.4218C20.9697 43.4655 20.9279 43.5055 20.8879 43.5418C20.7206 43.6909 20.5352 43.8055 20.3315 43.8855C20.1279 43.9618 19.9079 44 19.6715 44C19.4825 44 19.3115 43.9855 19.1588 43.9564C19.0097 43.9236 18.8734 43.8782 18.7497 43.82C18.6297 43.7582 18.517 43.6818 18.4115 43.5909C18.3097 43.4964 18.2134 43.3873 18.1225 43.2636C17.9479 43.5 17.7334 43.6818 17.4788 43.8091C17.2279 43.9364 16.9515 44 16.6497 44C16.3225 44 16.0461 43.9545 15.8206 43.8636C15.5988 43.7727 15.3988 43.6382 15.2206 43.46C15.1915 43.4309 15.1643 43.4 15.1388 43.3673C15.1134 43.3345 15.0879 43.3 15.0625 43.2636C15.0225 43.3218 14.9806 43.3745 14.937 43.4218C14.8934 43.4655 14.8515 43.5055 14.8115 43.5418C14.6443 43.6909 14.4534 43.8055 14.2388 43.8855C14.0279 43.9618 13.8043 44 13.5679 44H13.0988V43.3291H13.6334C13.7679 43.3291 13.9025 43.3073 14.037 43.2636C14.1752 43.22 14.3006 43.1509 14.4134 43.0564C14.5261 42.9618 14.617 42.8382 14.6861 42.6855C14.7588 42.5291 14.7952 42.3382 14.7952 42.1127V40.3182H15.4661V42.1127C15.4661 42.5127 15.5588 42.8145 15.7443 43.0182C15.9334 43.2218 16.2443 43.3255 16.677 43.3291C16.8115 43.3291 16.9443 43.3073 17.0752 43.2636C17.2097 43.22 17.3297 43.1509 17.4352 43.0564C17.5406 42.9618 17.6261 42.8382 17.6915 42.6855C17.757 42.5291 17.7897 42.3382 17.7897 42.1127V40.3182H18.4606V42.1127C18.4606 42.5127 18.5552 42.8145 18.7443 43.0182C18.9334 43.2218 19.2443 43.3255 19.677 43.3291C19.8115 43.3291 19.9461 43.3073 20.0806 43.2636C20.2152 43.22 20.3352 43.1509 20.4406 43.0564C20.5497 42.9618 20.637 42.8382 20.7025 42.6855C20.7715 42.5291 20.8061 42.3382 20.8061 42.1127V40.3182H21.477V42.1127C21.477 42.9127 21.9097 43.3182 22.7752 43.3291H23.0643V44H22.7697ZM26.4502 39.6145C26.4866 39.7709 26.5266 39.9436 26.5702 40.1327C26.6139 40.3218 26.652 40.5182 26.6848 40.7218C26.7211 40.9218 26.752 41.1255 26.7775 41.3327C26.803 41.54 26.8193 41.7382 26.8266 41.9273C26.8302 42.1855 26.792 42.44 26.712 42.6909C26.6357 42.9382 26.523 43.16 26.3739 43.3564C26.2248 43.5491 26.0411 43.7055 25.823 43.8255C25.6084 43.9418 25.3666 44 25.0975 44H22.8339V43.3291H25.0975C25.272 43.3182 25.4248 43.2727 25.5557 43.1927C25.6902 43.1127 25.8011 43.0091 25.8884 42.8818C25.9793 42.7509 26.0466 42.6055 26.0902 42.4455C26.1375 42.2818 26.1593 42.1145 26.1557 41.9436C26.152 41.7691 26.1375 41.5873 26.112 41.3982C26.0902 41.2091 26.0611 41.0218 26.0248 40.8364C25.992 40.6509 25.9557 40.4709 25.9157 40.2964C25.8757 40.1218 25.8375 39.96 25.8011 39.8109L26.4502 39.6145ZM26.2157 46.7709L25.5393 46.0891L26.2048 45.4127L26.892 46.0945L26.2157 46.7709ZM23.9902 46.76L23.3139 46.0782L23.9793 45.4018L24.6666 46.0836L23.9902 46.76ZM32.203 43.3291V41.9709C32.1958 41.6836 32.1685 41.4182 32.1212 41.1745C32.0776 40.9273 32.0012 40.7145 31.8921 40.5364C31.783 40.3545 31.6376 40.2145 31.4558 40.1164C31.2739 40.0145 31.0412 39.9636 30.7576 39.9636C30.4776 39.9636 30.2448 40.0145 30.0594 40.1164C29.8739 40.2182 29.7248 40.36 29.6121 40.5418C29.503 40.72 29.4248 40.9327 29.3776 41.18C29.3339 41.4236 29.3121 41.6873 29.3121 41.9709C29.3121 42.2218 29.3558 42.4345 29.443 42.6091C29.5303 42.78 29.6521 42.92 29.8085 43.0291C29.9648 43.1345 30.1467 43.2109 30.3539 43.2582C30.5648 43.3055 30.7939 43.3291 31.0412 43.3291H32.203ZM30.7576 39.2927C31.1321 39.3073 31.4539 39.3818 31.723 39.5164C31.9921 39.6509 32.2103 39.8364 32.3776 40.0727C32.5485 40.3055 32.6739 40.5836 32.7539 40.9073C32.8339 41.2273 32.8739 41.5818 32.8739 41.9709V43.3291H33.8012V44H32.8739C32.8848 44.52 32.8048 44.9691 32.6339 45.3473C32.463 45.7255 32.2194 46.0382 31.903 46.2855C31.5867 46.5327 31.2085 46.7145 30.7685 46.8309C30.3321 46.9509 29.8539 47.0109 29.3339 47.0109H29.023V46.34H29.3339C29.7739 46.3291 30.1685 46.2855 30.5176 46.2091C30.8703 46.1327 31.1703 46.0055 31.4176 45.8273C31.6648 45.6491 31.8558 45.4109 31.9903 45.1127C32.1248 44.8182 32.1958 44.4473 32.203 44H31.0412C30.703 44.0073 30.3885 43.9691 30.0976 43.8855C29.8067 43.8018 29.5521 43.6764 29.3339 43.5091C29.1194 43.3382 28.9503 43.1255 28.8267 42.8709C28.703 42.6127 28.6412 42.3127 28.6412 41.9709C28.6412 41.5855 28.6794 41.2327 28.7558 40.9127C28.8358 40.5891 28.9594 40.3109 29.1267 40.0782C29.2976 39.8418 29.5158 39.6564 29.7812 39.5218C30.0503 39.3836 30.3758 39.3073 30.7576 39.2927ZM36.3492 39.6145C36.3856 39.7709 36.4256 39.9436 36.4692 40.1327C36.5129 40.3218 36.5511 40.5182 36.5838 40.7218C36.6202 40.9218 36.6511 41.1255 36.6765 41.3327C36.702 41.54 36.7183 41.7382 36.7256 41.9273C36.7292 42.1855 36.6911 42.44 36.6111 42.6909C36.5347 42.9382 36.422 43.16 36.2729 43.3564C36.1238 43.5491 35.9402 43.7055 35.722 43.8255C35.5074 43.9418 35.2656 44 34.9965 44H33.5783V43.3291H34.9965C35.1711 43.3182 35.3238 43.2727 35.4547 43.1927C35.5892 43.1127 35.7002 43.0091 35.7874 42.8818C35.8783 42.7509 35.9456 42.6055 35.9892 42.4455C36.0365 42.2818 36.0583 42.1145 36.0547 41.9436C36.0511 41.7691 36.0365 41.5873 36.0111 41.3982C35.9892 41.2091 35.9602 41.0218 35.9238 40.8364C35.8911 40.6509 35.8547 40.4709 35.8147 40.2964C35.7747 40.1218 35.7365 39.96 35.7002 39.8109L36.3492 39.6145ZM34.9147 37.3073L35.6129 36.5982L36.3329 37.3182L35.6238 38.0273L34.9147 37.3073ZM48.188 44H48.0789C47.7917 44 47.5226 43.9655 47.2717 43.8964C47.0244 43.8273 46.7917 43.7255 46.5735 43.5909C46.3226 43.4309 46.1062 43.2309 45.9244 42.9909C45.8444 42.8855 45.7735 42.7709 45.7117 42.6473C45.6499 42.5236 45.5953 42.3927 45.548 42.2545C45.4353 42.4836 45.2935 42.6927 45.1226 42.8818C44.9553 43.0673 44.748 43.2073 44.5008 43.3018C44.1844 43.4291 43.868 43.4873 43.5517 43.4764C43.2389 43.4655 42.9535 43.3982 42.6953 43.2745C42.4371 43.1473 42.2153 42.9691 42.0299 42.74C41.848 42.5109 41.7299 42.2418 41.6753 41.9327C41.6135 41.5582 41.6462 41.2018 41.7735 40.8636C41.9044 40.5255 42.1062 40.2218 42.3789 39.9527C42.6408 39.6909 42.9644 39.46 43.3499 39.26C43.7353 39.06 44.1735 38.8945 44.6644 38.7636L44.5171 38.0327L45.1826 37.8473C45.288 38.2982 45.3789 38.6927 45.4553 39.0309C45.5353 39.3691 45.6062 39.6709 45.668 39.9364C45.7117 40.1218 45.7517 40.2982 45.788 40.4655C45.8244 40.6291 45.8608 40.7909 45.8971 40.9509C45.9371 41.1073 45.9771 41.2636 46.0171 41.42C46.0571 41.5764 46.1008 41.7418 46.148 41.9164C46.2062 42.1309 46.2826 42.3145 46.3771 42.4673C46.4717 42.6164 46.5771 42.7436 46.6935 42.8491C46.8135 42.9545 46.9371 43.04 47.0644 43.1055C47.1917 43.1673 47.3171 43.2145 47.4408 43.2473C47.568 43.28 47.6862 43.3018 47.7953 43.3127C47.9044 43.3236 47.9989 43.3291 48.0789 43.3291H48.188V44ZM44.8553 39.4018C44.4262 39.5182 44.0444 39.6618 43.7099 39.8327C43.3789 40 43.1026 40.1891 42.8808 40.4C42.6626 40.6073 42.5062 40.8309 42.4117 41.0709C42.3171 41.3109 42.2917 41.5582 42.3353 41.8127C42.3717 42.02 42.4589 42.1982 42.5971 42.3473C42.7353 42.4964 42.8971 42.6109 43.0826 42.6909C43.268 42.7673 43.4608 42.8073 43.6608 42.8109C43.8644 42.8145 44.0462 42.7782 44.2062 42.7018C44.4135 42.6 44.5808 42.4782 44.708 42.3364C44.8353 42.1909 44.9335 42.04 45.0026 41.8836C45.0717 41.7273 45.1171 41.5727 45.1389 41.42C45.1608 41.2636 45.1699 41.1236 45.1662 41C45.1662 40.8764 45.1589 40.7764 45.1444 40.7C45.1335 40.62 45.128 40.5782 45.128 40.5745C45.088 40.4 45.0535 40.2527 45.0244 40.1327C44.9989 40.0127 44.9753 39.9091 44.9535 39.8218C44.9353 39.7345 44.9171 39.6582 44.8989 39.5927C44.8844 39.5273 44.8699 39.4636 44.8553 39.4018ZM51.932 43.5855C52.0447 43.5855 52.1574 43.5564 52.2702 43.4982C52.3865 43.44 52.4884 43.3455 52.5756 43.2145C52.6665 43.0836 52.7393 42.9127 52.7938 42.7018C52.852 42.4873 52.8811 42.2273 52.8811 41.9218C52.8811 41.7036 52.8447 41.4836 52.772 41.2618C52.7029 41.0364 52.6047 40.8364 52.4774 40.6618C52.4411 40.6109 52.3938 40.5545 52.3356 40.4927C52.2811 40.4309 52.2156 40.3727 52.1393 40.3182C52.0629 40.2636 51.9774 40.2182 51.8829 40.1818C51.7884 40.1418 51.6865 40.1218 51.5774 40.1218C51.3411 40.1218 51.1429 40.1655 50.9829 40.2527C50.8229 40.3364 50.6865 40.4582 50.5738 40.6182C50.4647 40.7782 50.3702 40.9745 50.2902 41.2073C50.2102 41.4364 50.1302 41.6964 50.0502 41.9873C50.0138 42.1218 49.9774 42.2527 49.9411 42.38C49.9047 42.5073 49.8647 42.6309 49.8211 42.7509C50.0538 42.8673 50.2702 42.9782 50.4702 43.0836C50.6702 43.1891 50.8556 43.28 51.0265 43.3564C51.1974 43.4327 51.3574 43.4927 51.5065 43.5364C51.6556 43.5764 51.7974 43.5927 51.932 43.5855ZM51.5774 39.4509C51.8538 39.4509 52.1138 39.5218 52.3574 39.6636C52.6047 39.8018 52.8247 40.0036 53.0174 40.2691C53.1884 40.5018 53.3193 40.7618 53.4102 41.0491C53.5047 41.3364 53.552 41.6273 53.552 41.9218C53.552 42.1109 53.5393 42.3 53.5138 42.4891C53.4884 42.6745 53.4484 42.8545 53.3938 43.0291C53.3429 43.2036 53.2738 43.3655 53.1865 43.5145C53.1029 43.6636 53.0011 43.7927 52.8811 43.9018C52.7611 44.0109 52.6229 44.0964 52.4665 44.1582C52.3102 44.2236 52.132 44.2564 51.932 44.2564C51.7502 44.2564 51.572 44.2327 51.3974 44.1855C51.2229 44.1418 51.0393 44.08 50.8465 44C50.6574 43.92 50.4556 43.8255 50.2411 43.7164C50.0265 43.6073 49.7902 43.4873 49.532 43.3564C49.252 43.7855 48.8629 44 48.3647 44H47.8793V43.3291H48.3593H48.3647C48.5065 43.3291 48.6265 43.3 48.7247 43.2418C48.8265 43.18 48.9174 43.0818 48.9974 42.9473C49.0847 42.8055 49.1593 42.6364 49.2211 42.44C49.2829 42.24 49.3447 42.0309 49.4065 41.8127C49.4793 41.5436 49.5574 41.2764 49.6411 41.0109C49.7284 40.7455 49.8484 40.5 50.0011 40.2745C50.3756 39.7255 50.9011 39.4509 51.5774 39.4509ZM57.1262 44C56.6934 44 56.3462 43.9491 56.0843 43.8473C55.8262 43.7455 55.628 43.5945 55.4898 43.3945C55.3516 43.1945 55.2607 42.9491 55.2171 42.6582C55.1734 42.3636 55.1516 42.0255 55.1516 41.6436V36.2164H55.8334V41.6436C55.8334 41.9818 55.8443 42.26 55.8662 42.4782C55.888 42.6964 55.9425 42.8691 56.0298 42.9964C56.1171 43.12 56.2462 43.2073 56.4171 43.2582C56.5916 43.3055 56.828 43.3291 57.1262 43.3291H57.2025V44H57.1262ZM59.8102 39.6145C59.8465 39.7709 59.8865 39.9436 59.9302 40.1327C59.9738 40.3218 60.012 40.5182 60.0447 40.7218C60.0811 40.9218 60.112 41.1255 60.1375 41.3327C60.1629 41.54 60.1793 41.7382 60.1865 41.9273C60.1902 42.1855 60.152 42.44 60.072 42.6909C59.9956 42.9382 59.8829 43.16 59.7338 43.3564C59.5847 43.5491 59.4011 43.7055 59.1829 43.8255C58.9684 43.9418 58.7265 44 58.4575 44H57.0393V43.3291H58.4575C58.632 43.3182 58.7847 43.2727 58.9156 43.1927C59.0502 43.1127 59.1611 43.0091 59.2484 42.8818C59.3393 42.7509 59.4065 42.6055 59.4502 42.4455C59.4975 42.2818 59.5193 42.1145 59.5156 41.9436C59.512 41.7691 59.4975 41.5873 59.472 41.3982C59.4502 41.2091 59.4211 41.0218 59.3847 40.8364C59.352 40.6509 59.3156 40.4709 59.2756 40.2964C59.2356 40.1218 59.1975 39.96 59.1611 39.8109L59.8102 39.6145ZM58.3756 37.3073L59.0738 36.5982L59.7938 37.3182L59.0847 38.0273L58.3756 37.3073ZM65.0759 44H64.825C64.5995 44 64.385 43.9691 64.1813 43.9073C63.9813 43.8455 63.7995 43.7564 63.6359 43.64V43.82C63.6359 44.8745 63.374 45.6709 62.8504 46.2091C62.3304 46.7473 61.5613 47.0164 60.5431 47.0164H59.785V46.3509H60.5431C61.3977 46.3509 62.0231 46.1273 62.4195 45.68C62.7831 45.2655 62.965 44.6455 62.965 43.82V42.3145V40.3182H63.6359V42.2709C63.6359 42.4673 63.6722 42.6327 63.745 42.7673C63.8177 42.9018 63.9104 43.0109 64.0231 43.0945C64.1395 43.1782 64.2668 43.2382 64.405 43.2745C64.5468 43.3109 64.6868 43.3291 64.825 43.3291H65.0759V44ZM67.5094 39.6145C67.5458 39.7709 67.5858 39.9436 67.6294 40.1327C67.673 40.3218 67.7112 40.5182 67.7439 40.7218C67.7803 40.9218 67.8112 41.1255 67.8367 41.3327C67.8621 41.54 67.8785 41.7382 67.8858 41.9273C67.8894 42.1855 67.8512 42.44 67.7712 42.6909C67.6949 42.9382 67.5821 43.16 67.433 43.3564C67.2839 43.5491 67.1003 43.7055 66.8821 43.8255C66.6676 43.9418 66.4258 44 66.1567 44H64.7385V43.3291H66.1567C66.3312 43.3182 66.4839 43.2727 66.6149 43.1927C66.7494 43.1127 66.8603 43.0091 66.9476 42.8818C67.0385 42.7509 67.1058 42.6055 67.1494 42.4455C67.1967 42.2818 67.2185 42.1145 67.2149 41.9436C67.2112 41.7691 67.1967 41.5873 67.1712 41.3982C67.1494 41.2091 67.1203 41.0218 67.0839 40.8364C67.0512 40.6509 67.0149 40.4709 66.9749 40.2964C66.9349 40.1218 66.8967 39.96 66.8603 39.8109L67.5094 39.6145ZM66.0639 45.98L66.6858 45.3527L67.3294 45.9909L66.6967 46.6236L66.0639 45.98ZM79.8339 39.2491C80.012 39.2491 80.1902 39.2618 80.3684 39.2873C80.5502 39.3127 80.7339 39.3527 80.9193 39.4073L80.7339 40.0509C80.4284 39.9636 80.1302 39.92 79.8393 39.92C79.4866 39.92 79.1539 39.98 78.8411 40.1C78.532 40.22 78.2575 40.3982 78.0175 40.6345C77.7339 40.9109 77.5339 41.2364 77.4175 41.6109C77.3048 41.9855 77.2848 42.3709 77.3575 42.7673C77.4157 42.7855 77.5084 42.8127 77.6357 42.8491C77.7666 42.8818 77.9157 42.92 78.083 42.9636C78.2502 43.0073 78.4266 43.0545 78.612 43.1055C78.8011 43.1564 78.983 43.2055 79.1575 43.2527C79.3357 43.3 79.4975 43.3436 79.643 43.3836C79.7884 43.4236 79.9048 43.4545 79.992 43.4764C80.1375 43.5164 80.252 43.5636 80.3357 43.6182C80.423 43.6727 80.4866 43.7327 80.5266 43.7982C80.5666 43.8636 80.592 43.9345 80.603 44.0109C80.6139 44.0873 80.6193 44.1673 80.6193 44.2509C80.6193 44.3745 80.6102 44.5164 80.592 44.6764C80.5739 44.8364 80.543 45 80.4993 45.1673C80.4593 45.3382 80.403 45.5036 80.3302 45.6636C80.2611 45.8273 80.1739 45.9727 80.0684 46.1C79.923 46.2782 79.763 46.4255 79.5884 46.5418C79.4175 46.6582 79.232 46.7509 79.032 46.82C78.8357 46.8891 78.6266 46.9364 78.4048 46.9618C78.1866 46.9909 77.9557 47.0055 77.712 47.0055H76.3648C76.1066 47.0091 75.8557 46.98 75.612 46.9182C75.3684 46.86 75.1375 46.7709 74.9193 46.6509C74.7011 46.5345 74.4993 46.3909 74.3139 46.22C74.132 46.0527 73.972 45.86 73.8339 45.6418C73.6339 45.3218 73.492 44.98 73.4084 44.6164C73.3284 44.2527 73.2975 43.8782 73.3157 43.4927C73.3484 42.5945 73.6175 41.6218 74.123 40.5745L74.7284 40.8636C74.5102 41.3145 74.3393 41.7509 74.2157 42.1727C74.0957 42.5909 74.0211 42.9873 73.992 43.3618C73.9666 43.7364 73.9866 44.0855 74.052 44.4091C74.1211 44.7327 74.2375 45.0255 74.4011 45.2873C74.612 45.6218 74.8866 45.88 75.2248 46.0618C75.5666 46.2436 75.9466 46.3345 76.3648 46.3345H77.712C78.1593 46.3345 78.5266 46.2818 78.8139 46.1764C79.1011 46.0709 79.3375 45.9164 79.523 45.7127C79.6139 45.6145 79.6884 45.5 79.7466 45.3691C79.8084 45.2418 79.8557 45.1073 79.8884 44.9655C79.9248 44.8273 79.9466 44.6873 79.9539 44.5455C79.9648 44.4073 79.9648 44.2782 79.9539 44.1582L76.7957 43.3073L76.7466 43.1218C76.6739 42.8491 76.6375 42.5782 76.6375 42.3091C76.6411 42.0364 76.6775 41.7727 76.7466 41.5182C76.8157 41.2636 76.9175 41.0218 77.052 40.7927C77.1866 40.56 77.352 40.3473 77.5484 40.1545C77.6975 40.0091 77.8593 39.88 78.0339 39.7673C78.212 39.6509 78.3993 39.5545 78.5957 39.4782C78.792 39.4018 78.9939 39.3436 79.2011 39.3036C79.412 39.2636 79.623 39.2455 79.8339 39.2491ZM84.5012 44C84.0684 44 83.7212 43.9491 83.4593 43.8473C83.2012 43.7455 83.003 43.5945 82.8648 43.3945C82.7266 43.1945 82.6357 42.9491 82.5921 42.6582C82.5484 42.3636 82.5266 42.0255 82.5266 41.6436V36.2164H83.2084V41.6436C83.2084 41.9818 83.2193 42.26 83.2412 42.4782C83.263 42.6964 83.3175 42.8691 83.4048 42.9964C83.4921 43.12 83.6212 43.2073 83.7921 43.2582C83.9666 43.3055 84.203 43.3291 84.5012 43.3291H84.5775V44H84.5012ZM90.9543 44C90.6779 44 90.4397 43.9673 90.2397 43.9018C90.0434 43.8327 89.8688 43.7291 89.7161 43.5909C89.6434 43.5291 89.5797 43.46 89.5252 43.3836C89.4634 43.5145 89.3852 43.6345 89.2906 43.7436C89.1997 43.8491 89.0961 43.94 88.9797 44.0164C88.8634 44.0927 88.7397 44.1509 88.6088 44.1909C88.4779 44.2345 88.3434 44.2564 88.2052 44.2564C88.027 44.2564 87.8488 44.2345 87.6706 44.1909C87.4925 44.1473 87.307 44.0855 87.1143 44.0055C86.9215 43.9291 86.7179 43.8364 86.5034 43.7273C86.2888 43.6145 86.0561 43.4909 85.8052 43.3564C85.5179 43.7855 85.127 44 84.6325 44H84.3652V43.3291H84.6325C84.7743 43.3291 84.8943 43.3 84.9925 43.2418C85.0943 43.18 85.187 43.0818 85.2706 42.9473C85.3579 42.8055 85.4306 42.6364 85.4888 42.44C85.5506 42.24 85.6125 42.0309 85.6743 41.8127C85.7106 41.6782 85.747 41.5436 85.7834 41.4091C85.8234 41.2745 85.867 41.1418 85.9143 41.0109C85.9615 40.88 86.0125 40.7527 86.067 40.6291C86.1252 40.5055 86.1925 40.3873 86.2688 40.2745C86.6397 39.7255 87.167 39.4509 87.8506 39.4509C88.1234 39.4509 88.3834 39.5218 88.6306 39.6636C88.8779 39.8018 89.0961 40.0036 89.2852 40.2691C89.4597 40.5018 89.5925 40.7618 89.6834 41.0491C89.7743 41.3364 89.8197 41.6273 89.8197 41.9218C89.8197 42.4927 89.9361 42.8855 90.1688 43.1C90.2561 43.18 90.3597 43.2382 90.4797 43.2745C90.6034 43.3109 90.7615 43.3291 90.9543 43.3291H91.0688V44H90.9543ZM88.2052 43.5855C88.3179 43.5855 88.4306 43.5564 88.5434 43.4982C88.6561 43.44 88.7579 43.3455 88.8488 43.2145C88.9397 43.0836 89.0125 42.9127 89.067 42.7018C89.1215 42.4873 89.1488 42.2273 89.1488 41.9218C89.1488 41.7036 89.1125 41.4836 89.0397 41.2618C88.9706 41.0364 88.8725 40.8364 88.7452 40.6618C88.7088 40.6109 88.6615 40.5545 88.6034 40.4927C88.5488 40.4309 88.4834 40.3727 88.407 40.3182C88.3306 40.2636 88.2452 40.2182 88.1506 40.1818C88.0597 40.1418 87.9597 40.1218 87.8506 40.1218C87.6106 40.1218 87.4106 40.1655 87.2506 40.2527C87.0906 40.3364 86.9543 40.4582 86.8415 40.6182C86.7325 40.7782 86.6379 40.9745 86.5579 41.2073C86.4779 41.4364 86.3997 41.6964 86.3234 41.9873C86.2834 42.1218 86.2452 42.2527 86.2088 42.38C86.1725 42.5073 86.1343 42.6309 86.0943 42.7509C86.327 42.8745 86.5415 42.9891 86.7379 43.0945C86.9379 43.1964 87.1234 43.2855 87.2943 43.3618C87.4688 43.4345 87.6306 43.4909 87.7797 43.5309C87.9325 43.5709 88.0743 43.5891 88.2052 43.5855ZM95.4095 43.3291V44H95.0277C94.784 44 94.5531 43.9636 94.3349 43.8909C94.1168 43.8182 93.9259 43.7145 93.7622 43.58C93.664 43.5 93.5822 43.4164 93.5168 43.3291C93.3313 43.5618 93.0986 43.7309 92.8186 43.8364C92.5386 43.9418 92.1986 43.9964 91.7986 44H90.7731V43.3291H91.7986C92.0131 43.3218 92.204 43.3018 92.3713 43.2691C92.5386 43.2364 92.6804 43.18 92.7968 43.1C92.9131 43.02 93.0022 42.9145 93.064 42.7836C93.1295 42.6491 93.1659 42.4782 93.1731 42.2709V40.3127H93.844V42.2709C93.844 42.4673 93.8804 42.6327 93.9531 42.7673C94.0259 42.9018 94.1186 43.0109 94.2313 43.0945C94.344 43.1782 94.4695 43.2382 94.6077 43.2745C94.7495 43.3109 94.8895 43.3291 95.0277 43.3291H95.4095ZM92.464 37.7982L93.1622 37.0891L93.8822 37.8091L93.1731 38.5182L92.464 37.7982ZM98.7341 42.9582C98.9014 42.8964 99.0614 42.8182 99.2141 42.7236C99.3705 42.6255 99.505 42.5109 99.6178 42.38C99.7341 42.2491 99.8268 42.1 99.8959 41.9327C99.965 41.7655 99.9996 41.58 99.9996 41.3764C99.9996 41.1655 99.9614 40.9727 99.885 40.7982C99.8123 40.6236 99.7159 40.4745 99.5959 40.3509C99.4759 40.2273 99.3396 40.1327 99.1868 40.0673C99.0378 39.9982 98.8868 39.9636 98.7341 39.9636C98.4723 39.9636 98.2523 40.0036 98.0741 40.0836C97.8959 40.16 97.7505 40.2618 97.6378 40.3891C97.525 40.5127 97.4432 40.6545 97.3923 40.8145C97.345 40.9745 97.3214 41.1345 97.3214 41.2945C97.3214 41.5309 97.3687 41.7418 97.4632 41.9273C97.5614 42.1091 97.7141 42.2836 97.9214 42.4509C98.0341 42.5418 98.1578 42.6291 98.2923 42.7127C98.4305 42.7927 98.5778 42.8745 98.7341 42.9582ZM100.01 38.3818C100.301 38.6909 100.572 38.9782 100.823 39.2436C101.074 39.5091 101.303 39.76 101.51 39.9964C101.718 40.2291 101.901 40.4491 102.061 40.6564C102.225 40.86 102.365 41.0545 102.481 41.24C102.598 41.4291 102.692 41.6127 102.765 41.7909C102.838 41.9691 102.885 42.1473 102.907 42.3255C102.929 42.5 102.921 42.6782 102.885 42.86C102.849 43.0382 102.78 43.2236 102.678 43.4164C102.598 43.5691 102.492 43.7055 102.361 43.8255C102.23 43.9418 102.083 44.04 101.92 44.12C101.76 44.2 101.587 44.26 101.401 44.3C101.216 44.3436 101.03 44.3655 100.845 44.3655C100.652 44.3655 100.463 44.3455 100.278 44.3055C100.096 44.2691 99.9159 44.2182 99.7378 44.1527C99.5596 44.0909 99.3832 44.02 99.2087 43.94C99.0341 43.8564 98.8596 43.7709 98.685 43.6836C98.3396 43.7891 97.9523 43.8691 97.5232 43.9236C97.0978 43.9745 96.6268 44 96.1105 44H95.205V43.3291H96.1105C96.7578 43.3291 97.3268 43.2855 97.8178 43.1982C97.7596 43.1618 97.705 43.1255 97.6541 43.0891C97.6032 43.0527 97.5541 43.0145 97.5068 42.9745C97.2268 42.7564 97.0141 42.5109 96.8687 42.2382C96.7232 41.9618 96.6505 41.6473 96.6505 41.2945C96.6505 40.9964 96.7014 40.7236 96.8032 40.4764C96.9087 40.2291 97.0541 40.0182 97.2396 39.8436C97.425 39.6691 97.645 39.5345 97.8996 39.44C98.1541 39.3418 98.4323 39.2927 98.7341 39.2927C99.0068 39.2927 99.2614 39.3509 99.4978 39.4673C99.7341 39.5836 99.9378 39.74 100.109 39.9364C100.283 40.1291 100.42 40.3509 100.518 40.6018C100.62 40.8527 100.67 41.1109 100.67 41.3764C100.67 41.8091 100.57 42.1891 100.37 42.5164C100.17 42.84 99.8832 43.1109 99.5087 43.3291C99.705 43.4345 99.9178 43.5218 100.147 43.5909C100.376 43.66 100.61 43.6945 100.85 43.6945C101.007 43.6945 101.15 43.6782 101.281 43.6455C101.416 43.6127 101.536 43.5691 101.641 43.5145C101.747 43.46 101.836 43.3982 101.909 43.3291C101.985 43.2564 102.043 43.1818 102.083 43.1055C102.149 42.9855 102.194 42.8691 102.22 42.7564C102.245 42.64 102.25 42.5218 102.236 42.4018C102.221 42.2818 102.187 42.1564 102.132 42.0255C102.081 41.8909 102.007 41.7473 101.909 41.5945C101.694 41.2527 101.385 40.86 100.981 40.4164C100.578 39.9691 100.092 39.4455 99.525 38.8455L100.01 38.3818ZM105.22 44H104.538V36.2164H105.22V44ZM104.496 47.0164V46.3509H105.254C106.109 46.3509 106.734 46.1273 107.13 45.68C107.494 45.2655 107.676 44.6455 107.676 43.82V40.3182H108.347V43.82C108.347 44.8745 108.085 45.6709 107.561 46.2091C107.041 46.7473 106.272 47.0164 105.254 47.0164H104.496Z" fill="black"/>
</svg>
