<svg id="Layer_1" data-name="Layer 1" xmlns="http://www.w3.org/2000/svg" viewBox="0 0 153.5 153.5"><defs><style>.cls-1{fill:#354a9f;}</style></defs><title>BARID Logo for Product</title><rect class="cls-1" x="60.94" y="121.24" width="2.81" height="2.81" rx="0.72" transform="translate(104.98 -8.16) rotate(45)"/><rect class="cls-1" x="35.87" y="121.24" width="2.81" height="2.81" rx="0.72" transform="translate(97.64 9.56) rotate(45)"/><rect class="cls-1" x="6.16" y="121.24" width="2.81" height="2.81" rx="0.72" transform="translate(88.94 30.57) rotate(45)"/><rect class="cls-1" x="146.83" y="135.49" width="2.81" height="2.81" rx="0.72" transform="translate(140.22 -64.72) rotate(45)"/><rect class="cls-1" x="130.25" y="135.49" width="2.81" height="2.81" rx="0.72" transform="translate(135.36 -53) rotate(45)"/><rect class="cls-1" x="126.89" y="135.49" width="2.81" height="2.81" rx="0.72" transform="translate(134.38 -50.62) rotate(45)"/><rect class="cls-1" x="19.77" y="135.49" width="2.81" height="2.81" rx="0.72" transform="translate(103 25.12) rotate(45)"/><rect class="cls-1" x="16.41" y="135.49" width="2.81" height="2.81" rx="0.72" transform="translate(102.02 27.5) rotate(45)"/><path class="cls-1" d="M17.52,132.77a2.58,2.58,0,0,1-2.41-1,7.4,7.4,0,0,1-1.34,4.53,4.91,4.91,0,0,1-4.16,2H6.25a4.85,4.85,0,0,1-3.76-1.71A5.65,5.65,0,0,1,1,132.67v-6.73H3.15v7a2.94,2.94,0,0,0,1.06,2.33,3.66,3.66,0,0,0,2.45.87H9.47a3.59,3.59,0,0,0,2.43-.89,3,3,0,0,0,1-2.3v-7h2.17v3.14c0,1,.81,1.51,2.44,1.53Z"/><path class="cls-1" d="M23.9,129.23a3.78,3.78,0,0,1-.83,2.44,2.8,2.8,0,0,1-2.28,1.1H17.33l-1.19-2.16h4a1.67,1.67,0,0,0,1.25-.37,1.85,1.85,0,0,0,.36-1.3v-3H23.9Z"/><path class="cls-1" d="M35.9,132.77H34.46a5.24,5.24,0,0,1-1.6,3.95,5.53,5.53,0,0,1-4,1.56H25.74v-2.17h2.75a3.79,3.79,0,0,0,2.57-.89,3.24,3.24,0,0,0,1.09-2.44,8.1,8.1,0,0,1-4-.74,3.67,3.67,0,0,1-1.65-3.47q0-2.73,1.32-3.84a4,4,0,0,1,2.57-.65,3.41,3.41,0,0,1,3.49,2.15,13.87,13.87,0,0,1,.55,4.38H35.9Zm-3.68-2.16v-2.07a2.77,2.77,0,0,0-.43-1.56,1.57,1.57,0,0,0-1.37-.74,1.44,1.44,0,0,0-1.4.7,4,4,0,0,0-.26,1.68,1.67,1.67,0,0,0,1.15,1.77A7.91,7.91,0,0,0,32.22,130.61Z"/><path class="cls-1" d="M41.89,129.23a3.67,3.67,0,0,1-.87,2.44,2.86,2.86,0,0,1-2.29,1.1H35.16v-2.16a27.24,27.24,0,0,0,3.81-.13c.49-.18.73-.84.73-2,0-.28,0-.71,0-1.28s0-1,0-1.29h2.23Z"/><path class="cls-1" d="M61.27,132.77a4.33,4.33,0,0,1-2.08-.37,28.6,28.6,0,0,1-2.28-2,4.13,4.13,0,0,1-4,2.62,4,4,0,0,1-4.15-4.15c0-1.26.85-2.73,2.53-4.42l-.62-.7,1.47-1.47,6.52,6.93a8.84,8.84,0,0,0,1.1,1,3.43,3.43,0,0,0,1.49.34ZM55,129a1.59,1.59,0,0,0-.41-1.19l-1.76-1.75a14.72,14.72,0,0,0-1.27,1.29A2.65,2.65,0,0,0,51,129a1.79,1.79,0,0,0,.57,1.38,2,2,0,0,0,1.43.52,2.14,2.14,0,0,0,1.45-.54A1.71,1.71,0,0,0,55,129Z"/><path class="cls-1" d="M67.12,129.23a3.67,3.67,0,0,1-.87,2.44,2.85,2.85,0,0,1-2.29,1.1H60.39v-2.16a27.56,27.56,0,0,0,3.82-.13c.48-.18.72-.84.72-2,0-.28,0-.71,0-1.28s0-1,0-1.29h2.23Z"/><path class="cls-1" d="M74.06,132.77c-1.84,0-3.13-.35-3.88-1.06a2.94,2.94,0,0,1-.75-2.26V119.16h2.18v9.33c0,1,.17,1.63.5,1.85a5.4,5.4,0,0,0,2,.26Z"/><path class="cls-1" d="M83,128.69a4.86,4.86,0,0,1-.93,3.07,3.4,3.4,0,0,1-2.85,1.32,3.9,3.9,0,0,1-2.45-.83,8.45,8.45,0,0,1-3.33.52l-.36-2.16c1.23,0,1.95-.12,2.16-.37a6.34,6.34,0,0,0,.14-1.67q.1-4.48,3.9-4.49a3.25,3.25,0,0,1,2.83,1.45A5.4,5.4,0,0,1,83,128.69Zm-1.9-.12c0-1.58-.63-2.36-1.88-2.36s-1.91.81-1.91,2.44.64,2.26,1.91,2.26S81.14,130.13,81.14,128.57Z"/><path class="cls-1" d="M89.93,132.77c-1.84,0-3.13-.35-3.88-1.06a2.94,2.94,0,0,1-.75-2.26V119.16h2.18v9.33c0,1,.17,1.63.5,1.85a5.4,5.4,0,0,0,2,.26Z"/><path class="cls-1" d="M106.27,129.28a4.27,4.27,0,0,1-.73,2.61,2.79,2.79,0,0,1-2.4,1.13,4.09,4.09,0,0,1-2.94-1.47A3.51,3.51,0,0,1,97.55,133a4.06,4.06,0,0,1-3-1.75,3.76,3.76,0,0,1-2.84,1.5H89v-2.16h2.61c1,0,1.51-.54,1.51-1.63v-3h2.13v3.22a1.66,1.66,0,0,0,.56,1.28,1.94,1.94,0,0,0,1.34.5c1,0,1.49-.46,1.49-1.37v-3.63h2.13v3.22a1.64,1.64,0,0,0,.55,1.27,1.85,1.85,0,0,0,1.32.51c1,0,1.52-.46,1.52-1.37v-3.63h2.13Z"/><path class="cls-1" d="M127.54,132.77h-1a4.21,4.21,0,0,1-2.76-1.5,3.24,3.24,0,0,1-2.89,1.5h-7.06v-2.16h6.92c.8,0,1.2-.28,1.2-.83a1.1,1.1,0,0,0-.34-.81l-4.89-5.22,1.47-1.47,6.54,6.93a7.56,7.56,0,0,0,1.18,1.08,3.3,3.3,0,0,0,1.62.31Z"/><path class="cls-1" d="M134.23,129.23a3.73,3.73,0,0,1-.84,2.44,2.78,2.78,0,0,1-2.27,1.1h-4.66v-2.16h4a1.71,1.71,0,0,0,1.26-.37,1.91,1.91,0,0,0,.35-1.3v-3h2.18Z"/><path class="cls-1" d="M146.55,132.77a2.6,2.6,0,0,1-2.33-1,7.28,7.28,0,0,1-1.36,4.53,4.88,4.88,0,0,1-4.15,2h-3.17v-2.17h3a3.51,3.51,0,0,0,2.41-.88,3,3,0,0,0,1.05-2.31v-7h2.18v3.14q0,1.48,2.37,1.53Z"/><path class="cls-1" d="M152.48,129.23a3.67,3.67,0,0,1-.87,2.44,2.86,2.86,0,0,1-2.29,1.1h-2.83l-.74-2.16a27.35,27.35,0,0,0,3.81-.13c.49-.18.73-.84.73-2,0-.28,0-.71,0-1.28s0-1,0-1.29h2.23Z"/><path class="cls-1" d="M124.87,98.38l-10-10a2,2,0,0,0-2.83,0l-10,10a2,2,0,0,0,0,2.83l10,10a2,2,0,0,0,1.41.59,2,2,0,0,0,1.42-.59l10-10a2,2,0,0,0,.59-1.42A2,2,0,0,0,124.87,98.38ZM113.45,107l-7.17-7.18,7.17-7.17,7.18,7.17Z"/><path class="cls-1" d="M51.18,79.78a2,2,0,0,0-.59-1.41l-10-10a2,2,0,0,0-2.83,0l-10,10a2,2,0,0,0,0,2.83l8.59,8.59-8.59,8.59a2,2,0,0,0,0,2.83l10,10a2,2,0,0,0,1.41.59,2,2,0,0,0,1.42-.59l10-10a2,2,0,0,0,.59-1.42,2,2,0,0,0-.59-1.41L42,89.79l8.59-8.59A2,2,0,0,0,51.18,79.78Zm-4.83,20L39.17,107,32,99.79l7.17-7.17ZM39.17,87,32,79.78l7.17-7.17,7.18,7.17Z"/><path class="cls-1" d="M124,69.78a2,2,0,0,0-.47-2.08L105.69,49.87a2,2,0,0,0-1.62-.57A42.67,42.67,0,0,0,79.79,60.13a42.7,42.7,0,0,0,9.93-25.3,2,2,0,0,0-.58-1.51L71.31,15.5a2,2,0,0,0-3.41,1.31c-1,20.48-19.36,33-37,34.79A2,2,0,0,0,29.69,55L49.57,74.9a2,2,0,0,0,1.42.58h.2A42.68,42.68,0,0,0,75.47,64.63a42.76,42.76,0,0,0-9.93,25.31,2,2,0,0,0,.59,1.51L84,109.27a2,2,0,0,0,1.41.59,2.06,2.06,0,0,0,.73-.14A2,2,0,0,0,87.36,108,39.18,39.18,0,0,1,122.3,71.1,2,2,0,0,0,124,69.78ZM51.72,71.39,35.35,55C54.3,51.59,68.63,38.16,71.44,21.28L85.67,35.51A39.2,39.2,0,0,1,51.72,71.39ZM83.8,103.46,69.59,89.25a39.2,39.2,0,0,1,34-35.87l14.34,14.34A43.31,43.31,0,0,0,83.8,103.46Z"/></svg>
