<svg width="109" height="49" viewBox="0 0 109 49" fill="none" xmlns="http://www.w3.org/2000/svg">
<path d="M73.6076 22.8818C74.5773 22.8818 75.4743 22.803 76.2985 22.6455C76.0258 22.4758 75.7712 22.2818 75.5349 22.0636C75.2985 21.8455 75.0955 21.6091 74.9258 21.3545C74.7561 21.1 74.6228 20.8273 74.5258 20.5364C74.4288 20.2455 74.3803 19.9394 74.3803 19.6182C74.3803 19.1091 74.4682 18.6394 74.644 18.2091C74.8197 17.7727 75.0621 17.4 75.3712 17.0909C75.6864 16.7758 76.0591 16.5333 76.4894 16.3636C76.9258 16.1879 77.4046 16.1061 77.9258 16.1182C78.3985 16.1061 78.8409 16.197 79.2531 16.3909C79.6652 16.5788 80.0197 16.8364 80.3167 17.1636C80.6197 17.4909 80.8561 17.8697 81.0258 18.3C81.2015 18.7242 81.2894 19.1636 81.2894 19.6182C81.2894 20.2121 81.1288 20.7667 80.8076 21.2818C80.4924 21.797 80.0318 22.2515 79.4258 22.6455C80.2137 22.803 81.0318 22.8818 81.8803 22.8818H82.5258V24H81.8803C81.1531 24 80.45 23.9485 79.7712 23.8455C79.0924 23.7364 78.4591 23.5788 77.8712 23.3727C77.2712 23.5788 76.6137 23.7364 75.8985 23.8455C75.1894 23.9485 74.4258 24 73.6076 24H72.4894C71.5682 24 70.7137 23.9939 69.9258 23.9818C69.144 23.9636 68.4288 23.9121 67.7803 23.8273C67.1379 23.7364 66.5682 23.597 66.0712 23.4091C65.5803 23.2212 65.1652 22.9515 64.8258 22.6C64.5834 22.3455 64.4015 22.0515 64.2803 21.7182C64.1652 21.3788 64.1076 21 64.1076 20.5818C64.1076 20.2848 64.1349 19.9667 64.1894 19.6273C64.244 19.2818 64.3015 18.9606 64.3621 18.6636C64.4288 18.3606 64.4894 18.1061 64.544 17.9C64.5985 17.6939 64.6288 17.5818 64.6349 17.5636L65.7076 17.8727C65.7076 17.8788 65.6955 17.9242 65.6712 18.0091C65.647 18.0939 65.6167 18.2091 65.5803 18.3545C65.544 18.5 65.5046 18.6667 65.4621 18.8545C65.4258 19.0364 65.3894 19.2273 65.3531 19.4273C65.3167 19.6273 65.2864 19.8273 65.2621 20.0273C65.2379 20.2273 65.2258 20.4121 65.2258 20.5818C65.2258 21.1576 65.3955 21.603 65.7349 21.9182C66.0803 22.2273 66.5682 22.4545 67.1985 22.6C67.8288 22.7394 68.5894 22.8212 69.4803 22.8455C70.3773 22.8697 71.3803 22.8818 72.4894 22.8818H73.6076ZM77.8712 22.1818C77.9985 22.1333 78.1197 22.0818 78.2349 22.0273C78.3561 21.9727 78.4712 21.9121 78.5803 21.8455C78.7621 21.7424 78.947 21.6212 79.1349 21.4818C79.3228 21.3364 79.4924 21.1727 79.644 20.9909C79.8015 20.8091 79.9288 20.603 80.0258 20.3727C80.1228 20.1424 80.1712 19.8909 80.1712 19.6182C80.1712 19.3273 80.1197 19.0394 80.0167 18.7545C79.9137 18.4697 79.7652 18.2152 79.5712 17.9909C79.3773 17.7667 79.1409 17.5848 78.8621 17.4455C78.5894 17.3061 78.2773 17.2364 77.9258 17.2364C77.5561 17.2364 77.2228 17.2939 76.9258 17.4091C76.6288 17.5182 76.3743 17.6788 76.1621 17.8909C75.95 18.097 75.7864 18.3455 75.6712 18.6364C75.5561 18.9273 75.4985 19.2545 75.4985 19.6182C75.4985 19.9091 75.5531 20.1727 75.6621 20.4091C75.7773 20.6455 75.9228 20.8606 76.0985 21.0545C76.2803 21.2485 76.4773 21.4182 76.6894 21.5636C76.9076 21.7091 77.1228 21.8364 77.3349 21.9455C77.4197 21.9879 77.5046 22.0303 77.5894 22.0727C77.6803 22.1091 77.7743 22.1455 77.8712 22.1818ZM76.6894 12.4818L77.8531 11.3L79.0531 12.5L77.8712 13.6818L76.6894 12.4818ZM98.1735 24C97.8887 24 97.6099 23.9788 97.3371 23.9364C97.0705 23.8879 96.819 23.8152 96.5826 23.7182C96.3462 23.6212 96.1311 23.4939 95.9371 23.3364C95.7432 23.1788 95.5826 22.9909 95.4553 22.7727C95.3887 22.8697 95.319 22.9576 95.2462 23.0364C95.1735 23.1091 95.1038 23.1758 95.0371 23.2364C94.7584 23.4848 94.4493 23.6758 94.1099 23.8091C93.7705 23.9364 93.4038 24 93.0099 24C92.6947 24 92.4099 23.9758 92.1553 23.9273C91.9068 23.8727 91.6796 23.797 91.4735 23.7C91.2735 23.597 91.0856 23.4697 90.9099 23.3182C90.7402 23.1606 90.5796 22.9788 90.4281 22.7727C90.1371 23.1667 89.7796 23.4697 89.3553 23.6818C88.9371 23.8939 88.4765 24 87.9735 24C87.4281 24 86.9674 23.9242 86.5917 23.7727C86.222 23.6212 85.8887 23.397 85.5917 23.1C85.5432 23.0515 85.4978 23 85.4553 22.9455C85.4129 22.8909 85.3705 22.8333 85.3281 22.7727C85.2614 22.8697 85.1917 22.9576 85.119 23.0364C85.0462 23.1091 84.9765 23.1758 84.9099 23.2364C84.6311 23.4848 84.3129 23.6758 83.9553 23.8091C83.6038 23.9364 83.2311 24 82.8371 24H82.0553V22.8818H82.9462C83.1705 22.8818 83.3947 22.8455 83.619 22.7727C83.8493 22.7 84.0584 22.5848 84.2462 22.4273C84.4341 22.2697 84.5856 22.0636 84.7008 21.8091C84.822 21.5485 84.8826 21.2303 84.8826 20.8545V17.8636H86.0008V20.8545C86.0008 21.5212 86.1553 22.0242 86.4644 22.3636C86.7796 22.703 87.2978 22.8758 88.019 22.8818C88.2432 22.8818 88.4644 22.8455 88.6826 22.7727C88.9068 22.7 89.1068 22.5848 89.2826 22.4273C89.4584 22.2697 89.6008 22.0636 89.7099 21.8091C89.819 21.5485 89.8735 21.2303 89.8735 20.8545V17.8636H90.9917V20.8545C90.9917 21.5212 91.1493 22.0242 91.4644 22.3636C91.7796 22.703 92.2978 22.8758 93.019 22.8818C93.2432 22.8818 93.4674 22.8455 93.6917 22.7727C93.9159 22.7 94.1159 22.5848 94.2917 22.4273C94.4735 22.2697 94.619 22.0636 94.7281 21.8091C94.8432 21.5485 94.9008 21.2303 94.9008 20.8545V17.8636H96.019V20.8545C96.019 22.1879 96.7402 22.8636 98.1826 22.8818H98.6644V24H98.1735ZM89.6462 14.1636L88.519 15.3L87.3917 14.1818L88.5281 13.0364L89.6462 14.1636ZM93.3099 14.1364L92.1826 15.2636L91.0371 14.1364L92.1735 13L93.3099 14.1364ZM91.5099 11.6636L90.3826 12.7909L89.2371 11.6636L90.3735 10.5273L91.5099 11.6636ZM108.975 10.7273L101.348 14.0818C101.748 14.4212 102.284 14.903 102.957 15.5273C103.63 16.1455 104.4 16.9152 105.266 17.8364C106.03 18.6424 106.551 19.4273 106.83 20.1909C106.975 20.5909 107.051 20.9758 107.057 21.3455C107.063 21.7091 107 22.0455 106.866 22.3545C106.8 22.5061 106.694 22.6788 106.548 22.8727C106.409 23.0606 106.206 23.2394 105.939 23.4091C105.678 23.5727 105.348 23.7121 104.948 23.8273C104.548 23.9424 104.057 24 103.475 24H98.3026V22.8818H103.475C104.16 22.8818 104.712 22.7818 105.13 22.5818C105.487 22.4121 105.724 22.1879 105.839 21.9091C106.009 21.5152 105.969 21.0273 105.721 20.4455C105.478 19.8636 105.054 19.2485 104.448 18.6C103.8 17.9091 103.2 17.303 102.648 16.7818C102.103 16.2545 101.63 15.8152 101.23 15.4636C100.83 15.1061 100.518 14.8364 100.294 14.6545C100.069 14.4727 99.9541 14.3818 99.9481 14.3818L100.066 13.4273L108.521 9.7L108.975 10.7273Z" fill="black"/>
<path d="M9.6896 38.3127V42.2727C9.6896 43.0982 9.49869 43.7309 9.11688 44.1709C8.99688 44.3091 8.85869 44.4291 8.70233 44.5309C8.5496 44.6364 8.37869 44.7236 8.1896 44.7927C7.80051 44.9382 7.32778 45.0109 6.77142 45.0109H5.4896C4.96597 45.0109 4.4896 44.8945 4.06051 44.6618C3.63142 44.4327 3.28233 44.1055 3.01324 43.68C2.82778 43.3855 2.69142 43.0545 2.60415 42.6873C2.51688 42.32 2.48233 41.9273 2.50051 41.5091C2.51869 41.0582 2.59688 40.6 2.73506 40.1345C2.87687 39.6691 3.07506 39.1709 3.3296 38.64L3.93506 38.9291C3.71688 39.3836 3.54415 39.82 3.41688 40.2382C3.29324 40.6527 3.21687 41.0455 3.18778 41.4164C3.15869 41.7873 3.17506 42.1327 3.23687 42.4527C3.30233 42.7764 3.41688 43.0673 3.58051 43.3255C3.78778 43.6491 4.05506 43.8982 4.38233 44.0727C4.71324 44.2509 5.08233 44.34 5.4896 44.34H6.77142C7.64778 44.34 8.26051 44.1382 8.6096 43.7345C8.88233 43.4182 9.01869 42.9309 9.01869 42.2727V38.3127H9.6896ZM5.7896 37.8818L6.48778 37.1727L7.20778 37.8927L6.49869 38.6018L5.7896 37.8818ZM13.2512 42C12.8184 42 12.4712 41.9491 12.2093 41.8473C11.9512 41.7455 11.753 41.5945 11.6148 41.3945C11.4766 41.1945 11.3857 40.9491 11.3421 40.6582C11.2984 40.3636 11.2766 40.0255 11.2766 39.6436V34.2164H11.9584V39.6436C11.9584 39.9818 11.9693 40.26 11.9912 40.4782C12.013 40.6964 12.0675 40.8691 12.1548 40.9964C12.2421 41.12 12.3712 41.2073 12.5421 41.2582C12.7166 41.3055 12.953 41.3291 13.2512 41.3291H13.3275V42H13.2512ZM22.7697 42C22.5988 42 22.4315 41.9873 22.2679 41.9618C22.1079 41.9327 21.957 41.8891 21.8152 41.8309C21.6734 41.7727 21.5443 41.6964 21.4279 41.6018C21.3115 41.5073 21.2152 41.3945 21.1388 41.2636C21.0988 41.3218 21.057 41.3745 21.0134 41.4218C20.9697 41.4655 20.9279 41.5055 20.8879 41.5418C20.7206 41.6909 20.5352 41.8055 20.3315 41.8855C20.1279 41.9618 19.9079 42 19.6715 42C19.4825 42 19.3115 41.9855 19.1588 41.9564C19.0097 41.9236 18.8734 41.8782 18.7497 41.82C18.6297 41.7582 18.517 41.6818 18.4115 41.5909C18.3097 41.4964 18.2134 41.3873 18.1225 41.2636C17.9479 41.5 17.7334 41.6818 17.4788 41.8091C17.2279 41.9364 16.9515 42 16.6497 42C16.3225 42 16.0461 41.9545 15.8206 41.8636C15.5988 41.7727 15.3988 41.6382 15.2206 41.46C15.1915 41.4309 15.1643 41.4 15.1388 41.3673C15.1134 41.3345 15.0879 41.3 15.0625 41.2636C15.0225 41.3218 14.9806 41.3745 14.937 41.4218C14.8934 41.4655 14.8515 41.5055 14.8115 41.5418C14.6443 41.6909 14.4534 41.8055 14.2388 41.8855C14.0279 41.9618 13.8043 42 13.5679 42H13.0988V41.3291H13.6334C13.7679 41.3291 13.9025 41.3073 14.037 41.2636C14.1752 41.22 14.3006 41.1509 14.4134 41.0564C14.5261 40.9618 14.617 40.8382 14.6861 40.6855C14.7588 40.5291 14.7952 40.3382 14.7952 40.1127V38.3182H15.4661V40.1127C15.4661 40.5127 15.5588 40.8145 15.7443 41.0182C15.9334 41.2218 16.2443 41.3255 16.677 41.3291C16.8115 41.3291 16.9443 41.3073 17.0752 41.2636C17.2097 41.22 17.3297 41.1509 17.4352 41.0564C17.5406 40.9618 17.6261 40.8382 17.6915 40.6855C17.757 40.5291 17.7897 40.3382 17.7897 40.1127V38.3182H18.4606V40.1127C18.4606 40.5127 18.5552 40.8145 18.7443 41.0182C18.9334 41.2218 19.2443 41.3255 19.677 41.3291C19.8115 41.3291 19.9461 41.3073 20.0806 41.2636C20.2152 41.22 20.3352 41.1509 20.4406 41.0564C20.5497 40.9618 20.637 40.8382 20.7025 40.6855C20.7715 40.5291 20.8061 40.3382 20.8061 40.1127V38.3182H21.477V40.1127C21.477 40.9127 21.9097 41.3182 22.7752 41.3291H23.0643V42H22.7697ZM26.4502 37.6145C26.4866 37.7709 26.5266 37.9436 26.5702 38.1327C26.6139 38.3218 26.652 38.5182 26.6848 38.7218C26.7211 38.9218 26.752 39.1255 26.7775 39.3327C26.803 39.54 26.8193 39.7382 26.8266 39.9273C26.8302 40.1855 26.792 40.44 26.712 40.6909C26.6357 40.9382 26.523 41.16 26.3739 41.3564C26.2248 41.5491 26.0411 41.7055 25.823 41.8255C25.6084 41.9418 25.3666 42 25.0975 42H22.8339V41.3291H25.0975C25.272 41.3182 25.4248 41.2727 25.5557 41.1927C25.6902 41.1127 25.8011 41.0091 25.8884 40.8818C25.9793 40.7509 26.0466 40.6055 26.0902 40.4455C26.1375 40.2818 26.1593 40.1145 26.1557 39.9436C26.152 39.7691 26.1375 39.5873 26.112 39.3982C26.0902 39.2091 26.0611 39.0218 26.0248 38.8364C25.992 38.6509 25.9557 38.4709 25.9157 38.2964C25.8757 38.1218 25.8375 37.96 25.8011 37.8109L26.4502 37.6145ZM26.2157 44.7709L25.5393 44.0891L26.2048 43.4127L26.892 44.0945L26.2157 44.7709ZM23.9902 44.76L23.3139 44.0782L23.9793 43.4018L24.6666 44.0836L23.9902 44.76ZM32.203 41.3291V39.9709C32.1958 39.6836 32.1685 39.4182 32.1212 39.1745C32.0776 38.9273 32.0012 38.7145 31.8921 38.5364C31.783 38.3545 31.6376 38.2145 31.4558 38.1164C31.2739 38.0145 31.0412 37.9636 30.7576 37.9636C30.4776 37.9636 30.2448 38.0145 30.0594 38.1164C29.8739 38.2182 29.7248 38.36 29.6121 38.5418C29.503 38.72 29.4248 38.9327 29.3776 39.18C29.3339 39.4236 29.3121 39.6873 29.3121 39.9709C29.3121 40.2218 29.3558 40.4345 29.443 40.6091C29.5303 40.78 29.6521 40.92 29.8085 41.0291C29.9648 41.1345 30.1467 41.2109 30.3539 41.2582C30.5648 41.3055 30.7939 41.3291 31.0412 41.3291H32.203ZM30.7576 37.2927C31.1321 37.3073 31.4539 37.3818 31.723 37.5164C31.9921 37.6509 32.2103 37.8364 32.3776 38.0727C32.5485 38.3055 32.6739 38.5836 32.7539 38.9073C32.8339 39.2273 32.8739 39.5818 32.8739 39.9709V41.3291H33.8012V42H32.8739C32.8848 42.52 32.8048 42.9691 32.6339 43.3473C32.463 43.7255 32.2194 44.0382 31.903 44.2855C31.5867 44.5327 31.2085 44.7145 30.7685 44.8309C30.3321 44.9509 29.8539 45.0109 29.3339 45.0109H29.023V44.34H29.3339C29.7739 44.3291 30.1685 44.2855 30.5176 44.2091C30.8703 44.1327 31.1703 44.0055 31.4176 43.8273C31.6648 43.6491 31.8558 43.4109 31.9903 43.1127C32.1248 42.8182 32.1958 42.4473 32.203 42H31.0412C30.703 42.0073 30.3885 41.9691 30.0976 41.8855C29.8067 41.8018 29.5521 41.6764 29.3339 41.5091C29.1194 41.3382 28.9503 41.1255 28.8267 40.8709C28.703 40.6127 28.6412 40.3127 28.6412 39.9709C28.6412 39.5855 28.6794 39.2327 28.7558 38.9127C28.8358 38.5891 28.9594 38.3109 29.1267 38.0782C29.2976 37.8418 29.5158 37.6564 29.7812 37.5218C30.0503 37.3836 30.3758 37.3073 30.7576 37.2927ZM36.3492 37.6145C36.3856 37.7709 36.4256 37.9436 36.4692 38.1327C36.5129 38.3218 36.5511 38.5182 36.5838 38.7218C36.6202 38.9218 36.6511 39.1255 36.6765 39.3327C36.702 39.54 36.7183 39.7382 36.7256 39.9273C36.7292 40.1855 36.6911 40.44 36.6111 40.6909C36.5347 40.9382 36.422 41.16 36.2729 41.3564C36.1238 41.5491 35.9402 41.7055 35.722 41.8255C35.5074 41.9418 35.2656 42 34.9965 42H33.5783V41.3291H34.9965C35.1711 41.3182 35.3238 41.2727 35.4547 41.1927C35.5892 41.1127 35.7002 41.0091 35.7874 40.8818C35.8783 40.7509 35.9456 40.6055 35.9892 40.4455C36.0365 40.2818 36.0583 40.1145 36.0547 39.9436C36.0511 39.7691 36.0365 39.5873 36.0111 39.3982C35.9892 39.2091 35.9602 39.0218 35.9238 38.8364C35.8911 38.6509 35.8547 38.4709 35.8147 38.2964C35.7747 38.1218 35.7365 37.96 35.7002 37.8109L36.3492 37.6145ZM34.9147 35.3073L35.6129 34.5982L36.3329 35.3182L35.6238 36.0273L34.9147 35.3073ZM48.188 42H48.0789C47.7917 42 47.5226 41.9655 47.2717 41.8964C47.0244 41.8273 46.7917 41.7255 46.5735 41.5909C46.3226 41.4309 46.1062 41.2309 45.9244 40.9909C45.8444 40.8855 45.7735 40.7709 45.7117 40.6473C45.6499 40.5236 45.5953 40.3927 45.548 40.2545C45.4353 40.4836 45.2935 40.6927 45.1226 40.8818C44.9553 41.0673 44.748 41.2073 44.5008 41.3018C44.1844 41.4291 43.868 41.4873 43.5517 41.4764C43.2389 41.4655 42.9535 41.3982 42.6953 41.2745C42.4371 41.1473 42.2153 40.9691 42.0299 40.74C41.848 40.5109 41.7299 40.2418 41.6753 39.9327C41.6135 39.5582 41.6462 39.2018 41.7735 38.8636C41.9044 38.5255 42.1062 38.2218 42.3789 37.9527C42.6408 37.6909 42.9644 37.46 43.3499 37.26C43.7353 37.06 44.1735 36.8945 44.6644 36.7636L44.5171 36.0327L45.1826 35.8473C45.288 36.2982 45.3789 36.6927 45.4553 37.0309C45.5353 37.3691 45.6062 37.6709 45.668 37.9364C45.7117 38.1218 45.7517 38.2982 45.788 38.4655C45.8244 38.6291 45.8608 38.7909 45.8971 38.9509C45.9371 39.1073 45.9771 39.2636 46.0171 39.42C46.0571 39.5764 46.1008 39.7418 46.148 39.9164C46.2062 40.1309 46.2826 40.3145 46.3771 40.4673C46.4717 40.6164 46.5771 40.7436 46.6935 40.8491C46.8135 40.9545 46.9371 41.04 47.0644 41.1055C47.1917 41.1673 47.3171 41.2145 47.4408 41.2473C47.568 41.28 47.6862 41.3018 47.7953 41.3127C47.9044 41.3236 47.9989 41.3291 48.0789 41.3291H48.188V42ZM44.8553 37.4018C44.4262 37.5182 44.0444 37.6618 43.7099 37.8327C43.3789 38 43.1026 38.1891 42.8808 38.4C42.6626 38.6073 42.5062 38.8309 42.4117 39.0709C42.3171 39.3109 42.2917 39.5582 42.3353 39.8127C42.3717 40.02 42.4589 40.1982 42.5971 40.3473C42.7353 40.4964 42.8971 40.6109 43.0826 40.6909C43.268 40.7673 43.4608 40.8073 43.6608 40.8109C43.8644 40.8145 44.0462 40.7782 44.2062 40.7018C44.4135 40.6 44.5808 40.4782 44.708 40.3364C44.8353 40.1909 44.9335 40.04 45.0026 39.8836C45.0717 39.7273 45.1171 39.5727 45.1389 39.42C45.1608 39.2636 45.1699 39.1236 45.1662 39C45.1662 38.8764 45.1589 38.7764 45.1444 38.7C45.1335 38.62 45.128 38.5782 45.128 38.5745C45.088 38.4 45.0535 38.2527 45.0244 38.1327C44.9989 38.0127 44.9753 37.9091 44.9535 37.8218C44.9353 37.7345 44.9171 37.6582 44.8989 37.5927C44.8844 37.5273 44.8699 37.4636 44.8553 37.4018ZM51.932 41.5855C52.0447 41.5855 52.1574 41.5564 52.2702 41.4982C52.3865 41.44 52.4884 41.3455 52.5756 41.2145C52.6665 41.0836 52.7393 40.9127 52.7938 40.7018C52.852 40.4873 52.8811 40.2273 52.8811 39.9218C52.8811 39.7036 52.8447 39.4836 52.772 39.2618C52.7029 39.0364 52.6047 38.8364 52.4774 38.6618C52.4411 38.6109 52.3938 38.5545 52.3356 38.4927C52.2811 38.4309 52.2156 38.3727 52.1393 38.3182C52.0629 38.2636 51.9774 38.2182 51.8829 38.1818C51.7884 38.1418 51.6865 38.1218 51.5774 38.1218C51.3411 38.1218 51.1429 38.1655 50.9829 38.2527C50.8229 38.3364 50.6865 38.4582 50.5738 38.6182C50.4647 38.7782 50.3702 38.9745 50.2902 39.2073C50.2102 39.4364 50.1302 39.6964 50.0502 39.9873C50.0138 40.1218 49.9774 40.2527 49.9411 40.38C49.9047 40.5073 49.8647 40.6309 49.8211 40.7509C50.0538 40.8673 50.2702 40.9782 50.4702 41.0836C50.6702 41.1891 50.8556 41.28 51.0265 41.3564C51.1974 41.4327 51.3574 41.4927 51.5065 41.5364C51.6556 41.5764 51.7974 41.5927 51.932 41.5855ZM51.5774 37.4509C51.8538 37.4509 52.1138 37.5218 52.3574 37.6636C52.6047 37.8018 52.8247 38.0036 53.0174 38.2691C53.1884 38.5018 53.3193 38.7618 53.4102 39.0491C53.5047 39.3364 53.552 39.6273 53.552 39.9218C53.552 40.1109 53.5393 40.3 53.5138 40.4891C53.4884 40.6745 53.4484 40.8545 53.3938 41.0291C53.3429 41.2036 53.2738 41.3655 53.1865 41.5145C53.1029 41.6636 53.0011 41.7927 52.8811 41.9018C52.7611 42.0109 52.6229 42.0964 52.4665 42.1582C52.3102 42.2236 52.132 42.2564 51.932 42.2564C51.7502 42.2564 51.572 42.2327 51.3974 42.1855C51.2229 42.1418 51.0393 42.08 50.8465 42C50.6574 41.92 50.4556 41.8255 50.2411 41.7164C50.0265 41.6073 49.7902 41.4873 49.532 41.3564C49.252 41.7855 48.8629 42 48.3647 42H47.8793V41.3291H48.3593H48.3647C48.5065 41.3291 48.6265 41.3 48.7247 41.2418C48.8265 41.18 48.9174 41.0818 48.9974 40.9473C49.0847 40.8055 49.1593 40.6364 49.2211 40.44C49.2829 40.24 49.3447 40.0309 49.4065 39.8127C49.4793 39.5436 49.5574 39.2764 49.6411 39.0109C49.7284 38.7455 49.8484 38.5 50.0011 38.2745C50.3756 37.7255 50.9011 37.4509 51.5774 37.4509ZM57.1262 42C56.6934 42 56.3462 41.9491 56.0843 41.8473C55.8262 41.7455 55.628 41.5945 55.4898 41.3945C55.3516 41.1945 55.2607 40.9491 55.2171 40.6582C55.1734 40.3636 55.1516 40.0255 55.1516 39.6436V34.2164H55.8334V39.6436C55.8334 39.9818 55.8443 40.26 55.8662 40.4782C55.888 40.6964 55.9425 40.8691 56.0298 40.9964C56.1171 41.12 56.2462 41.2073 56.4171 41.2582C56.5916 41.3055 56.828 41.3291 57.1262 41.3291H57.2025V42H57.1262ZM59.8102 37.6145C59.8465 37.7709 59.8865 37.9436 59.9302 38.1327C59.9738 38.3218 60.012 38.5182 60.0447 38.7218C60.0811 38.9218 60.112 39.1255 60.1375 39.3327C60.1629 39.54 60.1793 39.7382 60.1865 39.9273C60.1902 40.1855 60.152 40.44 60.072 40.6909C59.9956 40.9382 59.8829 41.16 59.7338 41.3564C59.5847 41.5491 59.4011 41.7055 59.1829 41.8255C58.9684 41.9418 58.7265 42 58.4575 42H57.0393V41.3291H58.4575C58.632 41.3182 58.7847 41.2727 58.9156 41.1927C59.0502 41.1127 59.1611 41.0091 59.2484 40.8818C59.3393 40.7509 59.4065 40.6055 59.4502 40.4455C59.4975 40.2818 59.5193 40.1145 59.5156 39.9436C59.512 39.7691 59.4975 39.5873 59.472 39.3982C59.4502 39.2091 59.4211 39.0218 59.3847 38.8364C59.352 38.6509 59.3156 38.4709 59.2756 38.2964C59.2356 38.1218 59.1975 37.96 59.1611 37.8109L59.8102 37.6145ZM58.3756 35.3073L59.0738 34.5982L59.7938 35.3182L59.0847 36.0273L58.3756 35.3073ZM65.0759 42H64.825C64.5995 42 64.385 41.9691 64.1813 41.9073C63.9813 41.8455 63.7995 41.7564 63.6359 41.64V41.82C63.6359 42.8745 63.374 43.6709 62.8504 44.2091C62.3304 44.7473 61.5613 45.0164 60.5431 45.0164H59.785V44.3509H60.5431C61.3977 44.3509 62.0231 44.1273 62.4195 43.68C62.7831 43.2655 62.965 42.6455 62.965 41.82V40.3145V38.3182H63.6359V40.2709C63.6359 40.4673 63.6722 40.6327 63.745 40.7673C63.8177 40.9018 63.9104 41.0109 64.0231 41.0945C64.1395 41.1782 64.2668 41.2382 64.405 41.2745C64.5468 41.3109 64.6868 41.3291 64.825 41.3291H65.0759V42ZM67.5094 37.6145C67.5458 37.7709 67.5858 37.9436 67.6294 38.1327C67.673 38.3218 67.7112 38.5182 67.7439 38.7218C67.7803 38.9218 67.8112 39.1255 67.8367 39.3327C67.8621 39.54 67.8785 39.7382 67.8858 39.9273C67.8894 40.1855 67.8512 40.44 67.7712 40.6909C67.6949 40.9382 67.5821 41.16 67.433 41.3564C67.2839 41.5491 67.1003 41.7055 66.8821 41.8255C66.6676 41.9418 66.4258 42 66.1567 42H64.7385V41.3291H66.1567C66.3312 41.3182 66.4839 41.2727 66.6149 41.1927C66.7494 41.1127 66.8603 41.0091 66.9476 40.8818C67.0385 40.7509 67.1058 40.6055 67.1494 40.4455C67.1967 40.2818 67.2185 40.1145 67.2149 39.9436C67.2112 39.7691 67.1967 39.5873 67.1712 39.3982C67.1494 39.2091 67.1203 39.0218 67.0839 38.8364C67.0512 38.6509 67.0149 38.4709 66.9749 38.2964C66.9349 38.1218 66.8967 37.96 66.8603 37.8109L67.5094 37.6145ZM66.0639 43.98L66.6858 43.3527L67.3294 43.9909L66.6967 44.6236L66.0639 43.98ZM79.8339 37.2491C80.012 37.2491 80.1902 37.2618 80.3684 37.2873C80.5502 37.3127 80.7339 37.3527 80.9193 37.4073L80.7339 38.0509C80.4284 37.9636 80.1302 37.92 79.8393 37.92C79.4866 37.92 79.1539 37.98 78.8411 38.1C78.532 38.22 78.2575 38.3982 78.0175 38.6345C77.7339 38.9109 77.5339 39.2364 77.4175 39.6109C77.3048 39.9855 77.2848 40.3709 77.3575 40.7673C77.4157 40.7855 77.5084 40.8127 77.6357 40.8491C77.7666 40.8818 77.9157 40.92 78.083 40.9636C78.2502 41.0073 78.4266 41.0545 78.612 41.1055C78.8011 41.1564 78.983 41.2055 79.1575 41.2527C79.3357 41.3 79.4975 41.3436 79.643 41.3836C79.7884 41.4236 79.9048 41.4545 79.992 41.4764C80.1375 41.5164 80.252 41.5636 80.3357 41.6182C80.423 41.6727 80.4866 41.7327 80.5266 41.7982C80.5666 41.8636 80.592 41.9345 80.603 42.0109C80.6139 42.0873 80.6193 42.1673 80.6193 42.2509C80.6193 42.3745 80.6102 42.5164 80.592 42.6764C80.5739 42.8364 80.543 43 80.4993 43.1673C80.4593 43.3382 80.403 43.5036 80.3302 43.6636C80.2611 43.8273 80.1739 43.9727 80.0684 44.1C79.923 44.2782 79.763 44.4255 79.5884 44.5418C79.4175 44.6582 79.232 44.7509 79.032 44.82C78.8357 44.8891 78.6266 44.9364 78.4048 44.9618C78.1866 44.9909 77.9557 45.0055 77.712 45.0055H76.3648C76.1066 45.0091 75.8557 44.98 75.612 44.9182C75.3684 44.86 75.1375 44.7709 74.9193 44.6509C74.7011 44.5345 74.4993 44.3909 74.3139 44.22C74.132 44.0527 73.972 43.86 73.8339 43.6418C73.6339 43.3218 73.492 42.98 73.4084 42.6164C73.3284 42.2527 73.2975 41.8782 73.3157 41.4927C73.3484 40.5945 73.6175 39.6218 74.123 38.5745L74.7284 38.8636C74.5102 39.3145 74.3393 39.7509 74.2157 40.1727C74.0957 40.5909 74.0211 40.9873 73.992 41.3618C73.9666 41.7364 73.9866 42.0855 74.052 42.4091C74.1211 42.7327 74.2375 43.0255 74.4011 43.2873C74.612 43.6218 74.8866 43.88 75.2248 44.0618C75.5666 44.2436 75.9466 44.3345 76.3648 44.3345H77.712C78.1593 44.3345 78.5266 44.2818 78.8139 44.1764C79.1011 44.0709 79.3375 43.9164 79.523 43.7127C79.6139 43.6145 79.6884 43.5 79.7466 43.3691C79.8084 43.2418 79.8557 43.1073 79.8884 42.9655C79.9248 42.8273 79.9466 42.6873 79.9539 42.5455C79.9648 42.4073 79.9648 42.2782 79.9539 42.1582L76.7957 41.3073L76.7466 41.1218C76.6739 40.8491 76.6375 40.5782 76.6375 40.3091C76.6411 40.0364 76.6775 39.7727 76.7466 39.5182C76.8157 39.2636 76.9175 39.0218 77.052 38.7927C77.1866 38.56 77.352 38.3473 77.5484 38.1545C77.6975 38.0091 77.8593 37.88 78.0339 37.7673C78.212 37.6509 78.3993 37.5545 78.5957 37.4782C78.792 37.4018 78.9939 37.3436 79.2011 37.3036C79.412 37.2636 79.623 37.2455 79.8339 37.2491ZM84.5012 42C84.0684 42 83.7212 41.9491 83.4593 41.8473C83.2012 41.7455 83.003 41.5945 82.8648 41.3945C82.7266 41.1945 82.6357 40.9491 82.5921 40.6582C82.5484 40.3636 82.5266 40.0255 82.5266 39.6436V34.2164H83.2084V39.6436C83.2084 39.9818 83.2193 40.26 83.2412 40.4782C83.263 40.6964 83.3175 40.8691 83.4048 40.9964C83.4921 41.12 83.6212 41.2073 83.7921 41.2582C83.9666 41.3055 84.203 41.3291 84.5012 41.3291H84.5775V42H84.5012ZM90.9543 42C90.6779 42 90.4397 41.9673 90.2397 41.9018C90.0434 41.8327 89.8688 41.7291 89.7161 41.5909C89.6434 41.5291 89.5797 41.46 89.5252 41.3836C89.4634 41.5145 89.3852 41.6345 89.2906 41.7436C89.1997 41.8491 89.0961 41.94 88.9797 42.0164C88.8634 42.0927 88.7397 42.1509 88.6088 42.1909C88.4779 42.2345 88.3434 42.2564 88.2052 42.2564C88.027 42.2564 87.8488 42.2345 87.6706 42.1909C87.4925 42.1473 87.307 42.0855 87.1143 42.0055C86.9215 41.9291 86.7179 41.8364 86.5034 41.7273C86.2888 41.6145 86.0561 41.4909 85.8052 41.3564C85.5179 41.7855 85.127 42 84.6325 42H84.3652V41.3291H84.6325C84.7743 41.3291 84.8943 41.3 84.9925 41.2418C85.0943 41.18 85.187 41.0818 85.2706 40.9473C85.3579 40.8055 85.4306 40.6364 85.4888 40.44C85.5506 40.24 85.6125 40.0309 85.6743 39.8127C85.7106 39.6782 85.747 39.5436 85.7834 39.4091C85.8234 39.2745 85.867 39.1418 85.9143 39.0109C85.9615 38.88 86.0125 38.7527 86.067 38.6291C86.1252 38.5055 86.1925 38.3873 86.2688 38.2745C86.6397 37.7255 87.167 37.4509 87.8506 37.4509C88.1234 37.4509 88.3834 37.5218 88.6306 37.6636C88.8779 37.8018 89.0961 38.0036 89.2852 38.2691C89.4597 38.5018 89.5925 38.7618 89.6834 39.0491C89.7743 39.3364 89.8197 39.6273 89.8197 39.9218C89.8197 40.4927 89.9361 40.8855 90.1688 41.1C90.2561 41.18 90.3597 41.2382 90.4797 41.2745C90.6034 41.3109 90.7615 41.3291 90.9543 41.3291H91.0688V42H90.9543ZM88.2052 41.5855C88.3179 41.5855 88.4306 41.5564 88.5434 41.4982C88.6561 41.44 88.7579 41.3455 88.8488 41.2145C88.9397 41.0836 89.0125 40.9127 89.067 40.7018C89.1215 40.4873 89.1488 40.2273 89.1488 39.9218C89.1488 39.7036 89.1125 39.4836 89.0397 39.2618C88.9706 39.0364 88.8725 38.8364 88.7452 38.6618C88.7088 38.6109 88.6615 38.5545 88.6034 38.4927C88.5488 38.4309 88.4834 38.3727 88.407 38.3182C88.3306 38.2636 88.2452 38.2182 88.1506 38.1818C88.0597 38.1418 87.9597 38.1218 87.8506 38.1218C87.6106 38.1218 87.4106 38.1655 87.2506 38.2527C87.0906 38.3364 86.9543 38.4582 86.8415 38.6182C86.7325 38.7782 86.6379 38.9745 86.5579 39.2073C86.4779 39.4364 86.3997 39.6964 86.3234 39.9873C86.2834 40.1218 86.2452 40.2527 86.2088 40.38C86.1725 40.5073 86.1343 40.6309 86.0943 40.7509C86.327 40.8745 86.5415 40.9891 86.7379 41.0945C86.9379 41.1964 87.1234 41.2855 87.2943 41.3618C87.4688 41.4345 87.6306 41.4909 87.7797 41.5309C87.9325 41.5709 88.0743 41.5891 88.2052 41.5855ZM95.4095 41.3291V42H95.0277C94.784 42 94.5531 41.9636 94.3349 41.8909C94.1168 41.8182 93.9259 41.7145 93.7622 41.58C93.664 41.5 93.5822 41.4164 93.5168 41.3291C93.3313 41.5618 93.0986 41.7309 92.8186 41.8364C92.5386 41.9418 92.1986 41.9964 91.7986 42H90.7731V41.3291H91.7986C92.0131 41.3218 92.204 41.3018 92.3713 41.2691C92.5386 41.2364 92.6804 41.18 92.7968 41.1C92.9131 41.02 93.0022 40.9145 93.064 40.7836C93.1295 40.6491 93.1659 40.4782 93.1731 40.2709V38.3127H93.844V40.2709C93.844 40.4673 93.8804 40.6327 93.9531 40.7673C94.0259 40.9018 94.1186 41.0109 94.2313 41.0945C94.344 41.1782 94.4695 41.2382 94.6077 41.2745C94.7495 41.3109 94.8895 41.3291 95.0277 41.3291H95.4095ZM92.464 35.7982L93.1622 35.0891L93.8822 35.8091L93.1731 36.5182L92.464 35.7982ZM98.7341 40.9582C98.9014 40.8964 99.0614 40.8182 99.2141 40.7236C99.3705 40.6255 99.505 40.5109 99.6178 40.38C99.7341 40.2491 99.8268 40.1 99.8959 39.9327C99.965 39.7655 99.9996 39.58 99.9996 39.3764C99.9996 39.1655 99.9614 38.9727 99.885 38.7982C99.8123 38.6236 99.7159 38.4745 99.5959 38.3509C99.4759 38.2273 99.3396 38.1327 99.1868 38.0673C99.0378 37.9982 98.8868 37.9636 98.7341 37.9636C98.4723 37.9636 98.2523 38.0036 98.0741 38.0836C97.8959 38.16 97.7505 38.2618 97.6378 38.3891C97.525 38.5127 97.4432 38.6545 97.3923 38.8145C97.345 38.9745 97.3214 39.1345 97.3214 39.2945C97.3214 39.5309 97.3687 39.7418 97.4632 39.9273C97.5614 40.1091 97.7141 40.2836 97.9214 40.4509C98.0341 40.5418 98.1578 40.6291 98.2923 40.7127C98.4305 40.7927 98.5778 40.8745 98.7341 40.9582ZM100.01 36.3818C100.301 36.6909 100.572 36.9782 100.823 37.2436C101.074 37.5091 101.303 37.76 101.51 37.9964C101.718 38.2291 101.901 38.4491 102.061 38.6564C102.225 38.86 102.365 39.0545 102.481 39.24C102.598 39.4291 102.692 39.6127 102.765 39.7909C102.838 39.9691 102.885 40.1473 102.907 40.3255C102.929 40.5 102.921 40.6782 102.885 40.86C102.849 41.0382 102.78 41.2236 102.678 41.4164C102.598 41.5691 102.492 41.7055 102.361 41.8255C102.23 41.9418 102.083 42.04 101.92 42.12C101.76 42.2 101.587 42.26 101.401 42.3C101.216 42.3436 101.03 42.3655 100.845 42.3655C100.652 42.3655 100.463 42.3455 100.278 42.3055C100.096 42.2691 99.9159 42.2182 99.7378 42.1527C99.5596 42.0909 99.3832 42.02 99.2087 41.94C99.0341 41.8564 98.8596 41.7709 98.685 41.6836C98.3396 41.7891 97.9523 41.8691 97.5232 41.9236C97.0978 41.9745 96.6268 42 96.1105 42H95.205V41.3291H96.1105C96.7578 41.3291 97.3268 41.2855 97.8178 41.1982C97.7596 41.1618 97.705 41.1255 97.6541 41.0891C97.6032 41.0527 97.5541 41.0145 97.5068 40.9745C97.2268 40.7564 97.0141 40.5109 96.8687 40.2382C96.7232 39.9618 96.6505 39.6473 96.6505 39.2945C96.6505 38.9964 96.7014 38.7236 96.8032 38.4764C96.9087 38.2291 97.0541 38.0182 97.2396 37.8436C97.425 37.6691 97.645 37.5345 97.8996 37.44C98.1541 37.3418 98.4323 37.2927 98.7341 37.2927C99.0068 37.2927 99.2614 37.3509 99.4978 37.4673C99.7341 37.5836 99.9378 37.74 100.109 37.9364C100.283 38.1291 100.42 38.3509 100.518 38.6018C100.62 38.8527 100.67 39.1109 100.67 39.3764C100.67 39.8091 100.57 40.1891 100.37 40.5164C100.17 40.84 99.8832 41.1109 99.5087 41.3291C99.705 41.4345 99.9178 41.5218 100.147 41.5909C100.376 41.66 100.61 41.6945 100.85 41.6945C101.007 41.6945 101.15 41.6782 101.281 41.6455C101.416 41.6127 101.536 41.5691 101.641 41.5145C101.747 41.46 101.836 41.3982 101.909 41.3291C101.985 41.2564 102.043 41.1818 102.083 41.1055C102.149 40.9855 102.194 40.8691 102.22 40.7564C102.245 40.64 102.25 40.5218 102.236 40.4018C102.221 40.2818 102.187 40.1564 102.132 40.0255C102.081 39.8909 102.007 39.7473 101.909 39.5945C101.694 39.2527 101.385 38.86 100.981 38.4164C100.578 37.9691 100.092 37.4455 99.525 36.8455L100.01 36.3818ZM105.22 42H104.538V34.2164H105.22V42ZM104.496 45.0164V44.3509H105.254C106.109 44.3509 106.734 44.1273 107.13 43.68C107.494 43.2655 107.676 42.6455 107.676 41.82V38.3182H108.347V41.82C108.347 42.8745 108.085 43.6709 107.561 44.2091C107.041 44.7473 106.272 45.0164 105.254 45.0164H104.496Z" fill="black"/>
</svg>
